<svg width="319" height="373" viewBox="0 0 319 373" fill="none" xmlns="http://www.w3.org/2000/svg">
<ellipse cx="160" cy="353" rx="140" ry="20" fill="#D9D9D9"/>
<ellipse cx="160" cy="353" rx="140" ry="20" fill="#DBE0CE"/>
<rect x="64.5" y="241.002" width="182" height="47" rx="7" fill="#FF7B6D" stroke="#174A41" stroke-width="6"/>
<path d="M88.5 353.002L77.5 288.502H233.5L222.5 353.002H88.5Z" fill="#FF7B6D" stroke="#174A41" stroke-width="5"/>
<path d="M89.5 342.002H144.389M156.426 342.002H180.5" stroke="#174A41" stroke-width="5" stroke-linecap="round" stroke-linejoin="round"/>
<path d="M205 263.502H244" stroke="#174A41" stroke-width="5" stroke-linecap="round" stroke-linejoin="round"/>
<path d="M226 241.002H84.4999C52.3949 196.528 47.8767 166.216 58.9999 104.502C74.8489 44.8318 101.936 32.681 157.5 19.502C221.507 24.8968 243.933 42.2535 254.5 104.502C262.535 168.234 259.668 199.957 226 241.002Z" fill="#92D4C7" stroke="#174A41" stroke-width="5"/>
<path d="M87.5 240.002C56 130.002 94.9998 37.502 156.5 20.002" stroke="#174A41" stroke-width="5"/>
<path d="M189.5 23.502C219.5 52.002 234 157.002 209.5 241.502" stroke="#174A41" stroke-width="5"/>
<path d="M159 20.502C141.833 104.721 138.597 153.202 147 242.502" stroke="#174A41" stroke-width="5"/>
<path d="M53.5002 48.5021C60.5 62.0021 55.9372 76.354 62.0002 95.0021L55.5002 131.002C27.3652 109.826 16.4754 94.9458 18.0002 55.5021C20.2726 46.117 22.5927 41.6263 32.0002 37.5021C44.374 34.0044 50.1904 40.1097 53.5002 48.5021Z" fill="#92D4C7" stroke="#174A41" stroke-width="5"/>
<path d="M28.5002 39.002C22.8858 81.4686 32.469 97.9952 56.5002 123.502" stroke="#174A41" stroke-width="5"/>
<path d="M37.5001 36.002C35.675 67.1727 42.1825 81.3736 60.0001 104.002" stroke="#174A41" stroke-width="5"/>
<path d="M258 154.502C243 163.502 232.971 158.247 238 144.502C250.672 128.19 253 113.002 261 82.0019C268.551 67.0391 276.712 65.1515 292.5 68.5019C308.989 80.2273 312.992 89.3034 308 109.002C297.812 133.842 286.7 144.292 258 154.502Z" fill="#92D4C7" stroke="#174A41" stroke-width="5"/>
<path d="M237 147.502C263.464 123.96 273.962 106.168 285 66.002M238 154.502C282.46 137.839 295.052 119.154 300.5 73.002" stroke="#174A41" stroke-width="5"/>
<path d="M170 20.502C170 22.0089 169.066 23.698 166.883 25.1283C164.721 26.5445 161.588 27.502 158 27.502C154.412 27.502 151.279 26.5445 149.117 25.1283C146.934 23.698 146 22.0089 146 20.502C146 18.995 146.934 17.3059 149.117 15.8756C151.279 14.4594 154.412 13.502 158 13.502C161.588 13.502 164.721 14.4594 166.883 15.8756C169.066 17.3059 170 18.995 170 20.502Z" stroke="#174A41" stroke-width="5"/>
<path d="M157.5 3.00199C151.001 3.11419 144.211 6.96772 150.5 15.002C156.155 13.0622 159.565 12.7649 166.5 15.002C169.328 6.65877 163.357 2.90086 157.5 3.00199Z" fill="#FAFAFA" stroke="#174A41" stroke-width="5"/>
<path d="M120.5 20.5019C120.112 9.6564 133.392 12.2162 148 16.5019C148 18.6685 148.243 23.184 148 23.5019C141.674 31.7854 120.886 31.2981 120.5 20.5019Z" fill="#FAFAFA" stroke="#174A41" stroke-width="5"/>
<path d="M132 31.002L147.5 24.002L158 27.502C161.294 39.3711 160.235 43.8203 147.5 43.502C141.577 43.066 138.547 42.3508 133.5 40.502C125.25 37.1358 125.732 35.0178 132 31.002Z" fill="#FAFAFA" stroke="#174A41" stroke-width="5"/>
<path d="M169.5 22.502L158 28.002L166 41.002C171.163 46.686 174.948 46.1853 182.5 42.002C189.021 36.8155 188.798 34.1298 185.5 29.502C179.687 22.5525 175.989 22.8977 169.5 22.502Z" fill="#FAFAFA" stroke="#174A41" stroke-width="5"/>
<path d="M178.5 11.5018L167.5 16.0018L168.5 20.0018L189.5 23.5018C191.749 11.5421 188.984 9.30607 178.5 11.5018Z" fill="#FAFAFA" stroke="#174A41" stroke-width="5"/>
<path d="M16 26.002L32 37.002L37.5 26.002M3 79.002L19.5 87.002L13 101.502M83.5 31.502L100 39.002L103.5 24.502M74.5 89.002L86 95.002L83.5 77.002M38 176.502L55.5 183.502L47.5 197.502M269.5 190.002L252 197.502L261 210.502M316.5 125.002C315.7 125.002 304.167 126.335 298.5 127.002L302.5 142.002M289.5 51.002L293.5 67.002L308.5 61.002M231.5 28.002L232.5 45.002H248.5M229 86.502L219.5 100.502L232.5 104.002" stroke="#174A41" stroke-width="5" stroke-linecap="round" stroke-linejoin="round"/>
<circle cx="145" cy="200" r="14.5" fill="#174A41" stroke="#174A41"/>
<ellipse cx="84.625" cy="185.756" rx="11" ry="5.5" transform="rotate(1.33281 84.625 185.756)" fill="#E1ACA7"/>
<ellipse cx="216.625" cy="185.756" rx="11" ry="5.5" transform="rotate(-3.80137 216.625 185.756)" fill="#E1ACA7"/>
<path d="M96.5 138.002C100.585 132.819 103.96 131.769 111.5 132.502" stroke="#174A41" stroke-width="5" stroke-linecap="round"/>
<path d="M187.5 129.822C194.348 127.911 198.134 128.998 203.112 133.215" stroke="#174A41" stroke-width="5" stroke-linecap="round"/>
<path d="M99 154.5L121.5 167M118 151.5L101.5 169.5" stroke="#174A41" stroke-width="5" stroke-linecap="round"/>
<path d="M178.337 144.872L196.262 163.344M197.393 147.494L176.393 159.954" stroke="#174A41" stroke-width="5" stroke-linecap="round"/>
<path d="M167.5 19.5C167.5 23.0293 163.629 26.5 158 26.5C152.371 26.5 148.5 23.0293 148.5 19.5C148.5 15.9707 152.371 12.5 158 12.5C163.629 12.5 167.5 15.9707 167.5 19.5Z" fill="#EFD762" stroke="#174A41" stroke-width="3"/>
</svg>
