<svg width="474" height="914" viewBox="0 0 474 914" fill="none" xmlns="http://www.w3.org/2000/svg">
<path opacity="0.25" d="M112.662 68.6198C113.043 68.615 113.415 68.5777 113.789 68.5542C114.228 68.6841 114.663 68.84 115.081 69.0381C117.353 70.1914 118.995 71.5052 121.568 70.301C125.3 68.5631 128.534 65.0958 132.607 64.1104C131.697 63.1219 129.913 62.8612 128.696 62.6843C124.265 61.9856 120.109 62.9307 116.495 65.5275C115.286 66.3967 113.995 67.4089 112.535 67.8442C110.256 67.824 108.239 67.3552 105.993 66.8357C103.96 65.5564 101.995 64.1674 100.066 62.7218C98.2329 60.3631 96.3036 58.0735 94.2948 55.887C89.1588 50.2994 83.3856 45.3309 77.2581 40.8625C77.8447 41.0166 78.4276 41.1656 79.0018 41.3132C81.6344 42.0076 84.3035 42.5607 86.9862 43.0579C87.4863 43.6042 87.948 44.1933 88.4581 44.7323C91.0209 47.3266 94.5767 48.6008 98.2167 48.6787C104.022 48.7895 109.568 46.7993 115.34 46.235C114.624 45.4524 113.343 44.9838 112.438 44.4828C107.81 41.9301 102.622 38.7899 97.2052 38.5997C94.2622 38.5198 91.5594 39.618 88.995 40.962C88.3287 41.295 87.6491 41.7911 86.9365 42.1344C84.8974 41.7425 82.8676 41.3209 80.8493 40.8297C78.7787 40.33 76.6963 39.4934 74.614 38.9561C73.96 38.5051 73.3074 38.0455 72.6519 37.6033C65.8126 33.0095 58.14 28.3775 50.1061 26.3077C49.7465 26.2131 49.6284 26.743 49.9295 26.895C56.1455 30.1409 62.4299 32.9693 68.4504 36.5091C72.7207 41.3835 75.3315 48.3484 76.94 55.1893C76.7983 55.5368 76.6131 55.8771 76.4786 56.2346C76.0419 57.2929 75.9226 58.3764 75.6817 59.4935C75.3079 61.2587 74.5439 62.8975 74.452 64.7133C74.2555 67.1416 75.1658 69.0277 76.3699 71.0557C77.464 72.8558 77.7838 74.9667 78.8257 76.7582C79.6703 74.954 80.0729 72.8765 80.6087 70.9949C81.3822 68.3976 82.1084 65.7345 81.8861 63.0009C81.6608 59.74 79.8551 57.6224 78.0132 55.2623C77.5326 53.3974 76.9419 51.5503 76.2664 49.7026C76.1247 49.3132 75.9794 48.9188 75.8305 48.5193C76.5477 49.5388 77.3337 50.4936 78.2115 51.4053C78.5154 52.0311 78.6776 52.7588 78.9967 53.3737C80.1179 55.5533 81.7254 58.2814 83.6887 59.7638C86.3086 61.8182 89.5157 64.5402 92.7121 65.5279C92.19 64.1073 92.0123 62.5465 91.6691 61.0971C90.2348 54.883 84.8279 53.5959 79.5759 51.7448C79.1989 51.4018 78.8104 51.0747 78.4485 50.7207C77.0181 49.3389 76.0677 47.6428 74.8838 46.0914C73.6355 43.0515 72.0819 39.9392 70.023 37.4587C70.6312 37.8352 71.2409 38.2029 71.8462 38.5967C78.884 43.1784 85.3663 48.5889 91.2865 54.5416C93.9948 58.8655 94.577 64.8017 94.932 69.8343C94.8149 70.1947 94.6819 70.5436 94.5568 70.8714C93.124 74.4951 91.259 77.9229 89.9611 81.5954C87.706 87.9513 90.825 94.0214 92.5134 100.183C93.5081 98.1715 94.1857 95.9961 95.2023 94.0146C96.4314 91.6348 98.037 89.4371 98.7278 86.7995C99.4286 84.1009 99.085 81.2627 98.5962 78.5748C97.955 75.2904 96.8663 71.8211 95.595 68.6211C95.2761 64.5678 94.6834 59.7597 92.7434 56.0349C99.3713 62.9296 105.028 70.8442 108.993 79.4686C108.891 81.1533 108.543 82.7619 108.062 84.3354C107.844 84.6613 107.605 84.9707 107.328 85.2468C106.496 86.0751 105.395 86.5825 104.492 87.3233C103.063 88.496 101.52 89.8198 100.651 91.4726C99.9752 92.7641 99.6686 94.2278 99.5532 95.6691C99.4309 97.2075 99.1716 98.7369 99.0666 100.278C99.0055 101.197 98.8497 102.176 98.8921 103.09C99.4678 102.492 100.069 101.929 100.673 101.349C101.747 100.324 102.782 99.2655 103.857 98.2402C105.243 96.922 106.705 95.6253 107.885 94.1172C109.044 92.6323 109.541 90.7935 109.474 88.9159C109.406 87.3374 109.179 85.7507 108.993 84.1886C109.271 83.0373 109.466 81.8681 109.562 80.7094C110.946 83.8743 112.101 87.1355 112.982 90.4772C112.827 91.2332 112.562 91.9846 112.335 92.6844C111.102 96.5103 109.004 100.105 108.543 104.174C108.151 107.441 109.195 110.282 110.357 113.277C111.336 115.813 112.179 118.791 113.681 121.095C113.811 119.406 114.819 117.691 115.475 116.169C117.778 110.776 120.013 105.087 118.784 99.1477C117.993 95.3878 116.043 92.4295 113.969 89.4151C111.604 80.6238 107.245 72.4128 101.813 64.9815C105.487 67.9362 109.674 70.3454 114.073 72.249C114.525 72.707 114.97 73.1549 115.368 73.6667C117.465 76.2427 118.97 78.4002 122.326 79.4722C127.06 80.9973 132.159 79.7735 136.903 81.0458C136.118 80.1671 135.242 79.3538 134.467 78.4142C133.209 76.8776 132.115 75.0775 130.383 73.9813C128.591 72.8751 126.841 73.1424 124.877 73.1111C121.993 73.0274 119.216 72.2827 116.358 72.0424C115.177 71.5633 114.004 71.0632 112.84 70.5333C111.441 69.8889 110.079 69.1793 108.742 68.4289C110.082 68.617 111.492 68.5934 112.675 68.5726L112.662 68.6198Z" fill="#44664B"/>
<path opacity="0.25" d="M420.35 186.637C420.5 186.987 420.676 187.317 420.841 187.654C420.888 188.109 420.91 188.57 420.887 189.033C420.688 191.573 420.1 193.592 422.195 195.511C425.225 198.297 429.664 199.963 432.129 203.352C432.696 202.134 432.256 200.385 431.955 199.193C430.91 194.83 428.451 191.35 424.671 189C423.406 188.214 421.978 187.407 421.019 186.223C420.168 184.11 419.831 182.066 419.454 179.792C419.862 177.425 420.396 175.078 420.996 172.744C422.476 170.149 423.857 167.492 425.111 164.801C428.316 157.921 430.706 150.689 432.498 143.32C432.579 143.921 432.664 144.517 432.747 145.104C433.109 147.802 433.617 150.481 434.181 153.15C433.866 153.821 433.498 154.472 433.195 155.15C431.775 158.508 431.954 162.281 433.27 165.676C435.383 171.083 439.339 175.45 442.063 180.571C442.513 179.61 442.458 178.248 442.576 177.22C443.169 171.968 444.092 165.974 442.201 160.895C441.152 158.144 439.105 156.065 436.884 154.207C436.322 153.718 435.605 153.279 435.015 152.752C434.599 150.717 434.215 148.68 433.898 146.627C433.57 144.523 433.549 142.279 433.251 140.149C433.418 139.372 433.594 138.594 433.753 137.819C435.389 129.744 436.743 120.885 435.591 112.669C435.541 112.3 435.006 112.394 434.98 112.73C434.352 119.714 434.136 126.602 433.161 133.518C430.285 139.325 424.843 144.396 419.134 148.493C418.758 148.495 418.373 148.453 417.991 148.466C416.847 148.466 415.8 148.769 414.675 148.972C412.901 149.3 411.094 149.22 409.381 149.828C407.061 150.572 405.665 152.134 404.25 154.02C403.004 155.719 401.175 156.82 399.916 158.466C401.906 158.559 403.98 158.138 405.924 157.915C408.62 157.639 411.359 157.294 413.8 156.046C416.729 154.593 417.997 152.116 419.476 149.513C421.016 148.357 422.498 147.106 423.948 145.777C424.254 145.497 424.563 145.213 424.876 144.922C424.207 145.974 423.624 147.065 423.117 148.224C422.654 148.744 422.043 149.172 421.597 149.701C420.01 151.569 418.102 154.096 417.48 156.477C416.581 159.682 415.289 163.685 415.596 167.017C416.71 165.992 418.085 165.232 419.293 164.362C424.49 160.665 423.616 155.176 423.323 149.615C423.497 149.136 423.651 148.652 423.84 148.182C424.571 146.333 425.776 144.807 426.759 143.121C429.092 140.807 431.376 138.183 432.883 135.334C432.767 136.04 432.66 136.743 432.527 137.453C430.978 145.707 428.45 153.763 425.207 161.507C422.243 165.66 416.979 168.463 412.462 170.712C412.084 170.741 411.711 170.751 411.36 170.761C407.464 170.819 403.584 170.403 399.694 170.605C392.959 170.946 388.538 176.145 383.487 180.057C385.726 180.209 387.995 180.005 390.215 180.189C392.883 180.417 395.528 181.062 398.229 180.694C400.991 180.312 403.483 178.912 405.781 177.434C408.573 175.588 411.364 173.258 413.837 170.862C417.462 169.021 421.68 166.638 424.382 163.423C420.538 172.181 415.381 180.43 408.922 187.385C407.326 187.934 405.707 188.226 404.069 188.382C403.684 188.304 403.307 188.202 402.946 188.051C401.863 187.598 400.974 186.774 399.944 186.222C398.315 185.349 396.503 184.428 394.643 184.255C393.192 184.123 391.722 184.398 390.346 184.842C388.877 185.316 387.364 185.66 385.9 186.151C385.027 186.445 384.062 186.674 383.234 187.062C384.007 187.366 384.756 187.707 385.522 188.044C386.88 188.646 388.254 189.199 389.611 189.801C391.358 190.579 393.115 191.436 394.96 191.951C396.774 192.455 398.664 192.214 400.373 191.435C401.807 190.77 403.187 189.955 404.559 189.186C405.73 189.004 406.885 188.739 407.993 188.385C405.595 190.872 403.021 193.183 400.269 195.274C399.511 195.419 398.715 195.46 397.982 195.518C393.975 195.837 389.851 195.27 385.915 196.397C382.745 197.281 380.517 199.33 378.193 201.547C376.222 203.419 373.791 205.335 372.234 207.603C373.845 207.078 375.815 207.356 377.472 207.381C383.336 207.452 389.447 207.347 394.468 203.944C397.642 201.779 399.632 198.848 401.627 195.78C408.851 190.239 414.777 183.078 419.573 175.221C418.244 179.744 417.615 184.533 417.534 189.326C417.283 189.919 417.039 190.501 416.718 191.064C415.137 193.986 413.717 196.199 414.007 199.711C414.403 204.669 417.48 208.915 418.114 213.785C418.627 212.725 419.045 211.604 419.617 210.53C420.558 208.781 421.804 207.082 422.157 205.063C422.495 202.984 421.58 201.469 420.86 199.642C419.837 196.943 419.466 194.093 418.597 191.359C418.589 190.085 418.604 188.81 418.65 187.532C418.711 185.993 418.848 184.463 419.031 182.94C419.368 184.251 419.928 185.546 420.399 186.631L420.35 186.637Z" fill="#44664B"/>
<path opacity="0.25" d="M57.8798 587.693C57.7615 588.055 57.6145 588.401 57.4799 588.753C57.473 589.211 57.4924 589.673 57.5567 590.132C57.9813 592.647 58.7478 594.606 56.8252 596.715C54.0449 599.777 49.758 601.852 47.5961 605.462C46.9219 604.3 47.2059 602.515 47.4006 601.298C48.0574 596.849 50.2055 593.148 53.7726 590.453C54.9667 589.55 56.322 588.612 57.1755 587.342C57.8377 585.155 57.9926 583.085 58.1671 580.781C57.5502 578.459 56.8083 576.168 56.0014 573.896C54.2916 571.446 52.6767 568.924 51.1843 566.357C47.3711 559.795 44.3414 552.804 41.8965 545.622C41.8685 546.229 41.8368 546.831 41.8063 547.424C41.6836 550.149 41.4146 552.868 41.0881 555.583C41.4615 556.222 41.8874 556.838 42.2509 557.485C43.9679 560.703 44.1242 564.482 43.1098 567.991C41.4793 573.582 37.9148 578.306 35.6476 583.667C35.1126 582.751 35.047 581.387 34.8381 580.373C33.7786 575.19 32.3244 569.298 33.7628 564.055C34.5667 561.214 36.4266 558.949 38.4806 556.889C38.9987 556.349 39.6769 555.845 40.2188 555.263C40.4536 553.195 40.6572 551.128 40.7907 549.051C40.9317 546.921 40.7538 544.681 40.8622 542.529C40.6262 541.77 40.3814 541.01 40.1541 540.252C37.802 532.351 35.6627 523.641 36.0843 515.339C36.1014 514.967 36.644 515.01 36.6995 515.343C37.9475 522.25 38.7754 529.1 40.3634 535.907C43.7526 541.43 49.6397 545.981 55.7081 549.535C56.0831 549.501 56.4644 549.424 56.8469 549.4C57.9907 549.294 59.0637 549.499 60.2053 549.597C62.0071 549.758 63.8047 549.509 65.5706 549.956C67.9543 550.482 69.4877 551.909 71.0691 553.659C72.4652 555.237 74.3905 556.164 75.794 557.689C73.814 557.967 71.7046 557.741 69.7429 557.7C67.0248 557.676 64.2579 557.588 61.7073 556.57C58.6526 555.394 57.1655 553.042 55.4569 550.584C53.8153 549.574 52.2235 548.465 50.6566 547.274C50.3262 547.024 49.9921 546.769 49.6542 546.509C50.4156 547.496 51.0946 548.529 51.7049 549.638C52.2132 550.113 52.8613 550.483 53.3545 550.969C55.1059 552.685 57.2369 555.027 58.0688 557.343C59.2519 560.456 60.8985 564.329 60.8879 567.68C59.684 566.762 58.2429 566.132 56.9579 565.377C51.4376 562.174 51.8229 556.618 51.6218 551.044C51.4061 550.583 51.2092 550.114 50.9786 549.664C50.0836 547.887 48.744 546.478 47.6129 544.888C45.0759 542.797 42.561 540.394 40.8021 537.692C40.9806 538.385 41.1502 539.077 41.3462 539.773C43.6273 547.86 46.8681 555.66 50.7961 563.081C54.1256 566.947 59.6347 569.252 64.3468 571.073C64.7269 571.067 65.1007 571.043 65.452 571.019C69.3498 570.714 73.1896 569.937 77.0939 569.776C83.8536 569.487 88.7321 574.261 94.1264 577.691C91.9027 578.051 89.6173 578.06 87.4161 578.45C84.7699 578.926 82.1856 579.817 79.4536 579.702C76.6604 579.578 74.0459 578.414 71.6187 577.155C68.6661 575.574 65.6703 573.51 62.9869 571.351C59.2017 569.852 54.7757 567.87 51.79 564.915C56.4081 573.291 62.2932 581.038 69.3642 587.373C71.0076 587.771 72.6518 587.912 74.3021 587.914C74.6796 587.801 75.047 587.664 75.3943 587.48C76.4363 586.927 77.2515 586.021 78.2309 585.375C79.7811 584.352 81.51 583.264 83.3524 582.919C84.7911 582.652 86.2841 582.789 87.6985 583.103C89.208 583.439 90.7498 583.641 92.2568 583.994C93.1548 584.206 94.1389 584.345 95.0007 584.655C94.2561 585.03 93.5377 585.44 92.8019 585.847C91.4988 586.574 90.1757 587.254 88.8726 587.981C87.196 588.92 85.517 589.938 83.7201 590.624C81.9519 591.297 80.0426 591.232 78.2652 590.614C76.7742 590.085 75.323 589.4 73.8832 588.762C72.6978 588.689 71.5199 588.533 70.3818 588.283C72.9978 590.54 75.7748 592.605 78.7103 594.433C79.4806 594.508 80.2794 594.474 81.0171 594.464C85.049 594.409 89.1186 593.458 93.1517 594.215C96.3968 594.801 98.8047 596.637 101.324 598.632C103.459 600.315 106.058 601.999 107.815 604.116C106.159 603.742 104.216 604.203 102.562 604.383C96.7103 605 90.5947 605.466 85.276 602.541C81.9129 600.676 79.6639 597.939 77.3984 595.065C69.6892 590.213 63.1318 583.623 57.6423 576.233C59.3721 580.621 60.426 585.339 60.9324 590.112C61.2357 590.68 61.5315 591.237 61.9022 591.769C63.7412 594.535 65.3568 596.611 65.3789 600.141C65.4229 605.122 62.7258 609.644 62.5247 614.561C61.9183 613.551 61.4018 612.473 60.7341 611.454C59.6392 609.798 58.2431 608.22 57.7116 606.239C57.1888 604.197 57.9682 602.6 58.5258 600.711C59.3085 597.924 59.426 595.047 60.0512 592.239C59.9458 590.967 59.8178 589.697 59.6587 588.426C59.4604 586.897 59.1883 585.384 58.87 583.882C58.6492 585.221 58.2047 586.565 57.8311 587.69L57.8798 587.693Z" fill="#44664B"/>
<path opacity="0.25" d="M127.976 861.711C128.32 861.876 128.643 862.067 128.974 862.246C129.428 862.313 129.888 862.354 130.352 862.351C132.9 862.259 134.943 861.756 136.782 863.939C139.453 867.096 140.949 871.618 144.245 874.234C143.004 874.75 141.272 874.235 140.091 873.883C135.766 872.648 132.379 870.034 130.174 866.144C129.436 864.842 128.683 863.376 127.536 862.363C125.454 861.42 123.422 860.995 121.162 860.52C118.778 860.828 116.41 861.263 114.051 861.765C111.399 863.139 108.688 864.41 105.947 865.553C98.9414 868.473 91.6141 870.561 84.1732 872.043C84.7712 872.151 85.3639 872.261 85.9481 872.369C88.6337 872.848 91.2935 873.47 93.9424 874.15C94.6254 873.864 95.2915 873.522 95.9806 873.247C99.3954 871.966 103.163 872.306 106.508 873.772C111.837 876.121 116.054 880.274 121.072 883.224C120.094 883.634 118.732 883.52 117.7 883.595C112.423 883.966 106.391 884.635 101.382 882.522C98.6702 881.353 96.6688 879.212 94.8959 876.906C94.4285 876.322 94.017 875.583 93.5117 874.97C91.4925 874.466 89.4694 873.993 87.4276 873.589C85.3348 873.17 83.0906 873.053 80.9714 872.663C80.188 872.798 79.4023 872.941 78.6212 873.067C70.4801 874.363 61.5648 875.343 53.3897 873.837C53.0229 873.771 53.1367 873.239 53.4741 873.228C60.4855 872.895 67.3848 872.972 74.341 872.29C80.2613 869.654 85.5436 864.414 89.8622 858.863C89.8782 858.487 89.8516 858.099 89.8785 857.717C89.9227 856.569 90.2662 855.532 90.5131 854.413C90.9095 852.648 90.8981 850.833 91.5723 849.141C92.4067 846.847 94.0222 845.514 95.9642 844.175C97.7111 842.998 98.883 841.211 100.579 840.019C100.595 842.019 100.094 844.08 99.7964 846.02C99.4165 848.711 98.9661 851.443 97.6231 853.838C96.0573 856.712 93.5304 857.878 90.8693 859.25C89.6537 860.745 88.3453 862.178 86.9596 863.575C86.6681 863.87 86.3713 864.168 86.0691 864.469C87.1472 863.843 88.2609 863.305 89.4402 862.846C89.9779 862.404 90.4292 861.81 90.9762 861.385C92.9061 859.873 95.5075 858.068 97.9127 857.546C101.154 856.781 105.209 855.656 108.53 856.106C107.462 857.179 106.649 858.526 105.732 859.7C101.833 864.754 96.3757 863.643 90.8236 863.112C90.3374 863.266 89.8473 863.4 89.3703 863.569C87.4919 864.224 85.9192 865.367 84.1944 866.28C81.7898 868.521 79.0773 870.699 76.1685 872.089C76.8791 872.003 77.5873 871.925 78.3025 871.822C86.6192 870.621 94.7762 868.43 102.648 865.508C106.917 862.714 109.924 857.554 112.347 853.122C112.391 852.744 112.415 852.37 112.438 852.019C112.647 848.115 112.38 844.206 112.731 840.315C113.331 833.575 118.703 829.364 122.81 824.466C122.876 826.718 122.585 828.985 122.683 831.218C122.809 833.904 123.353 836.583 122.881 839.276C122.393 842.029 120.896 844.468 119.329 846.709C117.375 849.429 114.936 852.129 112.444 854.506C110.463 858.063 107.917 862.19 104.597 864.763C113.506 861.283 121.957 856.463 129.164 850.284C129.774 848.707 130.129 847.095 130.348 845.459C130.285 845.07 130.197 844.688 130.06 844.319C129.648 843.214 128.858 842.287 128.345 841.232C127.534 839.561 126.682 837.704 126.581 835.832C126.505 834.371 126.837 832.909 127.333 831.548C127.864 830.095 128.266 828.593 128.814 827.146C129.142 826.283 129.408 825.326 129.828 824.512C130.103 825.299 130.415 826.065 130.723 826.848C131.273 828.235 131.773 829.636 132.323 831.023C133.034 832.808 133.824 834.606 134.268 836.478C134.703 838.319 134.389 840.203 133.543 841.884C132.823 843.293 131.955 844.642 131.133 845.986C130.905 847.151 130.596 848.298 130.2 849.394C132.78 847.096 135.191 844.614 137.388 841.943C137.563 841.189 137.634 840.393 137.72 839.66C138.194 835.656 137.785 831.497 139.064 827.598C140.07 824.457 142.206 822.311 144.513 820.075C146.462 818.178 148.472 815.823 150.801 814.358C150.214 815.951 150.416 817.938 150.377 819.601C150.223 825.483 149.883 831.607 146.286 836.497C143.997 839.586 140.988 841.457 137.843 843.327C132.022 850.333 124.629 855.971 116.584 860.445C121.16 859.305 125.976 858.878 130.774 859.002C131.377 858.775 131.968 858.555 132.544 858.257C135.528 856.797 137.797 855.467 141.299 855.908C146.244 856.517 150.373 859.783 155.222 860.627C154.14 861.096 153.004 861.466 151.906 861.995C150.121 862.863 148.374 864.041 146.34 864.308C144.247 864.559 142.767 863.577 140.966 862.776C138.306 861.635 135.469 861.142 132.767 860.154C131.492 860.092 130.216 860.052 128.936 860.043C127.394 860.04 125.858 860.111 124.328 860.23C125.626 860.624 126.9 861.241 127.967 861.759L127.976 861.711Z" fill="#44664B"/>
<path opacity="0.25" d="M403.859 720.524C403.497 720.468 403.14 720.445 402.781 720.408C402.379 720.212 401.983 719.991 401.607 719.731C399.574 718.245 398.156 716.703 395.582 717.468C391.849 718.569 388.402 721.435 384.426 721.748C385.183 722.857 386.849 723.395 387.986 723.761C392.119 725.147 396.169 724.887 399.883 722.929C401.126 722.274 402.462 721.492 403.896 721.3C406.058 721.682 407.924 722.46 410.001 723.324C411.792 724.895 413.508 726.562 415.184 728.278C416.669 730.87 418.253 733.409 419.924 735.861C424.197 742.126 429.141 747.89 434.477 753.221C433.937 752.978 433.399 752.74 432.87 752.505C430.444 751.409 427.969 750.445 425.475 749.533C425.059 748.921 424.685 748.273 424.258 747.666C422.106 744.729 418.866 742.921 415.417 742.266C409.916 741.234 404.432 742.293 398.888 741.925C399.483 742.802 400.649 743.463 401.454 744.095C405.573 747.32 410.16 751.208 415.285 752.255C418.072 752.801 420.758 752.16 423.34 751.257C424.009 751.039 424.708 750.663 425.422 750.442C427.316 751.148 429.199 751.882 431.062 752.682C432.975 753.499 434.862 754.646 436.782 755.501C437.354 756.045 437.924 756.597 438.499 757.132C444.497 762.699 451.282 768.436 458.689 771.733C459.02 771.882 459.19 771.384 458.92 771.188C453.368 767.034 447.706 763.277 442.371 758.867C438.843 753.435 437.119 746.228 436.333 739.302C436.505 738.986 436.718 738.683 436.885 738.356C437.414 737.394 437.645 736.356 437.995 735.305C438.542 733.643 439.445 732.167 439.729 730.411C440.179 728.075 439.519 726.091 438.595 723.922C437.751 721.992 437.677 719.883 436.881 717.97C435.883 719.595 435.276 721.557 434.563 723.307C433.546 725.716 432.568 728.197 432.482 730.898C432.343 734.114 433.828 736.466 435.322 739.06C435.576 740.955 435.937 742.85 436.378 744.759C436.47 745.161 436.565 745.569 436.664 745.982C436.093 744.874 435.45 743.818 434.715 742.789C434.494 742.131 434.419 741.396 434.183 740.745C433.354 738.442 432.123 735.526 430.419 733.768C428.153 731.348 425.402 728.184 422.473 726.712C422.815 728.18 422.815 729.731 422.983 731.198C423.672 737.486 428.668 739.601 433.456 742.241C433.777 742.636 434.11 743.017 434.415 743.419C435.624 744.994 436.343 746.799 437.299 748.5C438.155 751.663 439.294 754.945 440.98 757.691C440.443 757.227 439.904 756.772 439.372 756.292C433.184 750.705 427.613 744.398 422.636 737.651C420.532 733.004 420.623 727.124 420.832 722.16C420.982 721.827 421.146 721.508 421.301 721.208C423.054 717.903 425.198 714.857 426.829 711.482C429.66 705.644 427.356 699.229 426.421 692.952C425.258 694.755 424.378 696.768 423.197 698.539C421.772 700.664 420.008 702.551 419.066 705.013C418.108 707.533 418.126 710.355 418.299 713.054C418.552 716.359 419.21 719.915 420.07 723.237C419.934 727.24 419.975 732.023 421.414 735.964C415.866 728.186 411.351 719.569 408.521 710.529C408.8 708.902 409.305 707.389 409.933 705.931C410.176 705.648 410.436 705.385 410.729 705.159C411.609 704.484 412.71 704.165 413.648 703.586C415.133 702.67 416.742 701.624 417.746 700.151C418.528 698.999 418.978 697.621 419.244 696.233C419.527 694.753 419.939 693.303 420.206 691.817C420.364 690.93 420.618 690 420.677 689.103C420.065 689.594 419.433 690.047 418.797 690.517C417.665 691.345 416.567 692.213 415.435 693.042C413.976 694.107 412.446 695.138 411.162 696.421C409.9 697.685 409.228 699.399 409.089 701.24C408.982 702.79 409.025 704.374 409.033 705.926C408.644 707.005 408.331 708.114 408.115 709.228C407.143 705.922 406.401 702.559 405.925 699.16C406.155 698.447 406.489 697.757 406.779 697.111C408.366 693.576 410.749 690.404 411.628 686.51C412.354 683.387 411.671 680.45 410.892 677.346C410.238 674.717 409.76 671.679 408.582 669.193C408.276 670.82 407.132 672.331 406.344 673.712C403.572 678.604 400.832 683.795 401.355 689.782C401.699 693.575 403.23 696.769 404.873 700.038C406.166 708.987 409.416 717.687 413.77 725.797C410.601 722.332 406.885 719.316 402.912 716.76C402.533 716.242 402.159 715.734 401.836 715.172C400.124 712.327 398.929 709.984 395.857 708.404C391.526 706.164 386.55 706.546 382.182 704.551C382.832 705.533 383.576 706.465 384.21 707.505C385.238 709.203 386.082 711.132 387.608 712.477C389.191 713.841 390.882 713.858 392.744 714.201C395.475 714.742 398.031 715.909 400.72 716.598C401.79 717.253 402.85 717.928 403.897 718.629C405.157 719.48 406.373 720.389 407.562 721.333C406.31 720.937 404.968 720.736 403.842 720.568L403.859 720.524Z" fill="#44664B"/>
</svg>
