<svg width="350" height="350" viewBox="0 0 350 350" fill="none" xmlns="http://www.w3.org/2000/svg">
<path d="M0 0H350V350H0V0Z" fill="#F8FBF7"/>
<rect x="15" width="152.615" height="167.085" rx="20" fill="#D3DBD1"/>
<rect x="15" y="182.915" width="152.615" height="167.085" rx="20" fill="#D3DBD1"/>
<rect x="182.385" width="152.615" height="167.085" rx="20" fill="#D3DBD1"/>
<rect x="182.385" y="182.915" width="152.615" height="167.085" rx="20" fill="#D3DBD1"/>
<path fill-rule="evenodd" clip-rule="evenodd" d="M282.159 263.227H262.467V243.558C262.467 241.746 260.996 240.28 259.185 240.28C257.373 240.28 255.903 241.746 255.903 243.558V263.227H236.21C234.399 263.227 232.928 264.692 232.928 266.505C232.928 268.317 234.399 269.783 236.21 269.783H255.903V289.451C255.903 291.264 257.373 292.729 259.185 292.729C260.996 292.729 262.467 291.264 262.467 289.451V269.783H282.159C283.971 269.783 285.441 268.317 285.441 266.505C285.441 264.692 283.971 263.227 282.159 263.227" fill="#231F20"/>
<mask id="mask0_329_1229" style="mask-type:luminance" maskUnits="userSpaceOnUse" x="232" y="240" width="54" height="53">
<path fill-rule="evenodd" clip-rule="evenodd" d="M282.159 263.227H262.467V243.558C262.467 241.746 260.996 240.28 259.185 240.28C257.373 240.28 255.903 241.746 255.903 243.558V263.227H236.21C234.399 263.227 232.928 264.692 232.928 266.505C232.928 268.317 234.399 269.783 236.21 269.783H255.903V289.451C255.903 291.264 257.373 292.729 259.185 292.729C260.996 292.729 262.467 291.264 262.467 289.451V269.783H282.159C283.971 269.783 285.441 268.317 285.441 266.505C285.441 264.692 283.971 263.227 282.159 263.227" fill="white"/>
</mask>
<g mask="url(#mask0_329_1229)">
<rect x="219.8" y="227.168" width="78.7692" height="78.6729" fill="#174A41"/>
</g>
<g clip-path="url(#clip0_329_1229)">
<path fill-rule="evenodd" clip-rule="evenodd" d="M207.364 16.9636C205.765 16.1841 203.634 17.0882 204.523 19.1491C205.475 21.356 208.997 21.3833 210.986 21.3396C210.787 21.3293 210.146 19.3055 209.926 18.9997C209.279 18.0976 208.347 17.4438 207.364 16.9636ZM225.787 56.5315C225.82 56.5633 226.19 56.8707 225.787 56.5315ZM205.824 26.9456C204.888 27.6489 204.843 28.8906 205.608 29.7311C206.518 30.7317 208.18 30.6953 209.42 30.5978C209.982 30.5536 212.978 30.3177 212.268 29.8356C212.322 29.8559 212.437 29.9051 212.559 29.972C212.624 30.2081 212.693 30.4434 212.765 30.6776C212.748 30.6877 212.733 30.6986 212.714 30.7087C212.734 30.6999 212.749 30.6904 212.766 30.6814C213.487 33.0223 214.513 35.2512 215.856 37.3364C215.353 37.1419 214.833 36.9946 214.305 36.929C212.742 36.7346 209.453 37.9291 211.202 39.9755C212.878 41.9374 215.489 39.8326 217.391 39.5424C219.237 42.0751 221.272 44.5024 223.405 46.8485C223.274 46.8888 223.159 46.9726 223.094 47.1032C222.238 46.6764 221.347 46.0659 220.555 45.9006C219.412 45.6624 217.069 45.518 216.206 46.5236C215.144 47.76 216.282 48.7644 217.537 49.0015C219.357 49.3454 221.738 48.4713 223.489 47.8807C223.69 47.9155 223.908 47.8579 224.039 47.7004C224.078 47.6879 224.116 47.6757 224.154 47.6638C226.313 49.9985 228.556 52.2561 230.784 54.4643C230.761 54.463 230.737 54.4616 230.712 54.4603C230.131 54.0854 229.507 53.7778 228.831 53.6167C227.268 53.242 225.428 53.2402 224.159 54.3526C222.895 55.4602 222.448 57.3973 223.755 58.641C226.372 61.1306 230.229 55.4542 231.549 55.2172C233.814 57.4377 236.208 59.5122 238.641 61.545C238.365 61.4623 238.081 61.4015 237.788 61.3741C235.403 61.1496 229.805 64.0248 232.732 66.8536C235.283 69.3187 238.235 64.5741 240.291 62.9148C242.583 64.8094 244.888 66.6909 247.127 68.6459C245.906 68.3269 244.725 68.28 243.416 68.6691C242.061 69.0723 239.874 70.0783 240.731 71.8773C241.602 73.7067 244.228 72.8742 245.595 72.2934C246.341 71.9766 247.837 70.9075 249.15 70.4571C252.724 73.775 255.82 77.4295 258.164 81.7345C259.627 84.4224 260.737 87.2941 261.519 90.2457C262.018 92.1296 263.001 95.2937 262.804 97.7457C263.742 92.8376 262.046 86.9429 260.219 82.556C258.539 78.5219 256.025 74.9805 253.08 71.7928C253.819 69.6075 260.039 66.4556 256.321 64.4252C254.346 63.3517 252.324 65.133 251.892 67.0196C251.596 68.316 252.048 69.9449 252.527 71.2032C251.601 70.2314 250.638 69.291 249.645 68.3817C248.274 67.1251 246.87 65.9048 245.452 64.7C247.788 62.5422 249.999 56.3733 246.867 55.3645C242.242 53.8789 244.469 62.2934 244.791 63.8705C244.883 63.8758 244.954 63.8486 245.007 63.7902C244.981 63.9347 244.951 64.0891 244.914 64.2448C242.201 61.9509 239.447 59.702 236.784 57.3532C237.024 57.1789 237.406 56.5127 237.705 56.1581C238.382 55.3587 239.029 54.5237 239.502 53.5886C240.249 52.1108 240.97 49.7536 238.989 48.8844C236.835 47.9374 235.812 50.6034 235.797 52.1937C235.786 53.2937 236.091 54.3386 236.25 55.4167C236.299 55.7529 236.108 57.2686 236.574 56.6166C236.552 56.857 236.549 57.0311 236.56 57.1545C236.082 56.7308 235.608 56.3024 235.136 55.8709C235.158 55.8164 235.174 55.757 235.178 55.6881C235.203 55.214 234.718 55.0314 234.378 55.1702C233.756 54.5891 233.14 54.0006 232.535 53.4004C231.253 52.1288 229.952 50.821 228.66 49.4853C228.941 49.2486 228.829 48.9208 229.091 48.6695C229.353 48.4188 229.868 48.2801 230.176 48.0472C230.95 47.461 231.592 46.6071 232.056 45.7666C232.822 44.378 233.812 41.4649 231.574 40.803C229.266 40.1198 228.095 42.9239 227.947 44.6771C227.918 45.0167 228.177 48.0771 228.375 49.1883C225.985 46.706 223.634 44.1306 221.504 41.5103C222.15 41.5044 223.981 40.2036 224.351 39.8486C225.254 38.9828 226.689 37.0697 225.106 36.0573C223.698 35.1593 221.963 36.4599 221.361 37.7239C221.262 37.932 220.913 39.8692 220.886 40.7384C220.005 39.6273 219.164 38.5096 218.382 37.3883C217.86 36.6428 217.372 35.8776 216.916 35.0962C217.026 35.035 217.129 34.9282 217.227 34.7955C219.575 34.4037 222.568 30.8018 219.81 29.5486C218.497 28.9527 217.073 30.1828 216.43 31.1899C216.298 31.3959 216.085 32.4318 215.911 33.2488C214.599 30.66 213.596 27.9193 212.833 25.1093C213.037 25.0594 213.21 24.9059 213.233 24.6418C214.373 24.0028 215.273 23.4708 216.069 22.2421C216.563 21.4789 217.453 19.7352 216.001 19.3116C214.111 18.7605 212.923 21.5993 212.769 22.9976C212.751 23.1599 212.751 23.632 212.757 24.0645C212.692 24.0557 212.625 24.0567 212.56 24.0681C212.126 22.328 211.78 20.5656 211.504 18.8002C212.536 18.4737 212.714 13.146 212.027 12.3874C210.492 10.6888 209.409 13.1425 209.49 14.4394C209.587 15.9685 210.292 17.3594 211.131 18.5939C211.221 18.7246 211.195 18.7183 211.219 18.5362C211.232 18.6262 211.262 18.6926 211.308 18.7407C211.264 19.5456 211.18 20.3697 211.221 21.0819C211.337 23.1216 211.578 25.1731 211.929 27.1865C212.015 27.6762 212.112 28.1619 212.222 28.6434C211.393 27.9487 210.275 27.3316 209.837 27.1386C208.702 26.6381 206.952 26.0978 205.824 26.9456ZM262.937 97.7526C262.884 98.4638 262.754 99.1151 262.51 99.6522C262.693 99.0407 262.833 98.4052 262.937 97.7526Z" fill="#F2F2F2"/>
<g opacity="0.7">
<path fill-rule="evenodd" clip-rule="evenodd" d="M238.468 65.1384C242.908 64.9119 248.4 67.4606 248.874 72.2069C249.218 75.6554 249.112 79.0941 249.644 82.5375C250.07 85.2895 250.971 87.9313 252.199 90.4381C253.381 92.8487 255.831 94.9007 256.468 97.4759C256.875 99.1167 256.647 101.425 256.087 103.03C255.406 104.981 255.768 104.827 257.125 106.465C259.785 109.674 262.18 112.964 263.874 116.797C266.314 122.317 267.913 128.769 267.008 134.812C266.893 135.579 266.756 138.333 265.681 138.526C264.481 138.741 265.042 137.166 265.106 136.657C265.515 133.411 265.878 130.574 265.385 127.277C263.484 114.557 254.204 106.177 248.161 95.3815C247.829 94.8248 247.128 93.4991 246.64 92.6246C245.87 91.2438 245.096 88.6165 244.054 87.5926C242.092 85.6638 243.896 89.5414 244.278 90.2817C244.762 91.2181 245.294 92.2132 245.789 93.0337C248.057 96.837 250.587 100.989 252.929 104.909C242.802 107.178 235.67 95.207 232.952 87.337C230.713 80.853 228.034 65.6933 238.468 65.1384Z" fill="#6C6C6C"/>
<path fill-rule="evenodd" clip-rule="evenodd" d="M297.987 53.0974C290.564 53.6765 285.798 58.493 283.579 65.2298C282.384 68.8602 282.247 72.5898 281.582 76.3207C280.583 81.9339 278.432 86.1877 274.229 90.1868C272.927 91.4253 271.968 92.6969 271.286 94.0574C269.932 95.4158 268.753 96.9529 267.888 98.8322C266.782 101.232 266.469 104.112 267.746 106.505C268.089 107.148 268.945 108.439 269.833 109.026C266.51 115.985 264.682 123.607 264.888 131.22C265.013 135.815 265.241 140.412 265.507 145.001C265.579 146.234 265.987 148.269 266.6 146.202C267.161 144.312 266.457 141.344 266.392 139.369C266.075 129.748 265.805 121.001 269.832 112.012C270.255 111.07 270.703 110.136 271.169 109.209C271.196 109.193 271.222 109.174 271.248 109.156C271.265 109.17 271.281 109.184 271.299 109.197C271.329 109.145 271.37 109.083 271.417 109.013C271.551 108.878 271.668 108.706 271.779 108.515C272.136 108.028 272.541 107.456 272.543 107.143C272.543 107.141 272.541 107.137 272.541 107.134C275.035 103.132 277.891 99.3508 280.808 95.6433C280.786 95.6702 283.972 91.4048 283.479 93.7637C283.242 94.9004 280.898 97.0652 279.952 98.2692C277.858 100.948 275.4 104.342 273.356 107.624C273.081 107.779 272.693 108.542 272.412 109.11C272.257 109.398 272.112 109.688 271.97 109.941C279.21 112.293 284.841 107.556 288.681 102.046C288.686 102.039 288.69 102.032 288.694 102.026C289.863 100.503 291.06 98.9916 292.556 97.7881C295.051 95.7798 297.723 95.4255 300.665 94.4371C308.687 91.7419 312.098 81.519 313.181 73.9336C314.403 65.376 308.425 52.2535 297.987 53.0974Z" fill="#CDCDCD"/>
<path fill-rule="evenodd" clip-rule="evenodd" d="M283.323 29.1326C275.704 36.9296 272.023 47.7442 269.108 57.911C265.853 69.2662 263.703 80.7967 263.62 92.6027C263.566 100.359 263.351 108.164 263.812 115.912C263.975 118.663 264.254 121.42 264.698 124.142C264.734 124.365 265.727 130.443 266.676 129.027C267.216 128.222 265.659 122.722 265.541 121.806C264.879 116.647 264.726 111.45 264.758 106.254C264.811 97.6985 264.554 89.1868 265.436 80.6627C265.568 79.39 265.672 78.0533 265.979 76.8083C266.306 75.4846 265.89 76.0624 266.953 75.5384C267.986 75.029 269.263 75.1017 270.335 74.4626C274.587 71.9274 276.763 65.4152 278.455 61.1424C280.392 56.2562 281.569 51.0457 282.509 45.9036C283.199 42.1256 283.692 38.3706 283.972 34.5439C284.06 33.3379 284.065 32.0767 284.306 30.8909C284.371 30.571 284.697 30.0051 284.685 29.7218C284.66 29.1223 284.292 28.7697 284.262 28.2659C283.943 28.5482 283.63 28.8373 283.323 29.1326Z" fill="#CDCDCD"/>
<path fill-rule="evenodd" clip-rule="evenodd" d="M241.778 133.015C241.778 145.91 252.409 156.363 265.523 156.363C278.637 156.363 289.268 145.91 289.268 133.015" fill="#CDCDCD"/>
<path fill-rule="evenodd" clip-rule="evenodd" d="M267.429 133.09H266.174C266.261 131.542 266.376 129.997 266.639 128.466C267.646 122.612 270.793 114.015 277.695 113.065C277.95 113.029 278.886 113.023 280.021 113.089C280.559 112.793 281.161 112.615 281.796 112.574C287.673 112.148 294.236 116.809 297.07 121.66C299.356 125.572 298.971 130.708 297.559 134.863C296.614 137.645 294.551 141.612 291.111 141.65C286.807 141.699 286.599 136.468 286.516 133.411C286.406 129.345 285.883 125.804 282.625 123.033C281.866 122.388 281.036 121.82 280.269 121.183C279.068 120.187 277.741 119.167 277.586 117.518C277.373 115.244 278.678 114.835 280.672 115.258C281.012 115.33 284.434 116.84 283.928 115.646C283.773 115.281 283.208 114.992 282.494 114.776C280.649 114.579 278.448 114.35 277.815 114.486C270.985 115.96 268.326 125.261 267.62 131.171C267.544 131.809 267.482 132.449 267.429 133.09Z" fill="#6C6C6C"/>
</g>
</g>
<g clip-path="url(#clip1_329_1229)">
<path fill-rule="evenodd" clip-rule="evenodd" d="M207.364 16.9636C205.765 16.1841 203.634 17.0882 204.523 19.1491C205.475 21.356 208.997 21.3833 210.986 21.3396C210.787 21.3293 210.146 19.3055 209.926 18.9997C209.279 18.0976 208.347 17.4438 207.364 16.9636ZM225.787 56.5315C225.82 56.5633 226.19 56.8707 225.787 56.5315ZM205.824 26.9456C204.888 27.6489 204.843 28.8906 205.608 29.7311C206.518 30.7317 208.18 30.6953 209.42 30.5978C209.982 30.5536 212.978 30.3177 212.268 29.8356C212.322 29.8559 212.437 29.9051 212.559 29.972C212.624 30.2081 212.693 30.4434 212.765 30.6776C212.748 30.6877 212.733 30.6986 212.714 30.7087C212.734 30.6999 212.749 30.6904 212.766 30.6814C213.487 33.0223 214.513 35.2512 215.856 37.3364C215.353 37.1419 214.833 36.9946 214.305 36.929C212.742 36.7346 209.453 37.9291 211.202 39.9755C212.878 41.9374 215.489 39.8326 217.391 39.5424C219.237 42.0751 221.272 44.5024 223.405 46.8485C223.274 46.8888 223.159 46.9726 223.094 47.1032C222.238 46.6764 221.347 46.0659 220.555 45.9006C219.412 45.6624 217.069 45.518 216.206 46.5236C215.144 47.76 216.282 48.7644 217.537 49.0015C219.357 49.3454 221.738 48.4713 223.489 47.8807C223.69 47.9155 223.908 47.8579 224.039 47.7004C224.078 47.6879 224.116 47.6757 224.154 47.6638C226.313 49.9985 228.556 52.2561 230.784 54.4643C230.761 54.463 230.737 54.4616 230.712 54.4603C230.131 54.0854 229.507 53.7778 228.831 53.6167C227.268 53.242 225.428 53.2402 224.159 54.3526C222.895 55.4602 222.448 57.3973 223.755 58.641C226.372 61.1306 230.229 55.4542 231.549 55.2172C233.814 57.4377 236.208 59.5122 238.641 61.545C238.365 61.4623 238.081 61.4015 237.788 61.3741C235.403 61.1496 229.805 64.0248 232.732 66.8536C235.283 69.3187 238.235 64.5741 240.291 62.9148C242.583 64.8094 244.888 66.6909 247.127 68.6459C245.906 68.3269 244.725 68.28 243.416 68.6691C242.061 69.0723 239.874 70.0783 240.731 71.8773C241.602 73.7067 244.228 72.8742 245.595 72.2934C246.341 71.9766 247.837 70.9075 249.15 70.4571C252.724 73.775 255.82 77.4295 258.164 81.7345C259.627 84.4224 260.737 87.2941 261.519 90.2457C262.018 92.1296 263.001 95.2937 262.804 97.7457C263.742 92.8376 262.046 86.9429 260.219 82.556C258.539 78.5219 256.025 74.9805 253.08 71.7928C253.819 69.6075 260.039 66.4556 256.321 64.4252C254.346 63.3517 252.324 65.133 251.892 67.0196C251.596 68.316 252.048 69.9449 252.527 71.2032C251.601 70.2314 250.638 69.291 249.645 68.3817C248.274 67.1251 246.87 65.9048 245.452 64.7C247.788 62.5422 249.999 56.3733 246.867 55.3645C242.242 53.8789 244.469 62.2934 244.791 63.8705C244.883 63.8758 244.954 63.8486 245.007 63.7902C244.981 63.9347 244.951 64.0891 244.914 64.2448C242.201 61.9509 239.447 59.702 236.784 57.3532C237.024 57.1789 237.406 56.5127 237.705 56.1581C238.382 55.3587 239.029 54.5237 239.502 53.5886C240.249 52.1108 240.97 49.7536 238.989 48.8844C236.835 47.9374 235.812 50.6034 235.797 52.1937C235.786 53.2937 236.091 54.3386 236.25 55.4167C236.299 55.7529 236.108 57.2686 236.574 56.6166C236.552 56.857 236.549 57.0311 236.56 57.1545C236.082 56.7308 235.608 56.3024 235.136 55.8709C235.158 55.8164 235.174 55.757 235.178 55.6881C235.203 55.214 234.718 55.0314 234.378 55.1702C233.756 54.5891 233.14 54.0006 232.535 53.4004C231.253 52.1288 229.952 50.821 228.66 49.4853C228.941 49.2486 228.829 48.9208 229.091 48.6695C229.353 48.4188 229.868 48.2801 230.176 48.0472C230.95 47.461 231.592 46.6071 232.056 45.7666C232.822 44.378 233.812 41.4649 231.574 40.803C229.266 40.1198 228.095 42.9239 227.947 44.6771C227.918 45.0167 228.177 48.0771 228.375 49.1883C225.985 46.706 223.634 44.1306 221.504 41.5103C222.15 41.5044 223.981 40.2036 224.351 39.8486C225.254 38.9828 226.689 37.0697 225.106 36.0573C223.698 35.1593 221.963 36.4599 221.361 37.7239C221.262 37.932 220.913 39.8692 220.886 40.7384C220.005 39.6273 219.164 38.5096 218.382 37.3883C217.86 36.6428 217.372 35.8776 216.916 35.0962C217.026 35.035 217.129 34.9282 217.227 34.7955C219.575 34.4037 222.568 30.8018 219.81 29.5486C218.497 28.9527 217.073 30.1828 216.43 31.1899C216.298 31.3959 216.085 32.4318 215.911 33.2488C214.599 30.66 213.596 27.9193 212.833 25.1093C213.037 25.0594 213.21 24.9059 213.233 24.6418C214.373 24.0028 215.273 23.4708 216.069 22.2421C216.563 21.4789 217.453 19.7352 216.001 19.3116C214.111 18.7605 212.923 21.5993 212.769 22.9976C212.751 23.1599 212.751 23.632 212.757 24.0645C212.692 24.0557 212.625 24.0567 212.56 24.0681C212.126 22.328 211.78 20.5656 211.504 18.8002C212.536 18.4737 212.714 13.146 212.027 12.3874C210.492 10.6888 209.409 13.1425 209.49 14.4394C209.587 15.9685 210.292 17.3594 211.131 18.5939C211.221 18.7246 211.195 18.7183 211.219 18.5362C211.232 18.6262 211.262 18.6926 211.308 18.7407C211.264 19.5456 211.18 20.3697 211.221 21.0819C211.337 23.1216 211.578 25.1731 211.929 27.1865C212.015 27.6762 212.112 28.1619 212.222 28.6434C211.393 27.9487 210.275 27.3316 209.837 27.1386C208.702 26.6381 206.952 26.0978 205.824 26.9456ZM262.937 97.7526C262.884 98.4638 262.754 99.1151 262.51 99.6522C262.693 99.0407 262.833 98.4052 262.937 97.7526Z" fill="#86A06A"/>
<g opacity="0.7">
<path fill-rule="evenodd" clip-rule="evenodd" d="M238.468 65.1384C242.908 64.9119 248.4 67.4606 248.874 72.2069C249.218 75.6554 249.112 79.0941 249.644 82.5375C250.07 85.2895 250.971 87.9313 252.199 90.4381C253.381 92.8487 255.831 94.9007 256.468 97.4759C256.875 99.1167 256.647 101.425 256.087 103.03C255.406 104.981 255.768 104.827 257.125 106.465C259.785 109.674 262.18 112.964 263.874 116.797C266.314 122.317 267.913 128.769 267.008 134.812C266.893 135.579 266.756 138.333 265.681 138.526C264.481 138.741 265.042 137.166 265.106 136.657C265.515 133.411 265.878 130.574 265.385 127.277C263.484 114.557 254.204 106.177 248.161 95.3815C247.829 94.8248 247.128 93.4991 246.64 92.6246C245.87 91.2438 245.096 88.6165 244.054 87.5926C242.092 85.6638 243.896 89.5414 244.278 90.2817C244.762 91.2181 245.294 92.2132 245.789 93.0337C248.057 96.837 250.587 100.989 252.929 104.909C242.802 107.178 235.67 95.207 232.952 87.337C230.713 80.853 228.034 65.6933 238.468 65.1384Z" fill="#174A41"/>
<path fill-rule="evenodd" clip-rule="evenodd" d="M297.987 53.0974C290.564 53.6765 285.798 58.493 283.579 65.2298C282.384 68.8602 282.247 72.5898 281.582 76.3207C280.583 81.9339 278.432 86.1877 274.229 90.1868C272.927 91.4253 271.968 92.6969 271.286 94.0574C269.932 95.4158 268.753 96.9529 267.888 98.8322C266.782 101.232 266.469 104.112 267.746 106.505C268.089 107.148 268.945 108.439 269.833 109.026C266.51 115.985 264.682 123.607 264.888 131.22C265.013 135.815 265.241 140.412 265.507 145.001C265.579 146.234 265.987 148.269 266.6 146.202C267.161 144.312 266.457 141.344 266.392 139.369C266.075 129.748 265.805 121.001 269.832 112.012C270.255 111.07 270.703 110.136 271.169 109.209C271.196 109.193 271.222 109.174 271.248 109.156C271.265 109.17 271.281 109.184 271.299 109.197C271.329 109.145 271.37 109.083 271.417 109.013C271.551 108.878 271.668 108.706 271.779 108.515C272.136 108.028 272.541 107.456 272.543 107.143C272.543 107.141 272.541 107.137 272.541 107.134C275.035 103.132 277.891 99.3508 280.808 95.6433C280.786 95.6702 283.972 91.4048 283.479 93.7637C283.242 94.9004 280.898 97.0652 279.952 98.2692C277.858 100.948 275.4 104.342 273.356 107.624C273.081 107.779 272.693 108.542 272.412 109.11C272.257 109.398 272.112 109.688 271.97 109.941C279.21 112.293 284.841 107.556 288.681 102.046C288.686 102.039 288.69 102.032 288.694 102.026C289.863 100.503 291.06 98.9916 292.556 97.7881C295.051 95.7798 297.723 95.4255 300.665 94.4371C308.687 91.7419 312.098 81.519 313.181 73.9336C314.403 65.376 308.425 52.2535 297.987 53.0974Z" fill="#174A41"/>
<path fill-rule="evenodd" clip-rule="evenodd" d="M283.323 29.1326C275.704 36.9296 272.023 47.7442 269.108 57.911C265.853 69.2662 263.703 80.7967 263.62 92.6027C263.566 100.359 263.351 108.164 263.812 115.912C263.975 118.663 264.254 121.42 264.698 124.142C264.734 124.365 265.727 130.443 266.676 129.027C267.216 128.222 265.659 122.722 265.541 121.806C264.879 116.647 264.726 111.45 264.758 106.254C264.811 97.6985 264.554 89.1868 265.436 80.6627C265.568 79.39 265.672 78.0533 265.979 76.8083C266.306 75.4846 265.89 76.0624 266.953 75.5384C267.986 75.029 269.263 75.1017 270.335 74.4626C274.587 71.9274 276.763 65.4152 278.455 61.1424C280.392 56.2562 281.569 51.0457 282.509 45.9036C283.199 42.1256 283.692 38.3706 283.972 34.5439C284.06 33.3379 284.065 32.0767 284.306 30.8909C284.371 30.571 284.697 30.0051 284.685 29.7218C284.66 29.1223 284.292 28.7697 284.262 28.2659C283.943 28.5482 283.63 28.8373 283.323 29.1326Z" fill="#174A41"/>
<path fill-rule="evenodd" clip-rule="evenodd" d="M241.778 133.015C241.778 145.91 252.409 156.363 265.523 156.363C278.637 156.363 289.268 145.91 289.268 133.015" fill="#174A41"/>
<path fill-rule="evenodd" clip-rule="evenodd" d="M267.429 133.09H266.174C266.261 131.542 266.376 129.997 266.639 128.466C267.646 122.612 270.793 114.015 277.695 113.065C277.95 113.029 278.886 113.023 280.021 113.089C280.559 112.793 281.161 112.615 281.796 112.574C287.673 112.148 294.236 116.809 297.07 121.66C299.356 125.572 298.971 130.708 297.559 134.863C296.614 137.645 294.551 141.612 291.111 141.65C286.807 141.699 286.599 136.468 286.516 133.411C286.406 129.345 285.883 125.804 282.625 123.033C281.866 122.388 281.036 121.82 280.269 121.183C279.068 120.187 277.741 119.167 277.586 117.518C277.373 115.244 278.678 114.835 280.672 115.258C281.012 115.33 284.434 116.84 283.928 115.646C283.773 115.281 283.208 114.992 282.494 114.776C280.649 114.579 278.448 114.35 277.815 114.486C270.985 115.96 268.326 125.261 267.62 131.171C267.544 131.809 267.482 132.449 267.429 133.09Z" fill="#174A41"/>
</g>
</g>
<path opacity="0.2" fill-rule="evenodd" clip-rule="evenodd" d="M108.447 22.3105C109.219 21.9284 110.247 22.3715 109.818 23.3815C109.358 24.4631 107.659 24.4765 106.7 24.455C106.796 24.45 107.105 23.4582 107.211 23.3083C107.523 22.8662 107.973 22.5458 108.447 22.3105ZM99.5647 42.0176C99.5425 42.0394 99.2922 42.2503 99.5647 42.0176ZM109.344 27.3321C109.805 27.6808 109.827 28.2968 109.45 28.714C109 29.2106 108.181 29.193 107.569 29.1449C107.292 29.1232 105.815 29.0069 106.165 28.7675C106.138 28.7776 106.082 28.802 106.022 28.8353C105.989 28.9524 105.955 29.0691 105.92 29.1853C105.928 29.1904 105.936 29.1958 105.945 29.2008C105.935 29.1964 105.928 29.1917 105.919 29.1873C105.563 30.3488 105.057 31.4549 104.394 32.4898C104.642 32.3931 104.898 32.3199 105.159 32.2873C105.93 32.1904 107.551 32.7822 106.688 33.7979C105.861 34.7717 104.574 33.7281 103.636 33.5846C102.725 34.8416 101.721 36.0464 100.668 37.2109C100.733 37.2308 100.789 37.2724 100.822 37.3371C101.244 37.1252 101.684 36.8221 102.074 36.7399C102.638 36.6214 103.793 36.5492 104.219 37.0478C104.742 37.661 104.181 38.1596 103.562 38.2776C102.664 38.4486 101.49 38.0156 100.626 37.723C100.528 37.7403 100.42 37.7118 100.355 37.6337C100.336 37.6275 100.317 37.6214 100.299 37.6155C99.233 38.7744 98.1266 39.895 97.027 40.9911C97.0387 40.9905 97.0504 40.9898 97.0626 40.9891C97.3494 40.803 97.657 40.6502 97.9903 40.5701C98.7615 40.3838 99.6688 40.3824 100.294 40.934C100.917 41.4832 101.138 42.4442 100.492 43.0615C99.2011 44.2974 97.3008 41.4821 96.6497 41.3648C95.5323 42.467 94.3507 43.4969 93.1506 44.506C93.2869 44.4649 93.4266 44.4347 93.571 44.421C94.7474 44.309 97.5076 45.7341 96.0633 47.1383C94.8047 48.3619 93.3498 46.0087 92.3364 45.186C91.2056 46.1265 90.0685 47.0606 88.9634 48.0311C89.566 47.8725 90.1482 47.8489 90.794 48.0416C91.4622 48.2413 92.5403 48.7399 92.1173 49.6326C91.6872 50.5405 90.3925 50.1281 89.7181 49.8403C89.3504 49.6833 88.6131 49.1533 87.9656 48.9302C86.2021 50.5772 84.6744 52.391 83.5174 54.5274C82.7951 55.8614 82.2467 57.2864 81.8605 58.7509C81.614 59.6857 81.1285 61.2558 81.2249 62.4722C80.7636 60.0374 81.6015 57.1125 82.5036 54.9355C83.3331 52.9337 84.5738 51.1761 86.0268 49.5939C85.663 48.5098 82.5963 46.9476 84.4306 45.9394C85.4046 45.4063 86.4015 46.2895 86.6139 47.2254C86.7598 47.8685 86.5366 48.6768 86.2999 49.3012C86.757 48.8188 87.2322 48.352 87.7218 47.9006C88.3984 47.2768 89.0912 46.6711 89.7906 46.073C88.6391 45.003 87.5504 41.943 89.0953 41.4417C91.3767 40.7035 90.2763 44.8788 90.1168 45.6613C90.0716 45.6639 90.0364 45.6504 90.0105 45.6215C90.0233 45.6932 90.0381 45.7698 90.0561 45.847C91.3948 44.7083 92.7533 43.5918 94.0672 42.4259C93.9489 42.3394 93.761 42.009 93.6132 41.8332C93.2798 41.4367 92.9608 41.0226 92.7278 40.5588C92.3597 39.8258 92.0049 38.6566 92.9819 38.2248C94.0445 37.7544 94.5486 39.0768 94.5556 39.8659C94.5604 40.4116 94.4099 40.9301 94.3313 41.465C94.3068 41.6318 94.4006 42.3837 94.171 42.0604C94.1818 42.1796 94.1833 42.266 94.1779 42.3273C94.4138 42.1169 94.6478 41.9042 94.8804 41.69C94.8697 41.663 94.8617 41.6335 94.8599 41.5994C94.8476 41.3641 95.0869 41.2734 95.2547 41.3422C95.5616 41.0537 95.8655 40.7616 96.164 40.4637C96.7966 39.8325 97.4384 39.1834 98.0758 38.5204C97.9376 38.403 97.9927 38.2403 97.8635 38.1157C97.7345 37.9914 97.4804 37.9227 97.3287 37.8072C96.9472 37.5166 96.6309 37.0931 96.4022 36.6763C96.0247 35.9875 95.5371 34.5425 96.6412 34.2136C97.7792 33.874 98.356 35.2649 98.4288 36.1347C98.4429 36.3032 98.3146 37.8216 98.2166 38.3729C99.396 37.1408 100.556 35.8625 101.607 34.562C101.289 34.5592 100.386 33.9143 100.204 33.7382C99.7584 33.3089 99.0509 32.3601 99.8319 31.8575C100.526 31.4116 101.382 32.0564 101.678 32.6834C101.727 32.7866 101.899 33.7476 101.912 34.1788C102.347 33.6273 102.762 33.0726 103.148 32.5161C103.406 32.1461 103.646 31.7664 103.871 31.3786C103.817 31.3482 103.766 31.2953 103.718 31.2295C102.56 31.0357 101.085 29.2494 102.445 28.627C103.093 28.331 103.795 28.9409 104.112 29.4404C104.177 29.5426 104.282 30.0565 104.367 30.4618C105.015 29.1771 105.511 27.8171 105.888 26.4228C105.787 26.3981 105.702 26.3219 105.69 26.1909C105.128 25.8742 104.685 25.6105 104.292 25.0011C104.049 24.6226 103.61 23.7577 104.327 23.5472C105.259 23.2733 105.844 24.6814 105.92 25.3751C105.929 25.4556 105.928 25.6898 105.925 25.9044C105.957 25.9001 105.99 25.9005 106.022 25.9061C106.237 25.0427 106.408 24.1683 106.545 23.2923C106.036 23.1306 105.949 20.4874 106.288 20.1109C107.046 19.2678 107.579 20.4849 107.539 21.1283C107.491 21.887 107.143 22.5772 106.728 23.1899C106.684 23.2548 106.697 23.2516 106.685 23.1613C106.679 23.2059 106.664 23.2389 106.641 23.2628C106.663 23.6621 106.704 24.0709 106.684 24.4243C106.626 25.4362 106.506 26.4541 106.333 27.4531C106.29 27.6961 106.242 27.9371 106.188 28.176C106.597 27.8312 107.149 27.5247 107.365 27.4288C107.925 27.1803 108.788 26.9117 109.344 27.3321ZM81.1333 62.3762C81.1603 62.7013 81.2406 62.9981 81.3987 63.2412C81.2826 62.9633 81.1956 62.6739 81.1333 62.3762Z" fill="#174A41"/>
<g opacity="0.5">
<path fill-rule="evenodd" clip-rule="evenodd" d="M101.418 55.4454C102.342 54.1305 104.055 50.7912 105.354 50.3213C106.191 50.0187 105.947 53.1491 105.958 53.746C105.998 56.0553 105.773 58.35 105.495 60.6399C104.994 64.7698 103.357 68.4477 101.11 71.9627C99.9547 73.7713 98.5991 75.6019 96.7215 76.7304C95.8573 77.2501 94.8173 77.3371 93.9638 77.7849C92.9698 78.3061 93.5111 77.8848 93.0632 78.9193C92.441 80.3557 92.2421 82.2088 91.9542 83.7414C90.6326 90.7771 87.4329 127.97 87.9876 135.126C88.0369 135.761 87.1513 135.912 87.1071 135.138C86.8721 131.032 88.9054 102.598 89.9313 93.2989C90.9571 84.0001 91.9952 75.7851 93.0361 72.568C94.2989 68.665 96.5795 63.9713 98.478 60.3316C99.3598 58.6406 100.321 57.008 101.418 55.4454Z" fill="#A0BB81"/>
<path fill-rule="evenodd" clip-rule="evenodd" d="M108.271 101.052C110.674 99.2903 113.274 102.615 111.1 104.377C109.898 105.351 108.642 105.004 107.934 104.193C107.475 104.752 107.045 105.336 106.633 105.83C105.374 107.335 104.185 108.875 103.049 110.451C100.688 113.726 98.6644 117.186 96.5489 120.582C94.4612 123.934 92.3902 127.303 90.4979 130.74C88.8949 133.652 86.7583 137.078 86.2095 140.27C87.0422 133.5 90.2019 126.992 93.9647 121.024C97.6968 115.104 101.98 108.639 107.759 103.967C107.17 103.104 107.154 101.87 108.271 101.052Z" fill="#174A41"/>
<path fill-rule="evenodd" clip-rule="evenodd" d="M62.6818 84.5398C64.0263 84.8024 66.2231 87.84 67.3313 88.9974C68.6483 90.3728 69.8432 91.8387 70.9695 93.3746C73.3942 96.6806 75.5627 100.196 77.4067 103.861C80.4129 109.837 82.8212 115.971 84.569 122.478C85.6389 126.461 86.3316 130.589 86.7421 134.689C86.8197 135.462 87.6313 141.423 86.4618 141.584C85.41 141.728 85.7349 137.057 85.6841 136.422C85.1105 129.254 83.3922 122.28 81.0021 115.523C80.4815 114.052 79.9979 112.249 79.1653 110.925C78.5657 109.971 79.161 110.303 78.1073 109.942C77.2026 109.632 76.1718 109.708 75.2453 109.328C73.2327 108.504 71.6211 106.903 70.2085 105.294C67.4632 102.165 65.2877 98.7808 64.1537 94.7721C63.5247 92.5495 62.9466 90.3139 62.6258 88.0225C62.5428 87.4303 61.8159 84.3707 62.6818 84.5398Z" fill="#A0BB81"/>
<path fill-rule="evenodd" clip-rule="evenodd" d="M67.9873 34.0001C73.0515 42.7719 77.2131 52.4076 79.9003 62.1672C81.5284 68.0803 82.6669 74.1481 83.7982 80.1721C85.5498 89.4994 87.2065 98.8261 87.6778 108.319C88.1519 117.867 89.0895 128.88 85.9592 138.076C87.5228 128.739 86.0341 118.801 85.7706 109.406C85.6446 104.921 85.2796 100.48 84.8008 96.0218C84.3361 91.6967 83.577 87.3921 82.8701 83.101C82.5258 81.0111 82.1642 78.9244 81.796 76.8388C81.6861 76.2166 81.6396 74.3702 81.2444 73.9451C80.8467 73.5173 78.8173 73.3428 78.1802 73.0289C76.8972 72.3966 75.6904 71.4984 74.6224 70.5493C72.5749 68.73 70.7937 66.3529 69.3878 64.0096C66.135 58.5876 64.8346 51.9707 64.9003 45.6913C64.9129 44.4721 66.8761 31.3435 66.0876 31.1627C66.1351 31.1072 66.18 31.0499 66.2223 30.9902C66.8192 31.9884 67.405 32.9934 67.9873 34.0001Z" fill="#174A41"/>
<path fill-rule="evenodd" clip-rule="evenodd" d="M122.647 65.6367C122.725 65.5241 123.234 64.7413 122.978 64.7913C123.499 64.6894 122.26 65.6547 123.56 65.0624C122.943 65.6443 123.299 66.4002 123.307 67.1833C123.32 68.4548 123.107 69.7159 122.868 70.9601C122.489 72.9268 121.924 74.839 121.105 76.6683C119.32 80.6547 116.288 84.4923 112.688 86.9846C110.911 88.2151 109.17 88.6341 107.143 89.2006C105.863 89.5585 105.761 90.2198 105.082 91.4605C103.667 94.0446 102.278 96.6194 101.03 99.2906C99.5406 102.48 98.0945 105.674 96.7303 108.92C92.1349 119.853 88.3945 131.181 86.4303 142.904C86.3822 135.995 87.9822 128.88 90.0005 122.296C91.4708 117.498 93.3847 112.874 95.4262 108.296C95.9208 107.187 96.6705 105.76 96.8806 104.536C97.0277 103.678 96.5779 102.853 96.372 101.949C95.5693 98.4301 95.6268 94.4874 96.3317 90.9494C97.1089 87.048 99.3566 85.2373 103.159 84.6847C104.549 84.4825 106.317 84.5566 107.592 83.9644C108.981 83.3196 109.554 81.1999 110.344 79.8392C112.466 76.1842 114.987 72.6789 117.881 69.5992C118.683 68.7464 119.545 67.9597 120.459 67.2304C121.036 66.7703 122.254 66.2035 122.647 65.6367Z" fill="#174A41"/>
<path fill-rule="evenodd" clip-rule="evenodd" d="M80.012 135.443H93.5057C94.1124 135.443 94.6043 135.934 94.6043 136.54C94.6043 136.594 94.6003 136.647 94.5925 136.7L93.5496 143.763C93.2316 145.917 91.3817 147.512 89.2025 147.512H84.3153C82.1361 147.512 80.2861 145.917 79.9682 143.763L78.9252 136.7C78.8367 136.101 79.2515 135.543 79.8517 135.454C79.9048 135.447 79.9584 135.443 80.012 135.443Z" fill="#174A41"/>
</g>
<g clip-path="url(#clip2_329_1229)">
<path fill-rule="evenodd" clip-rule="evenodd" d="M81.288 201.687C82.7397 201.51 84.2892 201.572 85.6392 202.142C88.51 203.355 89.326 206.728 89.2867 209.47C89.2442 212.421 88.6142 215.645 90.8699 218.023C91.9068 219.116 93.1967 219.953 94.2149 221.066C95.3028 222.256 96.1565 223.617 96.7885 225.079C97.9491 227.764 98.5187 230.921 97.4575 233.738C96.523 236.218 94.1721 238.456 94.6801 241.276C95.21 244.218 98.1915 246.466 100.056 248.658C102.165 251.137 104.108 254.306 104.427 257.558C104.733 260.674 103.369 263.826 101.276 266.182C97.0946 270.889 90.8091 273.196 84.4714 273.182C81.7806 273.176 78.7341 273.055 76.412 271.616C75.6943 271.172 75.3157 270.673 74.8891 269.98C74.5065 269.358 74.0012 268.953 73.4163 268.513C72.1313 267.547 71.2033 266.245 70.6111 264.787C68.3113 259.124 70.1494 252.119 73.3686 247.091C74.1314 245.9 74.7559 244.753 74.3853 243.333C73.9986 241.851 73.0482 240.514 72.2075 239.24C71.3769 237.981 70.4285 236.779 69.7793 235.418C69.0993 233.991 68.9078 232.498 69.028 230.937C69.2538 228.005 70.5263 225.299 72.3279 222.941C74.0631 220.669 76.1006 218.496 76.1052 215.52C76.1102 212.366 73.9902 209.56 74.8933 206.353C75.2673 205.025 76.0184 203.662 77.2289 202.866C78.3898 202.102 79.9227 201.853 81.288 201.687Z" fill="#87A06A"/>
<path fill-rule="evenodd" clip-rule="evenodd" d="M80.3395 206.729C80.3667 206.306 80.8719 206.052 81.2696 206.162C81.7931 206.308 81.783 206.794 81.7692 207.228C81.7268 208.56 81.9207 209.855 82.2427 211.148C82.9119 213.836 84.1487 216.312 85.1286 218.894C86.1076 221.474 86.5672 224.137 85.9929 226.867C85.4514 229.441 84.6008 231.948 84.0467 234.525C83.5584 236.796 83.0387 239.191 83.7824 241.457C84.4981 243.638 86.0804 245.414 87.2197 247.385C89.5784 251.464 90.6248 255.99 90.7647 260.647C90.8296 262.81 90.7712 264.993 90.2668 267.114C89.9764 268.335 89.5863 269.986 88.5341 270.829C88.0489 271.218 87.219 271.353 86.8106 270.777C86.4272 270.237 86.7636 269.4 86.8853 268.825C87.4124 266.333 87.5185 263.786 87.3923 261.256C87.2701 258.805 86.979 256.358 86.2035 254.017C85.4837 251.845 84.3902 249.893 83.1033 247.993C81.7919 246.056 80.4286 244.116 79.8867 241.821C79.3362 239.491 79.7834 237.119 80.3815 234.833C81.014 232.415 81.8424 230.067 82.6988 227.714C83.5335 225.422 83.8293 223.253 83.3685 220.854C82.4583 216.114 80.022 211.665 80.3395 206.729Z" fill="#3E7048"/>
<path fill-rule="evenodd" clip-rule="evenodd" d="M119.619 207.438C121.415 207.981 123.199 208.856 124.48 210.229C127.203 213.148 126.368 217.56 124.864 220.782C123.246 224.25 120.794 227.737 122.177 231.716C122.812 233.545 123.88 235.202 124.483 237.046C125.127 239.016 125.405 241.067 125.369 243.123C125.304 246.899 124.294 250.928 121.553 253.71C119.139 256.159 115.192 257.59 114.289 261.187C113.348 264.94 115.65 269.143 116.672 272.699C117.829 276.723 118.423 281.476 117.069 285.486C115.772 289.33 112.498 292.352 108.792 294.055C101.386 297.457 92.7876 296.934 85.3617 293.637C82.2089 292.238 78.6999 290.518 76.7406 287.616C76.1351 286.718 75.956 285.933 75.824 284.892C75.7058 283.959 75.328 283.219 74.8757 282.396C73.882 280.588 73.4856 278.568 73.5657 276.537C73.8772 268.651 79.7555 261.317 86.2032 257.036C87.7309 256.022 89.0726 254.99 89.3925 253.118C89.7265 251.165 89.3222 249.093 89.0133 247.151C88.7081 245.232 88.2342 243.32 88.1961 241.374C88.1565 239.335 88.7255 237.47 89.6959 235.686C91.5189 232.335 94.4492 229.794 97.8154 227.937C101.058 226.149 104.602 224.633 106.189 221.116C107.871 217.388 106.876 212.972 109.639 209.647C110.783 208.27 112.388 207.047 114.231 206.732C115.999 206.43 117.929 206.928 119.619 207.438Z" fill="#87A06A"/>
<path fill-rule="evenodd" clip-rule="evenodd" d="M115.949 213.602C116.204 213.115 116.929 213.077 117.335 213.416C117.871 213.861 117.603 214.432 117.359 214.938C116.607 216.494 116.152 218.128 115.848 219.827C115.216 223.359 115.358 226.937 115.144 230.505C114.931 234.071 114.066 237.465 111.957 240.398C109.969 243.163 107.654 245.689 105.649 248.452C103.882 250.887 102.014 253.453 101.69 256.523C101.379 259.479 102.294 262.407 102.589 265.335C103.199 271.396 102.039 277.301 99.7508 282.889C98.6879 285.484 97.4704 288.039 95.7638 290.288C94.7812 291.583 93.4559 293.334 91.7816 293.784C91.0095 293.992 89.9683 293.718 89.794 292.823C89.6301 291.984 90.4636 291.169 90.909 290.551C92.8375 287.875 94.3024 284.914 95.4871 281.851C96.6348 278.885 97.5827 275.836 97.9084 272.659C98.2105 269.712 97.9592 266.831 97.4549 263.909C96.9411 260.932 96.3688 257.923 96.9433 254.924C97.5266 251.877 99.2981 249.302 101.201 246.906C103.214 244.373 105.419 242.023 107.659 239.684C109.842 237.404 111.33 234.99 112.054 231.909C113.485 225.821 112.979 219.282 115.949 213.602Z" fill="#3E7048"/>
<path fill-rule="evenodd" clip-rule="evenodd" d="M64.0817 229.829C67.0688 229.829 69.695 231.404 71.5047 233.639C73.623 236.255 74.0508 239.451 74.911 242.569C75.339 244.121 76.0752 245.661 77.3653 246.715C78.5387 247.674 80.0283 247.866 81.4328 248.335C84.2398 249.271 86.5064 251.526 87.4015 254.278C88.4935 257.634 87.3369 261.02 87.536 264.421C87.7188 267.545 90.8155 269.494 93.307 270.992C95.7637 272.469 97.977 273.851 98.7169 276.728C99.5015 279.779 99.7648 283.185 98.678 286.199C96.8686 291.218 91.5731 293.428 86.4564 293.771C81.8127 294.082 75.9739 293.593 72.4866 290.241C70.3998 288.234 69.6441 285.428 69.7379 282.636C69.7961 280.9 70.1419 279.18 70.5889 277.503C70.9056 276.314 71.3337 275.13 71.4556 273.901C71.7797 270.632 68.7424 270.004 66.157 269.107C62.8716 267.966 60.5716 265.812 58.9723 262.81C57.4828 260.015 56.8579 256.878 57.7508 253.801C58.2068 252.23 59.0339 250.805 60.1556 249.592C60.6494 249.059 61.3454 248.613 61.7911 248.053C62.2071 247.529 62.1165 246.851 61.9731 246.238C61.3102 243.405 59.2449 241.059 58.5063 238.232C57.8394 235.679 58.2336 232.503 60.5795 230.856C61.593 230.145 62.8429 229.837 64.0817 229.829Z" fill="#3E7048"/>
<path fill-rule="evenodd" clip-rule="evenodd" d="M68.1519 237.21C71.318 240.564 72.1786 245.116 72.4311 249.527C72.5726 252.001 72.4254 254.61 73.156 257.01C73.7812 259.063 75.2468 260.633 76.7575 262.117C79.7985 265.104 83.1899 268.14 84.0794 272.463C84.6013 275 84.249 277.62 84.9701 280.128C85.6259 282.409 86.7804 284.649 88.1847 286.575C89.3153 288.126 90.7884 289.313 92.0243 290.758C92.4014 291.2 92.9416 291.849 92.7859 292.472C92.6038 293.202 91.6696 293.433 91.0068 293.318C89.4614 293.051 88.1606 291.583 87.1502 290.516C85.6726 288.956 84.4171 287.277 83.3966 285.395C82.2637 283.304 81.3515 281.085 80.9618 278.74C80.5573 276.306 80.7586 273.77 79.835 271.435C78.2809 267.506 74.5113 265.187 71.7859 262.124C68.3902 258.308 68.8966 253.558 69.2444 248.863C69.4354 246.284 69.6254 243.37 68.3149 241.015C67.8146 240.116 66.6992 239.277 66.4841 238.255C66.2871 237.319 67.3624 236.373 68.1519 237.21Z" fill="#174A41"/>
<path fill-rule="evenodd" clip-rule="evenodd" d="M71.5283 292.338C71.5285 311.523 74.6761 321.576 91.2931 321.576C107.91 321.576 111.058 311.523 111.058 292.338H71.5283Z" fill="#174A41"/>
</g>
<defs>
<clipPath id="clip0_329_1229">
<rect width="109.292" height="144.562" fill="white" transform="translate(204.046 11.801)"/>
</clipPath>
<clipPath id="clip1_329_1229">
<rect width="109.292" height="144.562" fill="white" transform="translate(204.046 11.801)"/>
</clipPath>
<clipPath id="clip2_329_1229">
<rect width="68.9231" height="119.976" fill="white" transform="translate(57.3384 201.599)"/>
</clipPath>
</defs>
</svg>
