<svg width="390" height="844" viewBox="0 0 390 844" fill="none" xmlns="http://www.w3.org/2000/svg">
<g clip-path="url(#clip0_143_1670)">
<rect width="390" height="844" fill="#174A41"/>
<path opacity="0.5" d="M69.6623 37.6196C70.0427 37.6149 70.4149 37.5776 70.7894 37.5541C71.2281 37.6839 71.6625 37.8399 72.0811 38.0379C74.3528 39.1913 75.9954 40.5051 78.5681 39.3009C82.3 37.5629 85.5335 34.0957 89.6066 33.1102C88.6967 32.1218 86.913 31.861 85.6961 31.6841C81.2646 30.9855 77.1088 31.9306 73.4953 34.5274C72.2858 35.3966 70.9948 36.4088 69.5348 36.8441C67.2562 36.8238 65.2386 36.3551 62.9927 35.8356C60.9604 34.5562 58.9953 33.1673 57.0662 31.7217C55.2329 29.363 53.3036 27.0734 51.2948 24.8869C46.1588 19.2993 40.3856 14.3307 34.2581 9.8624C34.8447 10.0165 35.4276 10.1655 36.0018 10.3131C38.6344 11.0075 41.3035 11.5606 43.9862 12.0578C44.4863 12.6041 44.948 13.1932 45.4581 13.7322C48.0209 16.3264 51.5767 17.6007 55.2167 17.6786C61.0215 17.7894 66.5675 15.7992 72.34 15.2349C71.6241 14.4523 70.3434 13.9836 69.4385 13.4827C64.8104 10.9299 59.622 7.78977 54.2052 7.59962C51.2622 7.51971 48.5594 8.61784 45.995 9.96189C45.3287 10.2949 44.6491 10.791 43.9365 11.1342C41.8974 10.7424 39.8676 10.3208 37.8493 9.8296C35.7787 9.32987 33.6963 8.4933 31.614 7.95594C30.96 7.50502 30.3074 7.04541 29.6519 6.60319C22.8126 2.00939 15.14 -2.62258 7.10608 -4.69246C6.74647 -4.78706 6.62845 -4.25713 6.92955 -4.10513C13.1455 -0.859247 19.4299 1.96914 25.4504 5.509C29.7207 10.3833 32.3315 17.3482 33.94 24.1892C33.7983 24.5367 33.6131 24.877 33.4786 25.2345C33.0419 26.2928 32.9226 27.3762 32.6817 28.4934C32.3079 30.2585 31.5439 31.8974 31.452 33.7132C31.2555 36.1415 32.1658 38.0276 33.3699 40.0556C34.464 41.8556 34.7838 43.9666 35.8257 45.7581C36.6703 43.9539 37.0729 41.8764 37.6087 39.9948C38.3822 37.3975 39.1084 34.7344 38.8861 32.0008C38.6608 28.7399 36.8551 26.6223 35.0132 24.2622C34.5326 22.3973 33.9419 20.5501 33.2664 18.7025C33.1247 18.3131 32.9794 17.9187 32.8305 17.5192C33.5477 18.5387 34.3337 19.4934 35.2115 20.4052C35.5154 21.031 35.6776 21.7586 35.9967 22.3735C37.1179 24.5532 38.7254 27.2813 40.6887 28.7637C43.3086 30.818 46.5157 33.5401 49.7121 34.5278C49.19 33.1071 49.0123 31.5464 48.6691 30.097C47.2348 23.8829 41.8279 22.5958 36.5759 20.7447C36.1989 20.4016 35.8104 20.0746 35.4486 19.7206C34.0181 18.3388 33.0677 16.6426 31.8838 15.0913C30.6355 12.0514 29.0819 8.93911 27.023 6.45862C27.6312 6.83505 28.2409 7.20278 28.8462 7.5966C35.884 12.1782 42.3663 17.5888 48.2865 23.5415C50.9948 27.8654 51.577 33.8015 51.932 38.8342C51.8149 39.1946 51.6819 39.5435 51.5568 39.8713C50.124 43.4949 48.259 46.9228 46.9611 50.5953C44.706 56.9511 47.825 63.0213 49.5134 69.1832C50.5081 67.1713 51.1858 64.996 52.2023 63.0145C53.4314 60.6346 55.037 58.437 55.7278 55.7993C56.4286 53.1008 56.085 50.2625 55.5962 47.5747C54.955 44.2903 53.8663 40.821 52.595 37.621C52.2761 33.5677 51.6834 28.7596 49.7434 25.0348C56.3713 31.9294 62.0283 39.8441 65.9929 48.4684C65.8913 50.1532 65.5431 51.7618 65.0622 53.3353C64.8436 53.6612 64.6055 53.9705 64.328 54.2466C63.4958 55.0749 62.3946 55.5824 61.4919 56.3232C60.063 57.4959 58.52 58.8196 57.651 60.4725C56.9752 61.764 56.6686 63.2276 56.5532 64.669C56.4309 66.2074 56.1716 67.7368 56.0666 69.2781C56.0055 70.1969 55.8497 71.1761 55.8921 72.0896C56.4678 71.4917 57.069 70.9292 57.673 70.3493C58.7473 69.324 59.7825 68.2654 60.8568 67.2401C62.2426 65.9219 63.7052 64.6252 64.8854 63.117C66.0439 61.6321 66.5414 59.7934 66.4737 57.9158C66.4061 56.3373 66.1791 54.7506 65.9928 53.1884C66.2705 52.0372 66.4664 50.868 66.5623 49.7093C67.9465 52.8742 69.1006 56.1354 69.9825 59.477C69.8274 60.2331 69.5615 60.9845 69.3353 61.6842C68.1017 65.5101 66.0038 69.1053 65.5432 73.1738C65.1512 76.4409 66.1954 79.2822 67.3574 82.2768C68.3355 84.8126 69.1787 87.7906 70.6814 90.0952C70.8106 88.4061 71.8192 86.6912 72.4748 85.1687C74.7776 79.7762 77.0129 74.087 75.7837 68.1476C74.9926 64.3876 73.0432 61.4294 70.9691 58.415C68.6037 49.6237 64.2454 41.4127 58.8129 33.9814C62.4865 36.9361 66.6737 39.3453 71.0732 41.2488C71.5251 41.7069 71.9698 42.1548 72.3683 42.6665C74.4651 45.2426 75.9696 47.4001 79.3263 48.4721C84.0601 49.9972 89.1591 48.7734 93.903 50.0457C93.1181 49.167 92.242 48.3537 91.467 47.4141C90.2092 45.8775 89.1151 44.0774 87.3834 42.9812C85.5907 41.875 83.8411 42.1423 81.877 42.111C78.9926 42.0273 76.2164 41.2826 73.3576 41.0423C72.1768 40.5632 71.0039 40.0631 69.8403 39.5332C68.4409 38.8888 67.079 38.1791 65.7416 37.4288C67.0817 37.6169 68.4922 37.5933 69.6745 37.5725L69.6623 37.6196Z" fill="#44664B"/>
<path opacity="0.5" d="M377.35 155.637C377.5 155.987 377.676 156.317 377.841 156.654C377.888 157.109 377.91 157.57 377.887 158.033C377.688 160.572 377.1 162.592 379.195 164.511C382.225 167.297 386.664 168.963 389.129 172.352C389.696 171.133 389.256 169.385 388.955 168.193C387.91 163.83 385.451 160.349 381.671 158C380.406 157.214 378.978 156.407 378.019 155.223C377.168 153.109 376.831 151.066 376.454 148.791C376.862 146.425 377.396 144.078 377.996 141.744C379.476 139.149 380.857 136.492 382.111 133.801C385.316 126.921 387.706 119.689 389.498 112.32C389.579 112.921 389.664 113.517 389.747 114.104C390.109 116.802 390.617 119.48 391.181 122.15C390.866 122.821 390.498 123.472 390.195 124.149C388.775 127.508 388.954 131.281 390.27 134.675C392.383 140.083 396.339 144.45 399.063 149.571C399.513 148.61 399.458 147.248 399.576 146.22C400.169 140.968 401.092 134.974 399.201 129.895C398.152 127.144 396.105 125.064 393.884 123.207C393.322 122.718 392.605 122.279 392.015 121.752C391.599 119.717 391.215 117.68 390.898 115.627C390.57 113.523 390.549 111.278 390.251 109.149C390.418 108.372 390.594 107.593 390.753 106.819C392.389 98.7441 393.743 89.8846 392.591 81.6688C392.541 81.3003 392.006 81.3934 391.98 81.7297C391.352 88.7139 391.136 95.602 390.161 102.518C387.285 108.325 381.843 113.396 376.134 117.493C375.758 117.495 375.373 117.453 374.991 117.465C373.847 117.466 372.8 117.769 371.675 117.972C369.901 118.3 368.094 118.219 366.381 118.827C364.061 119.572 362.665 121.133 361.25 123.02C360.004 124.719 358.175 125.82 356.916 127.466C358.906 127.559 360.98 127.138 362.924 126.915C365.62 126.639 368.359 126.294 370.8 125.046C373.729 123.593 374.997 121.116 376.476 118.513C378.016 117.357 379.498 116.106 380.948 114.777C381.254 114.497 381.563 114.212 381.876 113.922C381.207 114.974 380.624 116.065 380.117 117.224C379.654 117.744 379.043 118.172 378.597 118.701C377.01 120.569 375.102 123.096 374.48 125.477C373.581 128.682 372.289 132.685 372.596 136.017C373.71 134.992 375.085 134.232 376.293 133.362C381.49 129.665 380.616 124.176 380.323 118.615C380.497 118.136 380.651 117.652 380.84 117.182C381.571 115.333 382.776 113.807 383.759 112.121C386.092 109.807 388.376 107.183 389.883 104.334C389.767 105.04 389.66 105.743 389.527 106.453C387.978 114.707 385.45 122.763 382.207 130.507C379.243 134.66 373.979 137.463 369.462 139.712C369.084 139.741 368.711 139.751 368.36 139.761C364.464 139.819 360.584 139.403 356.694 139.605C349.959 139.946 345.538 145.145 340.487 149.057C342.726 149.209 344.995 149.005 347.215 149.188C349.883 149.416 352.528 150.062 355.229 149.694C357.991 149.312 360.483 147.912 362.781 146.434C365.573 144.588 368.364 142.258 370.837 139.862C374.462 138.02 378.68 135.638 381.382 132.423C377.538 141.181 372.381 149.43 365.922 156.385C364.326 156.934 362.707 157.226 361.069 157.382C360.684 157.304 360.307 157.202 359.946 157.051C358.863 156.598 357.974 155.774 356.944 155.222C355.315 154.349 353.503 153.428 351.643 153.255C350.192 153.123 348.722 153.398 347.346 153.842C345.877 154.315 344.364 154.659 342.9 155.15C342.027 155.445 341.062 155.674 340.234 156.062C341.007 156.366 341.756 156.707 342.522 157.044C343.88 157.646 345.254 158.199 346.611 158.801C348.358 159.578 350.115 160.436 351.96 160.951C353.774 161.455 355.664 161.214 357.373 160.434C358.807 159.77 360.187 158.954 361.559 158.186C362.73 158.004 363.885 157.738 364.993 157.385C362.595 159.872 360.021 162.183 357.269 164.274C356.511 164.419 355.715 164.46 354.982 164.518C350.975 164.837 346.851 164.27 342.915 165.397C339.745 166.281 337.517 168.33 335.193 170.547C333.222 172.419 330.791 174.335 329.234 176.603C330.845 176.078 332.815 176.356 334.472 176.381C340.336 176.452 346.447 176.347 351.468 172.944C354.642 170.778 356.632 167.848 358.627 164.78C365.851 159.239 371.777 152.078 376.573 144.22C375.244 148.744 374.615 153.533 374.534 158.326C374.283 158.919 374.039 159.501 373.718 160.064C372.137 162.985 370.717 165.199 371.007 168.711C371.403 173.669 374.48 177.915 375.114 182.785C375.627 181.724 376.045 180.604 376.617 179.529C377.558 177.78 378.804 176.082 379.157 174.063C379.495 171.984 378.58 170.469 377.86 168.641C376.837 165.943 376.466 163.093 375.597 160.359C375.589 159.085 375.604 157.81 375.65 156.532C375.711 154.992 375.848 153.463 376.031 151.94C376.368 153.251 376.928 154.546 377.399 155.63L377.35 155.637Z" fill="#44664B"/>
<path opacity="0.5" d="M14.8798 556.693C14.7615 557.055 14.6145 557.401 14.4799 557.752C14.473 558.211 14.4924 558.673 14.5567 559.132C14.9813 561.646 15.7478 563.606 13.8252 565.715C11.0449 568.777 6.75804 570.852 4.59609 574.462C3.92194 573.3 4.2059 571.515 4.40059 570.298C5.05739 565.849 7.20546 562.148 10.7726 559.452C11.9667 558.55 13.322 557.612 14.1755 556.342C14.8377 554.154 14.9926 552.085 15.1671 549.781C14.5502 547.459 13.8083 545.168 13.0014 542.895C11.2916 540.446 9.67668 537.924 8.18427 535.357C4.37115 528.795 1.34138 521.804 -1.10353 514.622C-1.13149 515.229 -1.16321 515.831 -1.19369 516.424C-1.31639 519.149 -1.58537 521.868 -1.91187 524.583C-1.53846 525.222 -1.11257 525.838 -0.749145 526.485C0.967917 529.702 1.12415 533.482 0.109803 536.991C-1.52069 542.581 -5.08521 547.306 -7.35237 552.667C-7.88743 551.751 -7.95299 550.387 -8.16186 549.373C-9.22137 544.19 -10.6756 538.298 -9.23722 533.055C-8.43328 530.214 -6.57339 527.949 -4.51943 525.889C-4.00129 525.349 -3.32306 524.844 -2.78122 524.263C-2.54638 522.195 -2.3428 520.128 -2.20925 518.051C-2.06827 515.921 -2.24624 513.681 -2.13779 511.529C-2.37383 510.77 -2.61862 510.009 -2.84591 509.252C-5.19799 501.351 -7.33735 492.641 -6.91565 484.339C-6.89864 483.966 -6.35598 484.009 -6.30053 484.342C-5.05247 491.25 -4.22457 498.1 -2.63658 504.907C0.752591 510.43 6.63974 514.98 12.7081 518.534C13.0831 518.501 13.4644 518.424 13.8469 518.4C14.9907 518.294 16.0637 518.498 17.2053 518.597C19.0071 518.758 20.8047 518.509 22.5706 518.956C24.9543 519.482 26.4877 520.909 28.0691 522.659C29.4652 524.237 31.3905 525.164 32.794 526.689C30.814 526.967 28.7045 526.741 26.7429 526.7C24.0248 526.676 21.2579 526.587 18.7073 525.57C15.6526 524.394 14.1655 522.042 12.4569 519.584C10.8153 518.574 9.22351 517.465 7.65663 516.274C7.32624 516.024 6.99209 515.769 6.65418 515.509C7.41562 516.495 8.09461 517.529 8.70494 518.638C9.21316 519.113 9.86128 519.483 10.3545 519.969C12.1059 521.684 14.2369 524.027 15.0688 526.343C16.2519 529.456 17.8985 533.328 17.8879 536.68C16.684 535.762 15.2429 535.132 13.9579 534.377C8.43758 531.174 8.82287 525.618 8.62177 520.044C8.40612 519.582 8.20922 519.114 7.97859 518.663C7.08358 516.887 5.74397 515.478 4.6129 513.887C2.07591 511.797 -0.438996 509.394 -2.19789 506.692C-2.01944 507.385 -1.84975 508.077 -1.6538 508.773C0.627262 516.86 3.86812 524.66 7.79614 532.081C11.1256 535.947 16.6347 538.252 21.3468 540.073C21.7269 540.067 22.1007 540.042 22.452 540.019C26.3498 539.714 30.1896 538.937 34.0939 538.776C40.8536 538.487 45.7321 543.261 51.1264 546.691C48.9027 547.051 46.6173 547.06 44.4161 547.45C41.7699 547.926 39.1856 548.817 36.4536 548.702C33.6604 548.578 31.0459 547.414 28.6187 546.155C25.6661 544.574 22.6703 542.51 19.9869 540.351C16.2017 538.852 11.7757 536.869 8.78999 533.915C13.4081 542.291 19.2932 550.038 26.3642 556.373C28.0076 556.771 29.6518 556.911 31.3021 556.914C31.6796 556.801 32.047 556.664 32.3943 556.479C33.4363 555.926 34.2515 555.021 35.2308 554.375C36.7811 553.352 38.51 552.264 40.3524 551.919C41.7911 551.652 43.2841 551.789 44.6985 552.103C46.208 552.439 47.7498 552.641 49.2568 552.994C50.1548 553.206 51.1389 553.345 52.0007 553.654C51.2561 554.03 50.5377 554.44 49.8019 554.847C48.4988 555.574 47.1757 556.254 45.8726 556.981C44.196 557.919 42.517 558.938 40.7201 559.624C38.9519 560.296 37.0426 560.232 35.2652 559.614C33.7742 559.085 32.323 558.4 30.8832 557.762C29.6978 557.689 28.5199 557.532 27.3818 557.283C29.9978 559.54 32.7748 561.605 35.7103 563.433C36.4806 563.507 37.2794 563.474 38.0171 563.463C42.049 563.408 46.1186 562.458 50.1517 563.215C53.3968 563.801 55.8047 565.637 58.3241 567.631C60.4592 569.314 63.0582 570.998 64.8151 573.116C63.1592 572.742 61.2157 573.203 59.5619 573.383C53.7103 574 47.5947 574.466 42.276 571.54C38.9129 569.676 36.6639 566.939 34.3984 564.065C26.6892 559.213 20.1318 552.622 14.6423 545.233C16.3721 549.62 17.426 554.339 17.9324 559.112C18.2357 559.679 18.5315 560.237 18.9022 560.769C20.7412 563.535 22.3568 565.611 22.3789 569.141C22.4229 574.122 19.7258 578.644 19.5247 583.561C18.9183 582.551 18.4018 581.473 17.7341 580.454C16.6392 578.797 15.2431 577.22 14.7116 575.239C14.1888 573.197 14.9682 571.6 15.5258 569.71C16.3085 566.924 16.426 564.046 17.0512 561.238C16.9458 559.967 16.8178 558.696 16.6587 557.426C16.4604 555.897 16.1883 554.384 15.87 552.882C15.6492 554.221 15.2047 555.564 14.8311 556.69L14.8798 556.693Z" fill="#44664B"/>
<path opacity="0.5" d="M84.9758 830.711C85.32 830.875 85.6432 831.067 85.9742 831.246C86.4276 831.313 86.888 831.354 87.3516 831.351C89.9003 831.259 91.9433 830.756 93.7822 832.939C96.4532 836.096 97.949 840.618 101.245 843.234C100.004 843.75 98.2719 843.235 97.0906 842.882C92.7662 841.648 89.3785 839.034 87.1737 835.144C86.4357 833.842 85.6832 832.376 84.5361 831.363C82.454 830.42 80.4223 829.995 78.1616 829.52C75.7783 829.827 73.4103 830.263 71.0515 830.765C68.3989 832.139 65.6876 833.41 62.9471 834.553C55.9414 837.473 48.6141 839.561 41.1732 841.043C41.7712 841.15 42.3639 841.261 42.9481 841.369C45.6337 841.847 48.2935 842.47 50.9424 843.15C51.6254 842.863 52.2915 842.522 52.9806 842.246C56.3954 840.966 60.1631 841.306 63.5082 842.772C68.8372 845.121 73.0539 849.274 78.0717 852.224C77.0936 852.634 75.7325 852.52 74.7 852.595C69.4229 852.966 63.3908 853.635 58.3819 851.522C55.6702 850.353 53.6688 848.212 51.8959 845.906C51.4285 845.322 51.017 844.583 50.5117 843.97C48.4925 843.466 46.4694 842.993 44.4276 842.589C42.3348 842.17 40.0906 842.053 37.9714 841.663C37.188 841.798 36.4023 841.941 35.6212 842.067C27.4801 843.363 18.5648 844.343 10.3897 842.837C10.0229 842.771 10.1367 842.239 10.4741 842.227C17.4855 841.895 24.3848 841.972 31.341 841.29C37.2613 838.654 42.5436 833.414 46.8622 827.863C46.8782 827.487 46.8516 827.099 46.8785 826.717C46.9227 825.569 47.2662 824.532 47.5131 823.413C47.9095 821.648 47.8981 819.833 48.5723 818.141C49.4067 815.847 51.0222 814.514 52.9642 813.175C54.7111 811.998 55.883 810.211 57.5788 809.019C57.5945 811.019 57.094 813.08 56.7964 815.02C56.4165 817.711 55.9661 820.443 54.6231 822.838C53.0573 825.712 50.5304 826.878 47.8693 828.25C46.6537 829.745 45.3453 831.178 43.9595 832.575C43.6681 832.87 43.3713 833.168 43.0691 833.469C44.1472 832.843 45.2609 832.305 46.4402 831.846C46.9779 831.404 47.4292 830.81 47.9762 830.385C49.9061 828.873 52.5075 827.068 54.9127 826.546C58.1542 825.781 62.2088 824.656 65.5298 825.106C64.4618 826.179 63.6489 827.525 62.7317 828.7C58.8333 833.753 53.3757 832.643 47.8236 832.112C47.3373 832.266 46.8473 832.399 46.3703 832.569C44.4919 833.223 42.9192 834.367 41.1944 835.28C38.7898 837.521 36.0773 839.699 33.1685 841.089C33.879 841.003 34.5873 840.925 35.3025 840.822C43.6192 839.621 51.7762 837.43 59.648 834.508C63.917 831.714 66.9239 826.554 69.3471 822.122C69.3909 821.744 69.4155 821.37 69.4384 821.019C69.6467 817.115 69.3797 813.206 69.7312 809.314C70.3311 802.575 75.7026 798.364 79.8105 793.466C79.8762 795.718 79.5851 797.985 79.6833 800.218C79.8088 802.904 80.353 805.582 79.881 808.276C79.3926 811.029 77.8955 813.468 76.3291 815.709C74.375 818.429 71.9364 821.129 69.4442 823.506C67.4626 827.062 64.9168 831.19 61.597 833.763C70.5058 830.282 78.9567 825.463 86.1636 819.283C86.7741 817.706 87.1285 816.095 87.3475 814.459C87.2846 814.07 87.1969 813.688 87.0597 813.319C86.648 812.214 85.8575 811.287 85.3452 810.231C84.5341 808.561 83.6823 806.704 83.5813 804.832C83.5051 803.371 83.8369 801.909 84.3333 800.548C84.864 799.095 85.2662 797.593 85.8138 796.145C86.1416 795.283 86.4084 794.326 86.8283 793.512C87.1027 794.299 87.415 795.065 87.7227 795.848C88.2726 797.235 88.7729 798.636 89.3227 800.023C90.0338 801.808 90.8237 803.606 91.2684 805.477C91.7031 807.318 91.3886 809.203 90.5434 810.884C89.8232 812.293 88.9545 813.642 88.1331 814.985C87.9055 816.151 87.5958 817.298 87.1996 818.394C89.78 816.096 92.1911 813.614 94.3881 810.943C94.5626 810.189 94.6341 809.393 94.7203 808.66C95.1941 804.656 94.7851 800.497 96.0637 796.598C97.0703 793.457 99.2063 791.311 101.513 789.075C103.462 787.178 105.472 784.822 107.801 783.358C107.214 784.951 107.416 786.938 107.377 788.601C107.223 794.483 106.883 800.607 103.286 805.496C100.997 808.586 97.9883 810.457 94.8428 812.327C89.0216 819.333 81.629 824.971 73.584 829.445C78.1602 828.305 82.9761 827.878 87.7742 828.001C88.3767 827.775 88.9683 827.555 89.5445 827.257C92.5276 825.797 94.7971 824.467 98.2992 824.907C103.244 825.517 107.373 828.783 112.222 829.627C111.14 830.096 110.004 830.466 108.906 830.995C107.121 831.863 105.374 833.041 103.34 833.308C101.247 833.558 99.7666 832.577 97.9661 831.776C95.3062 830.635 92.4689 830.141 89.767 829.154C88.4925 829.092 87.2163 829.052 85.9363 829.043C84.3939 829.039 82.8583 829.111 81.3281 829.23C82.6262 829.624 83.9 830.241 84.9673 830.759L84.9758 830.711Z" fill="#44664B"/>
<path opacity="0.5" d="M360.859 689.524C360.497 689.468 360.14 689.445 359.781 689.408C359.379 689.212 358.983 688.991 358.607 688.731C356.574 687.245 355.156 685.703 352.582 686.468C348.849 687.569 345.402 690.435 341.426 690.748C342.183 691.857 343.849 692.395 344.986 692.761C349.119 694.147 353.169 693.886 356.883 691.929C358.126 691.274 359.462 690.492 360.896 690.3C363.058 690.682 364.924 691.46 367.001 692.324C368.792 693.895 370.508 695.562 372.184 697.278C373.669 699.87 375.253 702.409 376.924 704.861C381.197 711.126 386.141 716.889 391.477 722.221C390.937 721.978 390.399 721.74 389.87 721.504C387.444 720.408 384.969 719.445 382.475 718.533C382.059 717.921 381.685 717.273 381.258 716.666C379.106 713.729 375.866 711.921 372.417 711.266C366.916 710.234 361.432 711.293 355.888 710.925C356.483 711.802 357.649 712.462 358.454 713.095C362.573 716.32 367.16 720.207 372.285 721.255C375.072 721.801 377.758 721.16 380.34 720.257C381.009 720.038 381.708 719.663 382.422 719.441C384.316 720.148 386.199 720.882 388.062 721.682C389.975 722.499 391.862 723.646 393.782 724.501C394.354 725.045 394.924 725.596 395.499 726.132C401.497 731.699 408.282 737.436 415.689 740.733C416.02 740.882 416.19 740.384 415.92 740.188C410.368 736.034 404.706 732.277 399.371 727.867C395.843 722.435 394.119 715.228 393.333 708.302C393.505 707.986 393.718 707.683 393.885 707.356C394.414 706.394 394.645 705.356 394.995 704.305C395.542 702.643 396.445 701.167 396.729 699.411C397.179 697.074 396.519 695.09 395.595 692.921C394.751 690.992 394.677 688.883 393.881 686.97C392.883 688.595 392.276 690.557 391.563 692.306C390.546 694.716 389.568 697.197 389.482 699.898C389.343 703.114 390.828 705.466 392.322 708.06C392.576 709.955 392.937 711.85 393.378 713.759C393.47 714.161 393.565 714.569 393.664 714.982C393.093 713.874 392.45 712.818 391.715 711.789C391.494 711.131 391.419 710.396 391.183 709.745C390.354 707.441 389.123 704.526 387.419 702.768C385.153 700.348 382.402 697.183 379.473 695.712C379.815 697.18 379.815 698.73 379.983 700.198C380.672 706.486 385.668 708.601 390.456 711.241C390.777 711.636 391.11 712.017 391.415 712.419C392.624 713.994 393.343 715.799 394.299 717.5C395.155 720.663 396.294 723.945 397.98 726.691C397.443 726.227 396.904 725.772 396.372 725.291C390.184 719.704 384.613 713.397 379.636 706.651C377.532 702.004 377.623 696.123 377.832 691.16C377.982 690.827 378.146 690.508 378.301 690.208C380.055 686.903 382.198 683.857 383.829 680.482C386.66 674.643 384.356 668.228 383.421 661.951C382.258 663.755 381.378 665.768 380.197 667.539C378.772 669.664 377.008 671.551 376.066 674.013C375.108 676.533 375.126 679.355 375.299 682.054C375.552 685.359 376.21 688.915 377.07 692.237C376.934 696.24 376.975 701.023 378.414 704.963C372.866 697.186 368.351 688.569 365.521 679.529C365.8 677.902 366.305 676.389 366.933 674.931C367.176 674.648 367.436 674.384 367.729 674.159C368.609 673.484 369.71 673.164 370.648 672.586C372.133 671.669 373.742 670.624 374.746 669.151C375.528 667.999 375.978 666.62 376.244 665.233C376.527 663.753 376.939 662.303 377.206 660.816C377.364 659.93 377.618 659 377.677 658.103C377.065 658.594 376.433 659.047 375.797 659.516C374.665 660.345 373.567 661.213 372.435 662.042C370.976 663.107 369.446 664.138 368.162 665.421C366.9 666.685 366.228 668.399 366.089 670.24C365.982 671.79 366.025 673.373 366.033 674.926C365.644 676.005 365.331 677.114 365.115 678.228C364.143 674.922 363.401 671.558 362.925 668.16C363.155 667.447 363.489 666.757 363.779 666.11C365.366 662.576 367.749 659.404 368.628 655.51C369.354 652.387 368.671 649.45 367.892 646.345C367.238 643.717 366.76 640.679 365.582 638.193C365.276 639.82 364.132 641.331 363.344 642.712C360.572 647.603 357.832 652.795 358.355 658.782C358.699 662.574 360.23 665.769 361.873 669.038C363.166 677.987 366.416 686.687 370.77 694.797C367.601 691.332 363.885 688.316 359.912 685.76C359.533 685.242 359.159 684.734 358.836 684.172C357.124 681.327 355.929 678.983 352.857 677.404C348.526 675.164 343.55 675.546 339.182 673.551C339.832 674.533 340.576 675.465 341.21 676.505C342.238 678.203 343.082 680.132 344.608 681.477C346.191 682.84 347.882 682.858 349.744 683.201C352.475 683.741 355.031 684.909 357.72 685.598C358.79 686.253 359.85 686.928 360.897 687.629C362.157 688.48 363.373 689.389 364.562 690.333C363.31 689.937 361.968 689.735 360.842 689.568L360.859 689.524Z" fill="#44664B"/>
</g>
<defs>
<clipPath id="clip0_143_1670">
<rect width="390" height="844" fill="white"/>
</clipPath>
</defs>
</svg>
