<svg width="390" height="844" viewBox="0 0 390 844" fill="none" xmlns="http://www.w3.org/2000/svg">
<g clip-path="url(#clip0_108_1274)">
<rect width="390" height="844" fill="#2D4331"/>
<path opacity="0.5" d="M69.6621 37.6196C70.0424 37.6149 70.4147 37.5776 70.7892 37.5541C71.2279 37.6839 71.6623 37.8399 72.0809 38.0379C74.3526 39.1913 75.9951 40.5051 78.5679 39.3009C82.2998 37.5629 85.5333 34.0957 89.6064 33.1102C88.6965 32.1218 86.9128 31.861 85.6959 31.6841C81.2644 30.9855 77.1086 31.9306 73.4951 34.5274C72.2855 35.3966 70.9945 36.4088 69.5345 36.8441C67.256 36.8238 65.2384 36.3551 62.9924 35.8356C60.9602 34.5562 58.995 33.1673 57.0659 31.7217C55.2327 29.363 53.3033 27.0734 51.2946 24.8869C46.1586 19.2993 40.3854 14.3307 34.2579 9.8624C34.8444 10.0165 35.4273 10.1655 36.0015 10.3131C38.6341 11.0075 41.3033 11.5606 43.986 12.0578C44.486 12.6041 44.9478 13.1932 45.4579 13.7322C48.0206 16.3264 51.5764 17.6007 55.2164 17.6786C61.0213 17.7894 66.5673 15.7992 72.3398 15.2349C71.6239 14.4523 70.3431 13.9836 69.4382 13.4827C64.8101 10.9299 59.6218 7.78977 54.205 7.59962C51.2619 7.51971 48.5592 8.61784 45.9947 9.96189C45.3285 10.2949 44.6489 10.791 43.9362 11.1342C41.8972 10.7424 39.8674 10.3208 37.849 9.8296C35.7785 9.32987 33.6961 8.4933 31.6138 7.95594C30.9597 7.50502 30.3071 7.04541 29.6516 6.60319C22.8123 2.00939 15.1398 -2.62258 7.10584 -4.69246C6.74622 -4.78706 6.62821 -4.25713 6.92931 -4.10513C13.1453 -0.859247 19.4296 1.96914 25.4501 5.509C29.7205 10.3833 32.3313 17.3482 33.9398 24.1892C33.7981 24.5367 33.6128 24.877 33.4784 25.2345C33.0417 26.2928 32.9224 27.3762 32.6814 28.4934C32.3076 30.2585 31.5437 31.8974 31.4518 33.7132C31.2552 36.1415 32.1655 38.0276 33.3697 40.0556C34.4637 41.8556 34.7835 43.9666 35.8254 45.7581C36.67 43.9539 37.0727 41.8764 37.6084 39.9948C38.382 37.3975 39.1082 34.7344 38.8859 32.0008C38.6606 28.7399 36.8549 26.6223 35.013 24.2622C34.5323 22.3973 33.9416 20.5501 33.2661 18.7025C33.1245 18.3131 32.9792 17.9187 32.8302 17.5192C33.5475 18.5387 34.3334 19.4934 35.2112 20.4052C35.5151 21.031 35.6773 21.7586 35.9964 22.3735C37.1177 24.5532 38.7252 27.2813 40.6885 28.7637C43.3083 30.818 46.5155 33.5401 49.7118 34.5278C49.1897 33.1071 49.0121 31.5464 48.6688 30.097C47.2346 23.8829 41.8277 22.5958 36.5757 20.7447C36.1987 20.4016 35.8101 20.0746 35.4483 19.7206C34.0178 18.3388 33.0675 16.6426 31.8836 15.0913C30.6352 12.0514 29.0817 8.93911 27.0228 6.45862C27.631 6.83505 28.2406 7.20278 28.846 7.5966C35.8837 12.1782 42.3661 17.5888 48.2863 23.5415C50.9945 27.8654 51.5767 33.8015 51.9317 38.8342C51.8147 39.1946 51.6816 39.5435 51.5565 39.8713C50.1238 43.4949 48.2587 46.9228 46.9609 50.5953C44.7058 56.9511 47.8248 63.0213 49.5132 69.1832C50.5079 67.1713 51.1855 64.996 52.202 63.0145C53.4312 60.6346 55.0368 58.437 55.7276 55.7993C56.4284 53.1008 56.0848 50.2625 55.596 47.5747C54.9548 44.2903 53.866 40.821 52.5947 37.621C52.2759 33.5677 51.6832 28.7596 49.7432 25.0348C56.371 31.9294 62.0281 39.8441 65.9927 48.4684C65.891 50.1532 65.5428 51.7618 65.062 53.3353C64.8434 53.6612 64.6052 53.9705 64.3278 54.2466C63.4956 55.0749 62.3944 55.5824 61.4916 56.3232C60.0627 57.4959 58.5198 58.8196 57.6508 60.4725C56.975 61.764 56.6684 63.2276 56.553 64.669C56.4306 66.2074 56.1713 67.7368 56.0664 69.2781C56.0053 70.1969 55.8494 71.1761 55.8919 72.0896C56.4676 71.4917 57.0687 70.9292 57.6727 70.3493C58.7471 69.324 59.7822 68.2654 60.8566 67.2401C62.2423 65.9219 63.7049 64.6252 64.8851 63.117C66.0436 61.6321 66.5411 59.7934 66.4734 57.9158C66.4058 56.3373 66.1789 54.7506 65.9925 53.1884C66.2703 52.0372 66.4662 50.868 66.5621 49.7093C67.9463 52.8742 69.1003 56.1354 69.9822 59.477C69.8272 60.2331 69.5613 60.9845 69.3351 61.6842C68.1015 65.5101 66.0036 69.1053 65.5429 73.1738C65.151 76.4409 66.1952 79.2822 67.3572 82.2768C68.3353 84.8126 69.1785 87.7906 70.6812 90.0952C70.8103 88.4061 71.8189 86.6912 72.4746 85.1687C74.7774 79.7762 77.0127 74.087 75.7835 68.1476C74.9924 64.3876 73.043 61.4294 70.9688 58.415C68.6034 49.6237 64.2452 41.4127 58.8126 33.9814C62.4863 36.9361 66.6735 39.3453 71.073 41.2488C71.5249 41.7069 71.9696 42.1548 72.3681 42.6665C74.4649 45.2426 75.9693 47.4001 79.326 48.4721C84.0599 49.9972 89.1589 48.7734 93.9028 50.0457C93.1178 49.167 92.2418 48.3537 91.4668 47.4141C90.209 45.8775 89.1149 44.0774 87.3831 42.9812C85.5905 41.875 83.8409 42.1423 81.8767 42.111C78.9923 42.0273 76.2161 41.2826 73.3574 41.0423C72.1765 40.5632 71.0036 40.0631 69.84 39.5332C68.4406 38.8888 67.0787 38.1791 65.7414 37.4288C67.0815 37.6169 68.492 37.5933 69.6743 37.5725L69.6621 37.6196Z" fill="#44664B"/>
<path opacity="0.5" d="M377.35 155.637C377.5 155.987 377.676 156.317 377.841 156.654C377.888 157.109 377.91 157.57 377.887 158.033C377.688 160.572 377.1 162.592 379.195 164.511C382.225 167.297 386.664 168.963 389.129 172.352C389.696 171.133 389.256 169.385 388.955 168.193C387.91 163.83 385.451 160.349 381.671 158C380.406 157.214 378.978 156.407 378.019 155.223C377.168 153.109 376.831 151.066 376.454 148.791C376.862 146.425 377.396 144.078 377.996 141.744C379.476 139.149 380.857 136.492 382.111 133.801C385.316 126.921 387.706 119.689 389.498 112.32C389.579 112.921 389.664 113.517 389.747 114.104C390.109 116.802 390.617 119.48 391.181 122.15C390.866 122.821 390.498 123.472 390.195 124.149C388.775 127.508 388.954 131.281 390.27 134.675C392.383 140.083 396.339 144.45 399.063 149.571C399.513 148.61 399.458 147.248 399.576 146.22C400.169 140.968 401.092 134.974 399.201 129.895C398.152 127.144 396.105 125.064 393.884 123.207C393.322 122.718 392.605 122.279 392.015 121.752C391.599 119.717 391.215 117.68 390.898 115.627C390.57 113.523 390.549 111.278 390.251 109.149C390.418 108.372 390.594 107.593 390.753 106.819C392.389 98.7441 393.743 89.8846 392.591 81.6688C392.541 81.3003 392.006 81.3934 391.98 81.7297C391.352 88.7139 391.136 95.602 390.161 102.518C387.285 108.325 381.843 113.396 376.134 117.493C375.758 117.495 375.373 117.453 374.991 117.465C373.847 117.466 372.8 117.769 371.675 117.972C369.901 118.3 368.094 118.219 366.381 118.827C364.061 119.572 362.665 121.133 361.25 123.02C360.004 124.719 358.175 125.82 356.916 127.466C358.906 127.559 360.98 127.138 362.924 126.915C365.62 126.639 368.359 126.294 370.8 125.046C373.729 123.593 374.997 121.116 376.476 118.513C378.016 117.357 379.498 116.106 380.948 114.777C381.254 114.497 381.563 114.212 381.876 113.922C381.207 114.974 380.624 116.065 380.117 117.224C379.654 117.744 379.043 118.172 378.597 118.701C377.01 120.569 375.102 123.096 374.48 125.477C373.581 128.682 372.289 132.685 372.596 136.017C373.71 134.992 375.085 134.232 376.293 133.362C381.49 129.665 380.616 124.176 380.323 118.615C380.497 118.136 380.651 117.652 380.84 117.182C381.571 115.333 382.776 113.807 383.759 112.121C386.092 109.807 388.376 107.183 389.883 104.334C389.767 105.04 389.66 105.743 389.527 106.453C387.978 114.707 385.45 122.763 382.207 130.507C379.243 134.66 373.979 137.463 369.462 139.712C369.084 139.741 368.711 139.751 368.36 139.761C364.464 139.819 360.584 139.403 356.694 139.605C349.959 139.946 345.538 145.145 340.487 149.057C342.726 149.209 344.995 149.005 347.215 149.188C349.883 149.416 352.528 150.062 355.229 149.694C357.991 149.312 360.483 147.912 362.781 146.434C365.573 144.588 368.364 142.258 370.837 139.862C374.462 138.02 378.68 135.638 381.382 132.423C377.538 141.181 372.381 149.43 365.922 156.385C364.326 156.934 362.707 157.226 361.069 157.382C360.684 157.304 360.307 157.202 359.946 157.051C358.863 156.598 357.974 155.774 356.944 155.222C355.315 154.349 353.503 153.428 351.643 153.255C350.192 153.123 348.722 153.398 347.346 153.842C345.877 154.315 344.364 154.659 342.9 155.15C342.027 155.445 341.062 155.674 340.234 156.062C341.007 156.366 341.756 156.707 342.522 157.044C343.88 157.646 345.254 158.199 346.611 158.801C348.358 159.578 350.115 160.436 351.96 160.951C353.774 161.455 355.664 161.214 357.373 160.434C358.807 159.77 360.187 158.954 361.559 158.186C362.73 158.004 363.885 157.738 364.993 157.385C362.595 159.872 360.021 162.183 357.269 164.274C356.511 164.419 355.715 164.46 354.982 164.518C350.975 164.837 346.851 164.27 342.915 165.397C339.745 166.281 337.517 168.33 335.193 170.547C333.222 172.419 330.791 174.335 329.234 176.603C330.845 176.078 332.815 176.356 334.472 176.381C340.336 176.452 346.447 176.347 351.468 172.944C354.642 170.778 356.632 167.848 358.627 164.78C365.851 159.239 371.777 152.078 376.573 144.22C375.244 148.744 374.615 153.533 374.534 158.326C374.283 158.919 374.039 159.501 373.718 160.064C372.137 162.985 370.717 165.199 371.007 168.711C371.403 173.669 374.48 177.915 375.114 182.785C375.627 181.724 376.045 180.604 376.617 179.529C377.558 177.78 378.804 176.082 379.157 174.063C379.495 171.984 378.58 170.469 377.86 168.641C376.837 165.943 376.466 163.093 375.597 160.359C375.589 159.085 375.604 157.81 375.65 156.532C375.711 154.992 375.848 153.463 376.031 151.94C376.368 153.251 376.928 154.546 377.399 155.63L377.35 155.637Z" fill="#44664B"/>
<path opacity="0.5" d="M14.8801 556.693C14.7618 557.055 14.6147 557.401 14.4801 557.752C14.4732 558.211 14.4926 558.673 14.557 559.132C14.9816 561.646 15.7481 563.606 13.8254 565.715C11.0452 568.777 6.75828 570.852 4.59634 574.462C3.92218 573.3 4.20614 571.515 4.40084 570.298C5.05763 565.849 7.2057 562.148 10.7729 559.452C11.9669 558.55 13.3222 557.612 14.1757 556.342C14.838 554.154 14.9928 552.085 15.1673 549.781C14.5504 547.459 13.8085 545.168 13.0016 542.895C11.2918 540.446 9.67693 537.924 8.18451 535.357C4.3714 528.795 1.34162 521.804 -1.10328 514.622C-1.13124 515.229 -1.16296 515.831 -1.19344 516.424C-1.31614 519.149 -1.58513 521.868 -1.91163 524.583C-1.53822 525.222 -1.11232 525.838 -0.748901 526.485C0.968161 529.702 1.1244 533.482 0.110047 536.991C-1.52044 542.581 -5.08496 547.306 -7.35213 552.667C-7.88719 551.751 -7.95274 550.387 -8.16161 549.373C-9.22112 544.19 -10.6754 538.298 -9.23697 533.055C-8.43304 530.214 -6.57315 527.949 -4.51919 525.889C-4.00104 525.349 -3.32282 524.844 -2.78097 524.263C-2.54614 522.195 -2.34256 520.128 -2.20901 518.051C-2.06802 515.921 -2.246 513.681 -2.13755 511.529C-2.37359 510.77 -2.61838 510.009 -2.84567 509.252C-5.19775 501.351 -7.33711 492.641 -6.91541 484.339C-6.8984 483.966 -6.35573 484.009 -6.30029 484.342C-5.05223 491.25 -4.22433 498.1 -2.63633 504.907C0.752835 510.43 6.63998 514.98 12.7083 518.534C13.0834 518.501 13.4646 518.424 13.8471 518.4C14.991 518.294 16.064 518.498 17.2056 518.597C19.0074 518.758 20.8049 518.509 22.5709 518.956C24.9545 519.482 26.488 520.909 28.0693 522.659C29.4654 524.237 31.3908 525.164 32.7943 526.689C30.8143 526.967 28.7048 526.741 26.7431 526.7C24.025 526.676 21.2581 526.587 18.7075 525.57C15.6529 524.394 14.1657 522.042 12.4572 519.584C10.8155 518.574 9.22375 517.465 7.65688 516.274C7.32648 516.024 6.99233 515.769 6.65442 515.509C7.41587 516.495 8.09486 517.529 8.70518 518.638C9.21341 519.113 9.86153 519.483 10.3548 519.969C12.1061 521.684 14.2371 524.027 15.0691 526.343C16.2521 529.456 17.8988 533.328 17.8882 536.68C16.6842 535.762 15.2431 535.132 13.9581 534.377C8.43783 531.174 8.82312 525.618 8.62202 520.044C8.40637 519.582 8.20947 519.114 7.97883 518.663C7.08382 516.887 5.74421 515.478 4.61315 513.887C2.07615 511.797 -0.438752 509.394 -2.19765 506.692C-2.0192 507.385 -1.84951 508.077 -1.65356 508.773C0.627506 516.86 3.86837 524.66 7.79638 532.081C11.1259 535.947 16.635 538.252 21.3471 540.073C21.7271 540.067 22.1009 540.042 22.4522 540.019C26.3501 539.714 30.1898 538.937 34.0941 538.776C40.8539 538.487 45.7324 543.261 51.1267 546.691C48.903 547.051 46.6175 547.06 44.4163 547.45C41.7702 547.926 39.1858 548.817 36.4539 548.702C33.6607 548.578 31.0461 547.414 28.619 546.155C25.6663 544.574 22.6705 542.51 19.9872 540.351C16.2019 538.852 11.776 536.869 8.79023 533.915C13.4084 542.291 19.2935 550.038 26.3644 556.373C28.0078 556.771 29.6521 556.911 31.3024 556.914C31.6798 556.801 32.0472 556.664 32.3945 556.479C33.4365 555.926 34.2517 555.021 35.2311 554.375C36.7813 553.352 38.5102 552.264 40.3526 551.919C41.7913 551.652 43.2843 551.789 44.6987 552.103C46.2082 552.439 47.7501 552.641 49.2571 552.994C50.155 553.206 51.1392 553.345 52.001 553.654C51.2563 554.03 50.538 554.44 49.8021 554.847C48.499 555.574 47.1759 556.254 45.8729 556.981C44.1963 557.919 42.5173 558.938 40.7203 559.624C38.9521 560.296 37.0429 560.232 35.2655 559.614C33.7745 559.085 32.3233 558.4 30.8834 557.762C29.6981 557.689 28.5201 557.532 27.3821 557.283C29.9981 559.54 32.7751 561.605 35.7106 563.433C36.4808 563.507 37.2797 563.474 38.0173 563.463C42.0493 563.408 46.1189 562.458 50.1519 563.215C53.3971 563.801 55.805 565.637 58.3243 567.631C60.4595 569.314 63.0584 570.998 64.8153 573.116C63.1595 572.742 61.216 573.203 59.5621 573.383C53.7105 574 47.5949 574.466 42.2763 571.54C38.9131 569.676 36.6641 566.939 34.3986 564.065C26.6895 559.213 20.132 552.622 14.6425 545.233C16.3723 549.62 17.4262 554.339 17.9326 559.112C18.2359 559.679 18.5317 560.237 18.9025 560.769C20.7415 563.535 22.357 565.611 22.3791 569.141C22.4232 574.122 19.7261 578.644 19.525 583.561C18.9185 582.551 18.402 581.473 17.7343 580.454C16.6394 578.797 15.2433 577.22 14.7119 575.239C14.1891 573.197 14.9684 571.6 15.526 569.71C16.3088 566.924 16.4263 564.046 17.0515 561.238C16.946 559.967 16.8181 558.696 16.6589 557.426C16.4606 555.897 16.1886 554.384 15.8703 552.882C15.6495 554.221 15.2049 555.564 14.8313 556.69L14.8801 556.693Z" fill="#44664B"/>
<path opacity="0.5" d="M84.9756 830.711C85.3197 830.875 85.643 831.067 85.974 831.246C86.4274 831.313 86.8878 831.354 87.3514 831.351C89.9 831.259 91.9431 830.756 93.7819 832.939C96.4529 836.096 97.9487 840.618 101.244 843.234C100.004 843.75 98.2717 843.235 97.0904 842.882C92.7659 841.648 89.3783 839.034 87.1735 835.144C86.4354 833.842 85.6829 832.376 84.5359 831.363C82.4538 830.42 80.4221 829.995 78.1614 829.52C75.7781 829.827 73.41 830.263 71.0512 830.765C68.3986 832.139 65.6874 833.41 62.9469 834.553C55.9411 837.473 48.6139 839.561 41.1729 841.043C41.771 841.15 42.3637 841.261 42.9478 841.369C45.6334 841.847 48.2932 842.47 50.9422 843.15C51.6252 842.863 52.2912 842.522 52.9804 842.246C56.3952 840.966 60.1629 841.306 63.508 842.772C68.837 845.121 73.0536 849.274 78.0714 852.224C77.0934 852.634 75.7322 852.52 74.6997 852.595C69.4226 852.966 63.3906 853.635 58.3817 851.522C55.67 850.353 53.6685 848.212 51.8956 845.906C51.4282 845.322 51.0168 844.583 50.5115 843.97C48.4923 843.466 46.4692 842.993 44.4274 842.589C42.3345 842.17 40.0903 842.053 37.9711 841.663C37.1877 841.798 36.402 841.941 35.6209 842.067C27.4799 843.363 18.5645 844.343 10.3894 842.837C10.0227 842.771 10.1364 842.239 10.4739 842.227C17.4852 841.895 24.3846 841.972 31.3407 841.29C37.261 838.654 42.5434 833.414 46.8619 827.863C46.8779 827.487 46.8514 827.099 46.8782 826.717C46.9224 825.569 47.2659 824.532 47.5129 823.413C47.9093 821.648 47.8979 819.833 48.572 818.141C49.4064 815.847 51.0219 814.514 52.964 813.175C54.7108 811.998 55.8827 810.211 57.5785 809.019C57.5943 811.019 57.0938 813.08 56.7962 815.02C56.4163 817.711 55.9659 820.443 54.6228 822.838C53.057 825.712 50.5301 826.878 47.869 828.25C46.6534 829.745 45.345 831.178 43.9593 832.575C43.6679 832.87 43.3711 833.168 43.0688 833.469C44.147 832.843 45.2606 832.305 46.44 831.846C46.9777 831.404 47.4289 830.81 47.9759 830.385C49.9059 828.873 52.5072 827.068 54.9125 826.546C58.154 825.781 62.2085 824.656 65.5295 825.106C64.4616 826.179 63.6486 827.525 62.7314 828.7C58.8331 833.753 53.3754 832.643 47.8233 832.112C47.3371 832.266 46.847 832.399 46.37 832.569C44.4916 833.223 42.919 834.367 41.1942 835.28C38.7896 837.521 36.077 839.699 33.1682 841.089C33.8788 841.003 34.587 840.925 35.3023 840.822C43.6189 839.621 51.776 837.43 59.6477 834.508C63.9167 831.714 66.9237 826.554 69.3468 822.122C69.3907 821.744 69.4152 821.37 69.4382 821.019C69.6464 817.115 69.3795 813.206 69.7309 809.314C70.3309 802.575 75.7024 798.364 79.8102 793.466C79.8759 795.718 79.5848 797.985 79.6831 800.218C79.8086 802.904 80.3527 805.582 79.8807 808.276C79.3924 811.029 77.8953 813.468 76.3288 815.709C74.3747 818.429 71.9362 821.129 69.4439 823.506C67.4624 827.062 64.9166 831.19 61.5967 833.763C70.5055 830.282 78.9565 825.463 86.1634 819.283C86.7739 817.706 87.1283 816.095 87.3473 814.459C87.2844 814.07 87.1967 813.688 87.0594 813.319C86.6477 812.214 85.8573 811.287 85.3449 810.231C84.5339 808.561 83.6821 806.704 83.581 804.832C83.5049 803.371 83.8366 801.909 84.3331 800.548C84.8637 799.095 85.2659 797.593 85.8136 796.145C86.1414 795.283 86.4082 794.326 86.828 793.512C87.1024 794.299 87.4148 795.065 87.7225 795.848C88.2723 797.235 88.7726 798.636 89.3225 800.023C90.0335 801.808 90.8235 803.606 91.2682 805.477C91.7029 807.318 91.3883 809.203 90.5432 810.884C89.823 812.293 88.9543 813.642 88.1328 814.985C87.9052 816.151 87.5956 817.298 87.1993 818.394C89.7797 816.096 92.1909 813.614 94.3879 810.943C94.5623 810.189 94.6339 809.393 94.72 808.66C95.1939 804.656 94.7849 800.497 96.0635 796.598C97.0701 793.457 99.206 791.311 101.513 789.075C103.461 787.178 105.471 784.822 107.801 783.358C107.213 784.951 107.416 786.938 107.377 788.601C107.222 794.483 106.883 800.607 103.286 805.496C100.997 808.586 97.9881 810.457 94.8426 812.327C89.0214 819.333 81.6287 824.971 73.5838 829.445C78.16 828.305 82.9759 827.878 87.774 828.001C88.3764 827.775 88.968 827.555 89.5442 827.257C92.5274 825.797 94.7968 824.467 98.299 824.907C103.243 825.517 107.373 828.783 112.221 829.627C111.14 830.096 110.004 830.466 108.906 830.995C107.12 831.863 105.374 833.041 103.34 833.308C101.247 833.558 99.7664 832.577 97.9658 831.776C95.3059 830.635 92.4687 830.141 89.7668 829.154C88.4922 829.092 87.2161 829.052 85.936 829.043C84.3936 829.039 82.8581 829.111 81.3279 829.23C82.626 829.624 83.8997 830.241 84.967 830.759L84.9756 830.711Z" fill="#44664B"/>
<path opacity="0.5" d="M360.859 689.524C360.497 689.468 360.14 689.445 359.781 689.408C359.379 689.212 358.983 688.991 358.607 688.731C356.574 687.245 355.156 685.703 352.582 686.468C348.849 687.569 345.402 690.435 341.426 690.748C342.183 691.857 343.849 692.395 344.986 692.761C349.119 694.147 353.169 693.886 356.883 691.929C358.126 691.274 359.462 690.492 360.896 690.3C363.058 690.682 364.924 691.46 367.001 692.324C368.792 693.895 370.508 695.562 372.184 697.278C373.669 699.87 375.253 702.409 376.924 704.861C381.197 711.126 386.141 716.889 391.477 722.221C390.937 721.978 390.399 721.74 389.87 721.504C387.444 720.408 384.969 719.445 382.475 718.533C382.059 717.921 381.685 717.273 381.258 716.666C379.106 713.729 375.866 711.921 372.417 711.266C366.916 710.234 361.432 711.293 355.888 710.925C356.483 711.802 357.649 712.462 358.454 713.095C362.573 716.32 367.16 720.207 372.285 721.255C375.072 721.801 377.758 721.16 380.34 720.257C381.009 720.038 381.708 719.663 382.422 719.441C384.316 720.148 386.199 720.882 388.062 721.682C389.975 722.499 391.862 723.646 393.782 724.501C394.354 725.045 394.924 725.596 395.499 726.132C401.497 731.699 408.282 737.436 415.689 740.733C416.02 740.882 416.19 740.384 415.92 740.188C410.368 736.034 404.706 732.277 399.371 727.867C395.843 722.435 394.119 715.228 393.333 708.302C393.505 707.986 393.718 707.683 393.885 707.356C394.414 706.394 394.645 705.356 394.995 704.305C395.542 702.643 396.445 701.167 396.729 699.411C397.179 697.074 396.519 695.09 395.595 692.921C394.751 690.992 394.677 688.883 393.881 686.97C392.883 688.595 392.276 690.557 391.563 692.306C390.546 694.716 389.568 697.197 389.482 699.898C389.343 703.114 390.828 705.466 392.322 708.06C392.576 709.955 392.937 711.85 393.378 713.759C393.47 714.161 393.565 714.569 393.664 714.982C393.093 713.874 392.45 712.818 391.715 711.789C391.494 711.131 391.419 710.396 391.183 709.745C390.354 707.441 389.123 704.526 387.419 702.768C385.153 700.348 382.402 697.183 379.473 695.712C379.815 697.18 379.815 698.73 379.983 700.198C380.672 706.486 385.668 708.601 390.456 711.241C390.777 711.636 391.11 712.017 391.415 712.419C392.624 713.994 393.343 715.799 394.299 717.5C395.155 720.663 396.294 723.945 397.98 726.691C397.443 726.227 396.904 725.772 396.372 725.291C390.184 719.704 384.613 713.397 379.636 706.651C377.532 702.004 377.623 696.123 377.832 691.16C377.982 690.827 378.146 690.508 378.301 690.208C380.055 686.903 382.198 683.857 383.829 680.482C386.66 674.643 384.356 668.228 383.421 661.951C382.258 663.755 381.378 665.768 380.197 667.539C378.772 669.664 377.008 671.551 376.066 674.013C375.108 676.533 375.126 679.355 375.299 682.054C375.552 685.359 376.21 688.915 377.07 692.237C376.934 696.24 376.975 701.023 378.414 704.963C372.866 697.186 368.351 688.569 365.521 679.529C365.8 677.902 366.305 676.389 366.933 674.931C367.176 674.648 367.436 674.384 367.729 674.159C368.609 673.484 369.71 673.164 370.648 672.586C372.133 671.669 373.742 670.624 374.746 669.151C375.528 667.999 375.978 666.62 376.244 665.233C376.527 663.753 376.939 662.303 377.206 660.816C377.364 659.93 377.618 659 377.677 658.103C377.065 658.594 376.433 659.047 375.797 659.516C374.665 660.345 373.567 661.213 372.435 662.042C370.976 663.107 369.446 664.138 368.162 665.421C366.9 666.685 366.228 668.399 366.089 670.24C365.982 671.79 366.025 673.373 366.033 674.926C365.644 676.005 365.331 677.114 365.115 678.228C364.143 674.922 363.401 671.558 362.925 668.16C363.155 667.447 363.489 666.757 363.779 666.11C365.366 662.576 367.749 659.404 368.628 655.51C369.354 652.387 368.671 649.45 367.892 646.345C367.238 643.717 366.76 640.679 365.582 638.193C365.276 639.82 364.132 641.331 363.344 642.712C360.572 647.603 357.832 652.795 358.355 658.782C358.699 662.574 360.23 665.769 361.873 669.038C363.166 677.987 366.416 686.687 370.77 694.797C367.601 691.332 363.885 688.316 359.912 685.76C359.533 685.242 359.159 684.734 358.836 684.172C357.124 681.327 355.929 678.983 352.857 677.404C348.526 675.164 343.55 675.546 339.182 673.551C339.832 674.533 340.576 675.465 341.21 676.505C342.238 678.203 343.082 680.132 344.608 681.477C346.191 682.84 347.882 682.858 349.744 683.201C352.475 683.741 355.031 684.909 357.72 685.598C358.79 686.253 359.85 686.928 360.897 687.629C362.157 688.48 363.373 689.389 364.562 690.333C363.31 689.937 361.968 689.735 360.842 689.568L360.859 689.524Z" fill="#44664B"/>
</g>
<defs>
<clipPath id="clip0_108_1274">
<rect width="390" height="844" fill="white"/>
</clipPath>
</defs>
</svg>
