<svg width="325" height="356" viewBox="0 0 325 356" fill="none" xmlns="http://www.w3.org/2000/svg">
<rect width="155" height="169.904" rx="20" fill="#D3DBD1"/>
<rect y="186" width="155" height="169.904" rx="20" fill="#D3DBD1"/>
<rect x="170" width="155" height="169.904" rx="20" fill="#D3DBD1"/>
<rect x="170" y="186" width="155" height="169.904" rx="20" fill="#D3DBD1"/>
<path fill-rule="evenodd" clip-rule="evenodd" d="M271.333 267.667H251.333V247.667C251.333 245.823 249.84 244.333 248 244.333C246.16 244.333 244.667 245.823 244.667 247.667V267.667H224.667C222.827 267.667 221.333 269.157 221.333 271C221.333 272.843 222.827 274.333 224.667 274.333H244.667V294.333C244.667 296.177 246.16 297.667 248 297.667C249.84 297.667 251.333 296.177 251.333 294.333V274.333H271.333C273.173 274.333 274.667 272.843 274.667 271C274.667 269.157 273.173 267.667 271.333 267.667" fill="#231F20"/>
<mask id="mask0_287_1132" style="mask-type:luminance" maskUnits="userSpaceOnUse" x="221" y="244" width="54" height="54">
<path fill-rule="evenodd" clip-rule="evenodd" d="M271.333 267.667H251.333V247.667C251.333 245.823 249.84 244.333 248 244.333C246.16 244.333 244.667 245.823 244.667 247.667V267.667H224.667C222.827 267.667 221.333 269.157 221.333 271C221.333 272.843 222.827 274.333 224.667 274.333H244.667V294.333C244.667 296.177 246.16 297.667 248 297.667C249.84 297.667 251.333 296.177 251.333 294.333V274.333H271.333C273.173 274.333 274.667 272.843 274.667 271C274.667 269.157 273.173 267.667 271.333 267.667" fill="white"/>
</mask>
<g mask="url(#mask0_287_1132)">
<rect x="208" y="231" width="80" height="80" fill="#174A41"/>
</g>
<g clip-path="url(#clip0_287_1132)">
<path fill-rule="evenodd" clip-rule="evenodd" d="M195.37 17.2497C193.746 16.4569 191.581 17.3763 192.484 19.472C193.452 21.7162 197.028 21.7439 199.048 21.6994C198.846 21.689 198.195 19.6311 197.972 19.3201C197.315 18.4027 196.368 17.7379 195.37 17.2497ZM214.081 57.485C214.114 57.5173 214.49 57.8298 214.081 57.485ZM193.805 27.4C192.855 28.1152 192.81 29.3778 193.586 30.2325C194.511 31.25 196.198 31.2129 197.458 31.1138C198.028 31.0689 201.072 30.829 200.35 30.3387C200.406 30.3594 200.522 30.4094 200.646 30.4775C200.712 30.7176 200.782 30.9568 200.855 31.1949C200.838 31.2052 200.822 31.2163 200.803 31.2265C200.824 31.2176 200.838 31.2079 200.857 31.1989C201.588 33.5792 202.63 35.8457 203.994 37.9661C203.484 37.7683 202.955 37.6185 202.419 37.5518C200.832 37.3542 197.492 38.5687 199.268 40.6497C200.97 42.6447 203.621 40.5044 205.554 40.2093C207.428 42.7848 209.495 45.2529 211.661 47.6387C211.528 47.6796 211.412 47.7649 211.345 47.8976C210.476 47.4636 209.571 46.8428 208.767 46.6747C207.606 46.4325 205.227 46.2857 204.35 47.3082C203.271 48.5655 204.427 49.5868 205.702 49.8279C207.55 50.1777 209.969 49.2888 211.747 48.6882C211.95 48.7236 212.172 48.6651 212.305 48.5049C212.344 48.4922 212.384 48.4798 212.422 48.4676C214.615 50.8417 216.893 53.1375 219.156 55.3828C219.132 55.3816 219.108 55.3802 219.083 55.3789C218.492 54.9976 217.859 54.6849 217.173 54.521C215.585 54.14 213.716 54.1381 212.427 55.2693C211.144 56.3956 210.689 58.3654 212.017 59.6301C214.675 62.1617 218.592 56.3895 219.933 56.1485C222.233 58.4064 224.665 60.516 227.135 62.583C226.855 62.4989 226.567 62.4371 226.27 62.4093C223.847 62.181 218.161 65.1047 221.134 67.9812C223.725 70.4879 226.723 65.6632 228.811 63.9759C231.139 65.9025 233.48 67.8158 235.755 69.8037C234.514 69.4794 233.315 69.4316 231.985 69.8273C230.608 70.2373 228.388 71.2603 229.258 73.0896C230.143 74.9498 232.809 74.1034 234.198 73.5127C234.956 73.1906 236.475 72.1034 237.808 71.6455C241.438 75.0194 244.583 78.7355 246.963 83.1131C248.449 85.8463 249.577 88.7665 250.371 91.7678C250.877 93.6835 251.876 96.901 251.676 99.3944C252.628 94.4035 250.906 88.4094 249.05 83.9484C247.344 79.8463 244.791 76.2452 241.8 73.0037C242.551 70.7815 248.868 67.5764 245.091 65.5119C243.086 64.4202 241.032 66.2316 240.594 68.1499C240.293 69.4682 240.751 71.1246 241.238 72.4041C240.297 71.416 239.319 70.4597 238.312 69.5351C236.919 68.2572 235.493 67.0164 234.053 65.7913C236.425 63.597 238.671 57.3241 235.49 56.2982C230.792 54.7876 233.054 63.3441 233.382 64.9477C233.475 64.9532 233.547 64.9255 233.601 64.8661C233.574 65.013 233.544 65.17 233.507 65.3284C230.751 62.9957 227.954 60.709 225.25 58.3206C225.494 58.1433 225.881 57.4658 226.185 57.1052C226.872 56.2924 227.53 55.4433 228.01 54.4924C228.769 52.9897 229.501 50.5928 227.489 49.7089C225.302 48.7459 224.262 51.4568 224.247 53.074C224.236 54.1925 224.546 55.255 224.707 56.3513C224.757 56.6933 224.563 58.2345 225.036 57.5715C225.014 57.816 225.011 57.993 225.022 58.1185C224.536 57.6876 224.055 57.252 223.576 56.8132C223.598 56.7578 223.614 56.6974 223.618 56.6274C223.644 56.1452 223.151 55.9595 222.805 56.1007C222.174 55.5098 221.548 54.9113 220.934 54.301C219.632 53.008 218.311 51.6782 216.999 50.32C217.283 50.0792 217.17 49.7459 217.436 49.4903C217.702 49.2354 218.226 49.0944 218.538 48.8575C219.324 48.2615 219.976 47.3931 220.447 46.5385C221.225 45.1264 222.231 42.1642 219.958 41.4912C217.614 40.7964 216.425 43.6478 216.274 45.4306C216.245 45.776 216.508 48.8879 216.709 50.0179C214.281 47.4938 211.894 44.8749 209.731 42.2104C210.387 42.2044 212.246 40.8816 212.622 40.5207C213.539 39.6402 214.997 37.6949 213.389 36.6654C211.959 35.7523 210.197 37.0748 209.586 38.3601C209.485 38.5718 209.131 40.5416 209.103 41.4255C208.208 40.2956 207.354 39.159 206.559 38.0188C206.03 37.2608 205.534 36.4827 205.071 35.6881C205.183 35.6258 205.288 35.5173 205.387 35.3824C207.771 34.984 210.811 31.3213 208.01 30.0469C206.677 29.441 205.231 30.6918 204.577 31.7159C204.444 31.9254 204.227 32.9787 204.05 33.8096C202.718 31.1771 201.699 28.3902 200.924 25.5327C201.131 25.482 201.307 25.3259 201.33 25.0573C202.488 24.4076 203.402 23.8666 204.211 22.6171C204.713 21.8411 205.617 20.068 204.142 19.6373C202.222 19.0768 201.016 21.9635 200.859 23.3854C200.84 23.5504 200.841 24.0305 200.847 24.4704C200.781 24.4614 200.713 24.4624 200.647 24.4739C200.206 22.7045 199.854 20.9124 199.575 19.1172C200.622 18.7852 200.804 13.3677 200.106 12.5963C198.546 10.869 197.446 13.3641 197.529 14.6828C197.628 16.2377 198.344 17.6521 199.196 18.9074C199.287 19.0403 199.261 19.0339 199.285 18.8487C199.298 18.9402 199.329 19.0078 199.375 19.0567C199.331 19.8752 199.245 20.7132 199.287 21.4374C199.405 23.5115 199.65 25.5976 200.006 27.645C200.093 28.143 200.192 28.6368 200.304 29.1265C199.461 28.4201 198.326 27.7925 197.881 27.5962C196.728 27.0874 194.951 26.5379 193.805 27.4ZM251.811 99.4014C251.757 100.125 251.625 100.787 251.377 101.333C251.563 100.711 251.705 100.065 251.811 99.4014Z" fill="#86A06A"/>
<g opacity="0.7">
<path fill-rule="evenodd" clip-rule="evenodd" d="M226.959 66.2372C231.469 66.0068 237.047 68.5985 237.528 73.4248C237.878 76.9316 237.769 80.4282 238.31 83.9297C238.743 86.7282 239.658 89.4145 240.905 91.9636C242.105 94.4148 244.594 96.5014 245.241 99.1201C245.654 100.789 245.423 103.136 244.854 104.768C244.162 106.752 244.53 106.595 245.908 108.261C248.61 111.524 251.042 114.87 252.762 118.767C255.24 124.38 256.865 130.942 255.945 137.086C255.828 137.866 255.689 140.666 254.598 140.862C253.379 141.081 253.949 139.48 254.014 138.962C254.429 135.662 254.797 132.776 254.297 129.424C252.367 116.49 242.941 107.968 236.804 96.9904C236.467 96.4243 235.754 95.0763 235.259 94.1869C234.477 92.7829 233.691 90.1112 232.633 89.0701C230.64 87.1088 232.472 91.0518 232.861 91.8045C233.352 92.7567 233.892 93.7687 234.395 94.603C236.698 98.4704 239.268 102.692 241.646 106.679C231.361 108.986 224.118 96.813 221.357 88.8102C219.083 82.2168 216.363 66.8014 226.959 66.2372Z" fill="#174A41"/>
<path fill-rule="evenodd" clip-rule="evenodd" d="M287.409 53.993C279.869 54.5819 275.029 59.4797 272.776 66.3301C271.561 70.0218 271.422 73.8143 270.747 77.6081C269.732 83.316 267.548 87.6415 263.279 91.7081C261.957 92.9675 260.983 94.2606 260.29 95.644C258.915 97.0253 257.718 98.5883 256.839 100.499C255.716 102.94 255.398 105.868 256.695 108.301C257.043 108.955 257.913 110.268 258.815 110.865C255.439 117.942 253.583 125.692 253.793 133.433C253.919 138.106 254.151 142.78 254.421 147.447C254.494 148.7 254.908 150.77 255.531 148.668C256.101 146.746 255.386 143.728 255.32 141.72C254.998 131.937 254.723 123.042 258.814 113.902C259.243 112.944 259.698 111.994 260.172 111.051C260.199 111.035 260.225 111.016 260.251 110.997C260.269 111.011 260.286 111.026 260.304 111.039C260.334 110.986 260.376 110.923 260.424 110.852C260.56 110.714 260.678 110.54 260.791 110.345C261.154 109.85 261.565 109.269 261.567 108.95C261.567 108.948 261.565 108.944 261.565 108.942C264.098 104.872 266.998 101.027 269.961 97.2566C269.939 97.284 273.175 92.9467 272.674 95.3453C272.433 96.5012 270.053 98.7025 269.092 99.9269C266.965 102.651 264.468 106.102 262.393 109.44C262.114 109.598 261.719 110.373 261.434 110.951C261.277 111.244 261.13 111.539 260.985 111.796C268.338 114.187 274.057 109.37 277.957 103.767C277.962 103.76 277.966 103.754 277.971 103.747C279.158 102.199 280.373 100.661 281.892 99.4376C284.426 97.3954 287.14 97.0351 290.128 96.0301C298.276 93.2895 301.74 82.8941 302.84 75.1807C304.082 66.4787 298.01 53.135 287.409 53.993Z" fill="#174A41"/>
<path fill-rule="evenodd" clip-rule="evenodd" d="M272.516 29.6239C264.777 37.5524 261.039 48.5494 258.079 58.8877C254.772 70.4345 252.589 82.1594 252.505 94.1646C252.45 102.052 252.232 109.989 252.699 117.867C252.865 120.665 253.149 123.468 253.599 126.236C253.636 126.463 254.644 132.643 255.608 131.203C256.157 130.384 254.575 124.792 254.456 123.861C253.784 118.615 253.627 113.33 253.66 108.046C253.714 99.3463 253.454 90.691 254.349 82.0232C254.483 80.729 254.588 79.3698 254.901 78.1037C255.232 76.7578 254.81 77.3453 255.89 76.8125C256.939 76.2944 258.236 76.3684 259.325 75.7186C263.643 73.1405 265.852 66.5185 267.572 62.1736C269.538 57.205 270.734 51.9066 271.688 46.6778C272.389 42.8361 272.891 39.0177 273.174 35.1265C273.264 33.9001 273.269 32.6177 273.514 31.4118C273.58 31.0865 273.911 30.5111 273.899 30.2231C273.873 29.6134 273.499 29.2549 273.469 28.7426C273.145 29.0296 272.827 29.3235 272.516 29.6239Z" fill="#174A41"/>
<path fill-rule="evenodd" clip-rule="evenodd" d="M230.321 135.259C230.321 148.371 241.119 159 254.437 159C267.756 159 278.554 148.371 278.554 135.259" fill="#174A41"/>
<path fill-rule="evenodd" clip-rule="evenodd" d="M256.373 135.334H255.098C255.187 133.76 255.303 132.189 255.571 130.633C256.593 124.68 259.789 115.938 266.8 114.972C267.058 114.936 268.01 114.93 269.162 114.996C269.708 114.696 270.32 114.514 270.965 114.472C276.933 114.039 283.599 118.779 286.478 123.712C288.799 127.69 288.408 132.912 286.974 137.138C286.014 139.967 283.919 144 280.425 144.039C276.054 144.089 275.843 138.77 275.758 135.661C275.646 131.527 275.116 127.926 271.807 125.108C271.036 124.452 270.193 123.874 269.414 123.227C268.194 122.214 266.846 121.177 266.689 119.501C266.472 117.188 267.798 116.772 269.823 117.202C270.168 117.275 273.644 118.81 273.129 117.597C272.972 117.226 272.398 116.932 271.674 116.712C269.799 116.511 267.564 116.278 266.921 116.417C259.985 117.915 257.284 127.374 256.567 133.383C256.49 134.032 256.427 134.683 256.373 135.334Z" fill="#174A41"/>
</g>
</g>
<path opacity="0.2" fill-rule="evenodd" clip-rule="evenodd" d="M94.9075 22.6869C95.691 22.2984 96.7355 22.749 96.2997 23.776C95.833 24.8758 94.1074 24.8894 93.1329 24.8676C93.2304 24.8625 93.5445 23.8539 93.652 23.7015C93.9692 23.252 94.4258 22.9262 94.9075 22.6869ZM85.8862 42.7264C85.8637 42.7486 85.6095 42.963 85.8862 42.7264ZM95.8181 27.7932C96.2866 28.1478 96.3086 28.7742 95.9256 29.1984C95.4694 29.7034 94.637 29.6855 94.0157 29.6366C93.7346 29.6145 92.2338 29.4962 92.5897 29.2528C92.5623 29.2631 92.5052 29.2879 92.444 29.3217C92.411 29.4408 92.3764 29.5595 92.3403 29.6777C92.3491 29.6828 92.3567 29.6883 92.3661 29.6934C92.3559 29.689 92.3487 29.6842 92.3397 29.6797C91.9782 30.8608 91.4639 31.9855 90.7906 33.0379C91.0424 32.9396 91.3031 32.8652 91.5675 32.8319C92.3505 32.7335 93.9973 33.3352 93.121 34.3681C92.2807 35.3583 90.9739 34.2971 90.0209 34.1512C89.0958 35.4294 88.0759 36.6545 87.0071 37.8386C87.0726 37.8589 87.13 37.9012 87.1629 37.967C87.5915 37.7515 88.0382 37.4432 88.4348 37.3597C89.0072 37.2392 90.1807 37.1658 90.613 37.6728C91.1446 38.2964 90.5741 38.8033 89.9455 38.9233C89.0341 39.0973 87.8412 38.6569 86.9644 38.3594C86.8641 38.377 86.7546 38.348 86.6892 38.2685C86.6699 38.2623 86.6505 38.2561 86.6316 38.2501C85.5493 39.4285 84.4257 40.568 83.3088 41.6826C83.3207 41.682 83.3326 41.6813 83.345 41.6806C83.6363 41.4913 83.9487 41.336 84.2873 41.2545C85.0705 41.0651 85.9919 41.0637 86.6272 41.6246C87.26 42.183 87.4837 43.1602 86.8285 43.788C85.5169 45.0446 83.5869 42.1819 82.9257 42.0627C81.7908 43.1834 80.5907 44.2307 79.3719 45.2568C79.5103 45.215 79.6522 45.1843 79.7988 45.1704C80.9936 45.0565 83.797 46.5056 82.3301 47.9335C81.0518 49.1778 79.5742 46.7849 78.545 45.9483C77.3964 46.9047 76.2417 47.8545 75.1193 48.8413C75.7312 48.6801 76.3226 48.6561 76.9784 48.8521C77.6571 49.0552 78.752 49.5621 78.3225 50.4699C77.8856 51.3931 76.5706 50.9738 75.8858 50.6811C75.5123 50.5215 74.7635 49.9825 74.1059 49.7556C72.3148 51.4304 70.7632 53.2748 69.5881 55.4473C68.8545 56.8037 68.2976 58.2528 67.9054 59.742C67.655 60.6926 67.1619 62.2891 67.2598 63.5261C66.7913 61.0502 67.6423 58.0759 68.5585 55.8622C69.4009 53.8267 70.6611 52.0394 72.1368 50.4305C71.7672 49.3282 68.6527 47.7396 70.5156 46.7144C71.5049 46.1723 72.5174 47.0704 72.7331 48.0221C72.8812 48.676 72.6546 49.4979 72.4142 50.1328C72.8784 49.6424 73.361 49.1677 73.8582 48.7087C74.5454 48.0744 75.2491 47.4584 75.9594 46.8502C74.7899 45.7622 73.6841 42.6506 75.2532 42.1408C77.5703 41.3902 76.4526 45.6359 76.2906 46.4316C76.2447 46.4343 76.209 46.4205 76.1827 46.3911C76.1957 46.464 76.2108 46.5419 76.229 46.6205C77.5887 45.4625 78.9684 44.3272 80.3028 43.1416C80.1826 43.0537 79.9918 42.7177 79.8417 42.5389C79.5031 42.1358 79.1791 41.7147 78.9425 41.243C78.5686 40.4977 78.2082 39.3087 79.2005 38.8697C80.2797 38.3913 80.7918 39.7361 80.7989 40.5384C80.8037 41.0933 80.6508 41.6205 80.5711 42.1645C80.5461 42.3341 80.6414 43.0987 80.4083 42.7699C80.4192 42.8912 80.4207 42.979 80.4152 43.0413C80.6548 42.8274 80.8925 42.6111 81.1287 42.3933C81.1178 42.3659 81.1097 42.3359 81.1079 42.3011C81.0954 42.062 81.3385 41.9697 81.5089 42.0397C81.8206 41.7463 82.1292 41.4493 82.4323 41.1463C83.0748 40.5045 83.7267 39.8444 84.374 39.1702C84.2337 39.0509 84.2896 38.8855 84.1584 38.7587C84.0274 38.6323 83.7693 38.5625 83.6152 38.445C83.2278 38.1495 82.9065 37.7189 82.6743 37.295C82.2909 36.5946 81.7956 35.1252 82.917 34.7908C84.0728 34.4455 84.6587 35.8599 84.7325 36.7443C84.7469 36.9156 84.6166 38.4596 84.5171 39.0203C85.7149 37.7674 86.893 36.4675 87.9604 35.145C87.637 35.1422 86.7203 34.4864 86.535 34.3074C86.0829 33.8708 85.3644 32.906 86.1576 32.3949C86.863 31.9415 87.7318 32.5972 88.033 33.2348C88.0825 33.3397 88.2567 34.317 88.2701 34.7554C88.7119 34.1946 89.1334 33.6306 89.5255 33.0647C89.787 32.6884 90.0314 32.3023 90.2601 31.9079C90.2051 31.8771 90.1534 31.8233 90.1046 31.7564C88.9287 31.5593 87.4303 29.7429 88.8119 29.11C89.4698 28.809 90.1827 29.4292 90.5046 29.9371C90.5705 30.041 90.6772 30.5635 90.7639 30.9757C91.4219 29.6693 91.925 28.2864 92.308 26.8685C92.2056 26.8434 92.119 26.766 92.1076 26.6328C91.5368 26.3107 91.0861 26.0426 90.6879 25.4229C90.4404 25.038 89.995 24.1585 90.7226 23.9445C91.6696 23.6659 92.2636 25.0978 92.3407 25.8032C92.3496 25.8851 92.3492 26.1232 92.346 26.3415C92.3788 26.337 92.4121 26.3375 92.4447 26.3432C92.6626 25.4652 92.8366 24.576 92.9751 23.6853C92.4584 23.5209 92.3704 20.8331 92.7147 20.4502C93.4842 19.5929 94.0262 20.8305 93.9848 21.4848C93.9359 22.2562 93.5825 22.9581 93.1619 23.5811C93.1168 23.6471 93.1297 23.6439 93.118 23.552C93.1115 23.5974 93.0962 23.631 93.0734 23.6552C93.0949 24.0613 93.137 24.477 93.1165 24.8363C93.0578 25.8654 92.9362 26.9004 92.7599 27.9163C92.7171 28.1634 92.668 28.4084 92.613 28.6514C93.0285 28.3007 93.5887 27.989 93.8079 27.8916C94.3768 27.6388 95.2534 27.3658 95.8181 27.7932ZM67.1668 63.4284C67.1942 63.759 67.2758 64.0608 67.4363 64.308C67.3185 64.0254 67.2301 63.7311 67.1668 63.4284Z" fill="#174A41"/>
<g opacity="0.5">
<path fill-rule="evenodd" clip-rule="evenodd" d="M87.7687 56.3806C88.7064 55.0435 90.4465 51.6478 91.7663 51.1701C92.6164 50.8623 92.3685 54.0455 92.379 54.6525C92.4199 57.0008 92.1913 59.3341 91.909 61.6627C91.4003 65.8622 89.7372 69.6022 87.4561 73.1764C86.2822 75.0156 84.9054 76.8771 82.9985 78.0246C82.1207 78.5531 81.0646 78.6416 80.1977 79.0969C79.1881 79.6269 79.738 79.1984 79.283 80.2505C78.6511 81.711 78.4491 83.5954 78.1567 85.1539C76.8144 92.3083 73.5648 130.128 74.1282 137.406C74.1782 138.051 73.2788 138.205 73.2339 137.417C72.9952 133.242 75.0603 104.328 76.1022 94.8726C77.144 85.417 78.1984 77.0634 79.2555 73.792C80.538 69.8231 82.8543 65.0503 84.7824 61.3492C85.678 59.6297 86.6543 57.9695 87.7687 56.3806Z" fill="#A0BB81"/>
<path fill-rule="evenodd" clip-rule="evenodd" d="M94.7286 102.757C97.1686 100.965 99.8098 104.346 97.6018 106.138C96.3811 107.128 95.1051 106.776 94.3867 105.95C93.9203 106.519 93.4838 107.113 93.0644 107.615C91.7865 109.145 90.5788 110.712 89.4245 112.314C87.0266 115.644 84.9718 119.162 82.8232 122.616C80.7029 126.025 78.5995 129.451 76.6777 132.946C75.0496 135.907 72.8796 139.39 72.3222 142.637C73.1679 135.752 76.3771 129.134 80.1986 123.065C83.989 117.046 88.339 110.472 94.208 105.721C93.6106 104.843 93.5941 103.589 94.7286 102.757Z" fill="#174A41"/>
<path fill-rule="evenodd" clip-rule="evenodd" d="M48.4269 85.9658C49.7924 86.2329 52.0235 89.3217 53.149 90.4986C54.4866 91.8972 55.7002 93.3878 56.8441 94.9497C59.3067 98.3114 61.5091 101.886 63.3819 105.613C66.435 111.689 68.8809 117.927 70.6561 124.544C71.7427 128.594 72.4462 132.792 72.8632 136.961C72.9419 137.747 73.7662 143.809 72.5785 143.972C71.5102 144.119 71.8402 139.369 71.7886 138.723C71.2061 131.434 69.4609 124.342 67.0335 117.472C66.5047 115.976 66.0135 114.142 65.1679 112.796C64.559 111.826 65.1636 112.164 64.0934 111.797C63.1746 111.481 62.1277 111.558 61.1867 111.172C59.1426 110.334 57.5059 108.707 56.0712 107.07C53.283 103.889 51.0735 100.447 49.9218 96.3708C49.2829 94.1106 48.6958 91.8373 48.37 89.5073C48.2857 88.9051 47.5474 85.7939 48.4269 85.9658Z" fill="#A0BB81"/>
<path fill-rule="evenodd" clip-rule="evenodd" d="M53.8153 34.5735C58.9586 43.4934 63.1852 53.2916 65.9143 63.2158C67.5679 69.2287 68.7242 75.3988 69.8732 81.5244C71.6521 91.0091 73.3348 100.493 73.8134 110.146C74.2949 119.855 75.2472 131.054 72.0679 140.405C73.656 130.911 72.1441 120.805 71.8764 111.252C71.7484 106.691 71.3777 102.175 70.8914 97.6415C70.4195 93.2434 69.6486 88.8662 68.9306 84.5027C68.5809 82.3776 68.2136 80.2557 67.8397 78.1349C67.728 77.5022 67.6809 75.6247 67.2795 75.1924C66.8755 74.7573 64.8145 74.58 64.1674 74.2607C62.8644 73.6177 61.6387 72.7044 60.554 71.7393C58.4745 69.8893 56.6655 67.4721 55.2377 65.0893C51.934 59.5758 50.6133 52.8473 50.68 46.462C50.6928 45.2222 52.6866 31.8722 51.8859 31.6883C51.9341 31.6319 51.9797 31.5736 52.0227 31.5129C52.6289 32.528 53.2238 33.5498 53.8153 34.5735Z" fill="#174A41"/>
<path fill-rule="evenodd" clip-rule="evenodd" d="M109.329 66.7439C109.408 66.6294 109.925 65.8333 109.665 65.8842C110.194 65.7806 108.936 66.7622 110.256 66.1599C109.629 66.7516 109.991 67.5202 109.999 68.3166C110.013 69.6095 109.797 70.8918 109.553 72.157C109.168 74.1569 108.595 76.1014 107.763 77.9615C105.95 82.0152 102.87 85.9175 99.2147 88.4519C97.4099 89.7031 95.6412 90.1292 93.5829 90.7052C92.2828 91.0691 92.1797 91.7417 91.4896 93.0033C90.0529 95.6309 88.6417 98.2491 87.3746 100.965C85.8617 104.209 84.3929 107.456 83.0075 110.757C78.3402 121.875 74.5415 133.394 72.5465 145.314C72.4976 138.289 74.1227 131.054 76.1726 124.359C77.6658 119.48 79.6096 114.778 81.683 110.123C82.1854 108.995 82.9467 107.544 83.1601 106.299C83.3095 105.427 82.8527 104.588 82.6436 103.669C81.8283 100.09 81.8867 96.0812 82.6026 92.4835C83.392 88.5163 85.6748 86.675 89.5364 86.1131C90.9487 85.9076 92.7437 85.9829 94.0387 85.3807C95.4496 84.725 96.0316 82.5696 96.8338 81.186C98.9887 77.4693 101.549 73.9048 104.489 70.7732C105.303 69.906 106.178 69.106 107.107 68.3645C107.693 67.8966 108.93 67.3202 109.329 66.7439Z" fill="#174A41"/>
<path fill-rule="evenodd" clip-rule="evenodd" d="M66.0278 137.727H79.7324C80.3486 137.727 80.8481 138.227 80.8481 138.843C80.8481 138.897 80.8441 138.952 80.8362 139.006L79.7769 146.188C79.454 148.378 77.5751 150 75.3619 150H70.3984C68.1851 150 66.3062 148.378 65.9833 146.188L64.9241 139.006C64.8342 138.396 65.2555 137.829 65.8651 137.739C65.9189 137.731 65.9734 137.727 66.0278 137.727Z" fill="#174A41"/>
</g>
<g clip-path="url(#clip1_287_1132)">
<path fill-rule="evenodd" clip-rule="evenodd" d="M67.324 205.089C68.7984 204.909 70.372 204.973 71.7432 205.552C74.6588 206.785 75.4876 210.215 75.4476 213.004C75.4045 216.005 74.7646 219.283 77.0556 221.701C78.1087 222.812 79.4187 223.663 80.4528 224.795C81.5578 226.005 82.4248 227.389 83.0667 228.876C84.2454 231.606 84.8239 234.817 83.7461 237.681C82.797 240.202 80.4094 242.478 80.9253 245.346C81.4635 248.337 84.4916 250.624 86.3848 252.852C88.5274 255.373 90.5001 258.596 90.8242 261.902C91.135 265.071 89.7499 268.276 87.6244 270.672C83.3775 275.458 76.9939 277.804 70.5572 277.79C67.8243 277.784 64.7302 277.661 62.3718 276.198C61.6429 275.746 61.2584 275.239 60.825 274.534C60.4365 273.901 59.9233 273.49 59.3293 273.043C58.0242 272.06 57.0817 270.736 56.4802 269.253C54.1445 263.495 56.0114 256.372 59.2808 251.259C60.0555 250.048 60.6898 248.882 60.3134 247.438C59.9207 245.931 58.9554 244.571 58.1016 243.275C57.258 241.995 56.2948 240.773 55.6354 239.389C54.9448 237.939 54.7503 236.42 54.8723 234.832C55.1017 231.851 56.3941 229.099 58.2238 226.701C59.9862 224.392 62.0555 222.182 62.0602 219.155C62.0653 215.948 59.9121 213.094 60.8294 209.833C61.2092 208.483 61.9721 207.097 63.2015 206.288C64.3805 205.512 65.9373 205.257 67.324 205.089Z" fill="#87A06A"/>
<path fill-rule="evenodd" clip-rule="evenodd" d="M66.3606 210.217C66.3882 209.786 66.9013 209.527 67.3052 209.64C67.8369 209.788 67.8267 210.283 67.8126 210.723C67.7696 212.078 67.9665 213.395 68.2935 214.71C68.9732 217.443 70.2294 219.961 71.2245 222.587C72.2189 225.21 72.6856 227.918 72.1023 230.694C71.5524 233.311 70.6885 235.861 70.1258 238.481C69.6298 240.791 69.102 243.226 69.8573 245.53C70.5842 247.748 72.1912 249.554 73.3484 251.558C75.7438 255.706 76.8066 260.308 76.9487 265.044C77.0146 267.243 76.9553 269.463 76.443 271.62C76.1481 272.862 75.7519 274.54 74.6832 275.398C74.1904 275.793 73.3476 275.93 72.9329 275.344C72.5435 274.795 72.8851 273.945 73.0087 273.359C73.5441 270.825 73.6518 268.236 73.5236 265.663C73.3995 263.17 73.1039 260.682 72.3162 258.302C71.5852 256.093 70.4746 254.109 69.1676 252.176C67.8357 250.207 66.4511 248.234 65.9008 245.9C65.3416 243.531 65.7959 241.119 66.4033 238.795C67.0456 236.336 67.887 233.948 68.7568 231.556C69.6045 229.225 69.9049 227.019 69.437 224.58C68.5126 219.76 66.0382 215.236 66.3606 210.217Z" fill="#3E7048"/>
<path fill-rule="evenodd" clip-rule="evenodd" d="M106.253 210.937C108.078 211.489 109.89 212.379 111.191 213.775C113.956 216.743 113.108 221.229 111.581 224.506C109.938 228.033 107.447 231.578 108.851 235.625C109.496 237.485 110.581 239.17 111.194 241.044C111.847 243.048 112.13 245.134 112.094 247.224C112.027 251.064 111.002 255.161 108.217 257.99C105.766 260.48 101.758 261.935 100.841 265.593C99.8845 269.409 102.223 273.683 103.261 277.299C104.435 281.39 105.039 286.224 103.664 290.302C102.347 294.21 99.0215 297.283 95.2572 299.015C87.7357 302.475 79.003 301.942 71.4611 298.59C68.2591 297.167 64.6952 295.419 62.7053 292.467C62.0903 291.555 61.9084 290.756 61.7744 289.697C61.6543 288.748 61.2706 287.996 60.8113 287.159C59.802 285.321 59.3995 283.267 59.4808 281.202C59.7972 273.182 65.7673 265.725 72.3157 261.372C73.8673 260.341 75.2299 259.291 75.5548 257.388C75.8941 255.402 75.4835 253.294 75.1697 251.32C74.8598 249.368 74.3784 247.424 74.3398 245.445C74.2995 243.372 74.8775 241.476 75.863 239.662C77.7145 236.254 80.6906 233.67 84.1093 231.782C87.4023 229.964 91.0023 228.422 92.6139 224.845C94.3222 221.055 93.3111 216.565 96.1178 213.183C97.2799 211.783 98.91 210.54 100.782 210.219C102.577 209.912 104.537 210.418 106.253 210.937Z" fill="#87A06A"/>
<path fill-rule="evenodd" clip-rule="evenodd" d="M102.526 217.205C102.785 216.71 103.521 216.672 103.934 217.016C104.478 217.468 104.206 218.049 103.958 218.564C103.195 220.146 102.733 221.808 102.424 223.535C101.781 227.127 101.926 230.765 101.709 234.393C101.492 238.019 100.613 241.47 98.4717 244.453C96.4524 247.265 94.1016 249.833 92.0655 252.643C90.271 255.119 88.373 257.728 88.0448 260.85C87.7286 263.856 88.6579 266.833 88.9572 269.811C89.5767 275.974 88.3992 281.978 86.0749 287.661C84.9954 290.3 83.7589 292.897 82.0256 295.184C81.0277 296.501 79.6817 298.282 77.9812 298.74C77.197 298.951 76.1396 298.673 75.9625 297.763C75.796 296.909 76.6426 296.08 77.095 295.452C79.0536 292.73 80.5414 289.72 81.7446 286.606C82.9102 283.589 83.8729 280.488 84.2037 277.258C84.5105 274.261 84.2553 271.332 83.7431 268.361C83.2213 265.334 82.64 262.274 83.2236 259.224C83.816 256.125 85.6152 253.507 87.5479 251.071C89.5919 248.495 91.8316 246.106 94.1067 243.727C96.3236 241.409 97.8348 238.954 98.5705 235.821C100.024 229.63 99.5099 222.981 102.526 217.205Z" fill="#3E7048"/>
<path fill-rule="evenodd" clip-rule="evenodd" d="M49.8487 233.706C52.8825 233.706 55.5497 235.307 57.3876 237.58C59.539 240.241 59.9736 243.49 60.8472 246.66C61.2819 248.238 62.0296 249.805 63.3398 250.877C64.5316 251.852 66.0445 252.047 67.4709 252.523C70.3217 253.475 72.6237 255.769 73.5328 258.567C74.642 261.98 73.4672 265.422 73.6695 268.882C73.8552 272.058 77.0002 274.04 79.5307 275.563C82.0258 277.065 84.2736 278.47 85.0251 281.396C85.822 284.499 86.0893 287.962 84.9855 291.027C83.1479 296.13 77.7697 298.377 72.573 298.726C67.8568 299.042 61.9267 298.546 58.3849 295.136C56.2655 293.096 55.498 290.243 55.5932 287.404C55.6524 285.638 56.0035 283.889 56.4575 282.184C56.7793 280.974 57.214 279.771 57.3378 278.521C57.667 275.197 54.5822 274.559 51.9564 273.646C48.6197 272.486 46.2838 270.295 44.6594 267.243C43.1467 264.401 42.512 261.211 43.4188 258.082C43.882 256.485 44.722 255.035 45.8613 253.802C46.3628 253.26 47.0696 252.807 47.5222 252.237C47.9447 251.705 47.8528 251.015 47.7072 250.391C47.0339 247.511 44.9363 245.125 44.1861 242.25C43.5089 239.655 43.9093 236.425 46.2918 234.75C47.3211 234.027 48.5905 233.714 49.8487 233.706Z" fill="#3E7048"/>
<path fill-rule="evenodd" clip-rule="evenodd" d="M53.9826 241.211C57.1982 244.622 58.0722 249.251 58.3287 253.736C58.4724 256.252 58.3228 258.905 59.0649 261.345C59.6998 263.433 61.1883 265.03 62.7226 266.538C65.8112 269.576 69.2556 272.663 70.1589 277.059C70.689 279.638 70.3312 282.303 71.0636 284.854C71.7296 287.173 72.9021 289.451 74.3284 291.409C75.4767 292.986 76.9727 294.193 78.228 295.663C78.611 296.112 79.1596 296.772 79.0015 297.406C78.8166 298.148 77.8678 298.382 77.1946 298.266C75.6251 297.994 74.3039 296.502 73.2777 295.416C71.7771 293.83 70.5019 292.123 69.4655 290.209C68.3149 288.083 67.3884 285.827 66.9926 283.442C66.5818 280.967 66.7863 278.389 65.8483 276.014C64.2698 272.018 60.4413 269.66 57.6733 266.546C54.2246 262.665 54.7389 257.835 55.0922 253.061C55.2862 250.438 55.4791 247.475 54.1481 245.08C53.64 244.166 52.5072 243.314 52.2887 242.274C52.0886 241.322 53.1807 240.36 53.9826 241.211Z" fill="#174A41"/>
<path fill-rule="evenodd" clip-rule="evenodd" d="M57.4117 297.269C57.4119 316.778 60.6087 327 77.4853 327C94.3619 327 97.5587 316.778 97.5588 297.269H57.4117Z" fill="#174A41"/>
</g>
<defs>
<clipPath id="clip0_287_1132">
<rect width="111" height="147" fill="white" transform="translate(192 12)"/>
</clipPath>
<clipPath id="clip1_287_1132">
<rect width="70" height="122" fill="white" transform="translate(43 205)"/>
</clipPath>
</defs>
</svg>
