<svg width="130" height="69" viewBox="0 0 130 69" fill="none" xmlns="http://www.w3.org/2000/svg">
<path opacity="0.3" d="M88.6621 12.619C89.0424 12.6143 89.4147 12.577 89.7892 12.5535C90.2279 12.6833 90.6623 12.8393 91.0809 13.0373C93.3526 14.1907 94.9951 15.5045 97.5679 14.3002C101.3 12.5623 104.533 9.09507 108.606 8.10964C107.696 7.12117 105.913 6.86042 104.696 6.68353C100.264 5.98485 96.1086 6.92995 92.4951 9.52676C91.2855 10.396 89.9945 11.4082 88.5345 11.8435C86.256 11.8232 84.2384 11.3545 81.9924 10.835C79.9602 9.55562 77.995 8.16666 76.0659 6.72108C74.2327 4.36238 72.3033 2.07277 70.2946 -0.11372C65.1586 -5.70134 59.3854 -10.6699 53.2579 -15.1382C53.8444 -14.9841 54.4273 -14.8351 55.0015 -14.6875C57.6341 -13.9931 60.3033 -13.44 62.986 -12.9428C63.486 -12.3965 63.9478 -11.8074 64.4579 -11.2684C67.0206 -8.67418 70.5764 -7.39992 74.2164 -7.32202C80.0213 -7.21123 85.5673 -9.20142 91.3398 -9.76575C90.6239 -10.5483 89.3431 -11.017 88.4382 -11.5179C83.8101 -14.0707 78.6218 -17.2108 73.205 -17.401C70.2619 -17.4809 67.5592 -16.3828 64.9947 -15.0387C64.3285 -14.7057 63.6489 -14.2097 62.9362 -13.8664C60.8972 -14.2582 58.8674 -14.6798 56.849 -15.171C54.7785 -15.6707 52.6961 -16.5073 50.6138 -17.0447C49.9597 -17.4956 49.3071 -17.9552 48.6516 -18.3974C41.8123 -22.9912 34.1398 -27.6232 26.1058 -29.6931C25.7462 -29.7877 25.6282 -29.2577 25.9293 -29.1057C32.1453 -25.8599 38.4296 -23.0315 44.4501 -19.4916C48.7205 -14.6173 51.3313 -7.65239 52.9398 -0.811395C52.7981 -0.46396 52.6128 -0.123649 52.4784 0.233908C52.0417 1.29218 51.9224 2.37563 51.6814 3.49275C51.3076 5.25794 50.5437 6.89675 50.4518 8.71256C50.2552 11.1409 51.1655 13.027 52.3697 15.0549C53.4637 16.855 53.7835 18.966 54.8254 20.7575C55.67 18.9533 56.0727 16.8758 56.6084 14.9942C57.382 12.3969 58.1082 9.73376 57.8859 7.00021C57.6606 3.73924 55.8549 1.62171 54.013 -0.738418C53.5323 -2.6033 52.9416 -4.45047 52.2661 -6.29813C52.1245 -6.68749 51.9792 -7.08191 51.8302 -7.4814C52.5475 -6.46195 53.3334 -5.50717 54.2112 -4.5954C54.5151 -3.9696 54.6773 -3.24196 54.9964 -2.62707C56.1177 -0.447439 57.7252 2.28067 59.6885 3.7631C62.3083 5.81743 65.5155 8.53949 68.7118 9.52717C68.1897 8.10652 68.0121 6.54577 67.6688 5.09635C66.2346 -1.11775 60.8277 -2.40479 55.5757 -4.25593C55.1987 -4.59897 54.8101 -4.92604 54.4483 -5.27999C53.0178 -6.66181 52.0675 -8.35797 50.8836 -9.9093C49.6352 -12.9493 48.0817 -16.0615 46.0228 -18.542C46.631 -18.1656 47.2406 -17.7978 47.846 -17.404C54.8837 -12.8224 61.3661 -7.41179 67.2863 -1.45911C69.9945 2.86476 70.5767 8.80093 70.9317 13.8336C70.8147 14.194 70.6816 14.5429 70.5565 14.8707C69.1238 18.4943 67.2587 21.9222 65.9609 25.5947C63.7058 31.9505 66.8248 38.0207 68.5132 44.1826C69.5079 42.1707 70.1855 39.9953 71.202 38.0139C72.4312 35.634 74.0368 33.4364 74.7276 30.7987C75.4284 28.1002 75.0848 25.2619 74.596 22.5741C73.9548 19.2897 72.866 15.8204 71.5947 12.6204C71.2759 8.56709 70.6832 3.75896 68.7432 0.0341907C75.371 6.92883 81.0281 14.8434 84.9927 23.4678C84.891 25.1526 84.5428 26.7612 84.062 28.3347C83.8434 28.6606 83.6052 28.9699 83.3278 29.246C82.4956 30.0743 81.3944 30.5817 80.4916 31.3226C79.0627 32.4953 77.5198 33.819 76.6508 35.4719C75.975 36.7634 75.6684 38.227 75.553 39.6684C75.4306 41.2068 75.1713 42.7362 75.0664 44.2775C75.0053 45.1963 74.8494 46.1755 74.8919 47.089C75.4676 46.491 76.0687 45.9286 76.6727 45.3487C77.7471 44.3233 78.7822 43.2648 79.8566 42.2395C81.2423 40.9213 82.7049 39.6246 83.8851 38.1164C85.0436 36.6315 85.5411 34.7928 85.4734 32.9151C85.4058 31.3367 85.1789 29.75 84.9925 28.1878C85.2703 27.0366 85.4662 25.8674 85.5621 24.7087C86.9463 27.8736 88.1003 31.1348 88.9822 34.4764C88.8272 35.2325 88.5613 35.9838 88.3351 36.6836C87.1015 40.5095 85.0036 44.1047 84.5429 48.1732C84.151 51.4403 85.1952 54.2816 86.3572 57.2762C87.3353 59.812 88.1785 62.79 89.6812 65.0946C89.8103 63.4055 90.8189 61.6906 91.4746 60.1681C93.7774 54.7756 96.0127 49.0864 94.7835 43.147C93.9924 39.387 92.043 36.4288 89.9688 33.4144C87.6034 24.6231 83.2452 16.4121 77.8126 8.98078C81.4863 11.9355 85.6735 14.3447 90.073 16.2482C90.5249 16.7063 90.9696 17.1542 91.3681 17.6659C93.4649 20.2419 94.9693 22.3995 98.326 23.4715C103.06 24.9966 108.159 23.7728 112.903 25.0451C112.118 24.1663 111.242 23.3531 110.467 22.4135C109.209 20.8769 108.115 19.0768 106.383 17.9806C104.59 16.8744 102.841 17.1417 100.877 17.1104C97.9923 17.0267 95.2161 16.282 92.3574 16.0417C91.1765 15.5626 90.0036 15.0625 88.84 14.5326C87.4406 13.8882 86.0787 13.1785 84.7414 12.4282C86.0815 12.6163 87.492 12.5927 88.6743 12.5719L88.6621 12.619Z" fill="#44664B"/>
<path opacity="0.3" d="M29.5079 0.114327C29.5551 0.155943 29.5907 0.221332 29.5566 0.26498C29.323 0.572477 29.0893 0.889209 28.8339 1.17963C28.4366 1.63345 28.0593 2.10061 27.7057 2.58858C27.5934 2.74705 27.4666 2.89413 27.3489 3.05063C27.2366 3.20909 27.1188 3.36558 27.0304 3.53562C26.6688 4.22853 26.2381 4.87199 25.8164 5.52487C25.658 5.76923 25.5015 6.01733 25.3779 6.27718C25.0731 6.90658 24.7683 7.53597 24.5165 8.19048C24.4071 8.48019 24.3105 8.77755 24.2139 9.07491C24.1527 9.26398 24.0535 9.42086 23.9029 9.55636C23.4191 9.99178 23.0991 10.5507 22.7883 11.1097C22.301 11.9904 22.0487 12.9424 21.9195 13.932C21.8646 14.3558 21.8153 14.7817 21.7679 15.202C21.6284 16.4205 21.6275 17.6418 21.8132 18.8615C21.8766 19.284 21.9438 19.7049 22.0314 20.1205C22.1608 20.7496 22.2421 21.3832 22.277 22.0251C22.3065 22.5689 22.3842 23.1082 22.4693 23.6439C22.5772 24.3335 22.6943 25.0233 22.8076 25.7148C22.8223 25.813 22.8388 25.9057 22.8609 26.0004C23.0438 26.819 23.1006 27.6517 23.1613 28.4826C23.1805 28.7158 23.2035 28.9472 23.2265 29.1787C23.3047 29.8732 23.3866 30.5659 23.4611 31.2622C23.4783 31.414 23.4714 31.5728 23.4756 31.7263C23.52 31.7235 23.5715 31.7356 23.5866 31.7193C23.8516 31.4106 24.1166 31.1019 24.3798 30.7895C24.5541 30.5787 24.6956 30.3469 24.8098 30.0961C24.98 29.7226 25.141 29.349 25.313 28.9792C25.4599 28.6626 25.6105 28.3442 25.7702 28.0352C25.9587 27.6713 26.1398 27.311 26.2972 26.9299C26.5463 26.3178 26.8136 25.7154 27.0608 25.0996C27.3139 24.4673 27.5065 23.8134 27.6219 23.1413C27.6598 22.913 27.7052 22.6811 27.7376 22.4508C27.7935 22.0676 27.8531 21.6826 27.898 21.2955C28.0074 20.3702 28.0912 19.4388 28.125 18.5082C28.133 18.294 28.1336 18.0834 28.127 17.8671C28.1121 17.4215 28.0972 16.9758 28.0675 16.5281C28.014 15.7121 27.8862 14.9131 27.6324 14.1282C27.4029 13.4232 27.1267 12.745 26.7743 12.0892C26.5676 11.7117 26.2935 11.3846 26.0625 11.0233C25.8441 10.6788 25.5845 10.3631 25.2985 10.069C25.1375 9.90311 24.9915 9.72089 24.8419 9.54045C24.7644 9.44463 24.7464 9.3297 24.7895 9.20863C24.8424 9.06004 24.8971 8.91519 24.9536 8.77407C25.1871 8.19679 25.4152 7.61756 25.6615 7.04794C25.7819 6.76215 25.917 6.47852 26.0757 6.21569C26.5696 5.37766 27.078 4.55101 27.5791 3.71867C27.7512 3.43579 27.9123 3.14898 28.0843 2.8661C28.3769 2.38427 28.6695 1.90245 28.9693 1.42631C29.0953 1.22933 29.2413 1.04568 29.3926 0.873239C30.0339 0.143548 30.6752 -0.586141 31.3691 -1.26302C31.6066 -1.49468 31.8513 -1.71141 32.1177 -1.91106C32.3673 -2.09813 32.6222 -2.274 32.8718 -2.46107C33.14 -2.65699 33.4189 -2.83052 33.7174 -2.97224C34.0159 -3.11396 34.3092 -3.26687 34.6059 -3.41233C35.0781 -3.64104 35.5573 -3.85482 36.0559 -4.01832C36.4037 -4.13316 36.7343 -4.30379 37.0719 -4.45949C37.1391 -4.49138 37.1903 -4.55685 37.2431 -4.60936C37.2525 -4.6184 37.2588 -4.65338 37.2497 -4.6628C37.2318 -4.69088 37.1994 -4.73036 37.179 -4.72523C36.5246 -4.62035 35.8893 -4.45595 35.2971 -4.14285C34.8694 -3.91692 34.4237 -3.71908 33.9869 -3.50258C33.4792 -3.25242 32.9894 -2.97418 32.5264 -2.6492C32.4307 -2.58094 32.3263 -2.53135 32.2253 -2.47428C31.9189 -2.31055 31.6106 -2.14132 31.2952 -1.98701C30.6999 -1.69984 30.1419 -1.34354 29.5823 -0.990971C28.826 -0.513077 28.068 -0.0389075 27.38 0.534617C26.9307 0.907921 26.4528 1.23999 25.9713 1.56459C25.323 2.00035 24.7182 2.47948 24.1276 2.98848C23.6574 3.39461 23.1547 3.76128 22.6377 4.10733C22.2667 4.35659 21.9119 4.6302 21.5535 4.89634C21.3809 5.024 21.2066 5.14794 20.9993 5.25087C20.7942 5.25222 20.5904 5.18893 20.3845 5.14037C20.0793 5.06577 19.7672 5.05385 19.4578 5.09557C19.0723 5.15051 18.6922 5.21665 18.3103 5.27906C18.2936 5.28241 18.2714 5.28381 18.2527 5.29266C17.5417 5.5479 16.804 5.74717 16.1652 6.17388C15.9404 6.32634 15.7047 6.46565 15.4602 6.5863C14.8965 6.86302 14.4011 7.23539 13.911 7.61895C12.8725 8.4366 11.8935 9.322 10.9852 10.279C10.547 10.7431 10.0871 11.1901 9.72695 11.7223C9.54405 11.992 9.29726 12.2235 9.09609 12.4836C8.67684 13.0164 8.26114 13.5567 7.85644 14.1009C7.76341 14.2228 7.69948 14.3675 7.62827 14.5065C7.25301 15.2379 6.78495 15.8991 6.22213 16.4955C5.86327 16.8762 5.52251 17.2757 5.14006 17.6356C5.05525 17.717 4.96512 17.7872 4.88581 17.8706C4.87442 17.8852 4.89372 17.9355 4.91163 17.9635C4.91694 17.9747 4.95192 17.981 4.96685 17.9739C5.02086 17.9528 5.07665 17.9355 5.12358 17.8995C5.31111 17.7647 5.50414 17.632 5.68459 17.4823C5.82183 17.3668 5.97679 17.2887 6.14592 17.2404C6.37084 17.1748 6.5938 17.1147 6.82208 17.0658C7.49393 16.9206 8.11973 16.6784 8.69826 16.3077C9.04094 16.0856 9.42987 15.9513 9.81152 15.8113C10.3421 15.6188 10.8722 15.4449 11.4201 15.3083C11.812 15.2091 12.1958 15.0544 12.5529 14.8529C12.7734 14.7299 13.0046 14.6293 13.2322 14.5212C13.9807 14.1522 14.7328 13.7906 15.4779 13.4049C15.8925 13.1898 16.2766 12.9297 16.6339 12.6229C17.0628 12.2547 17.5185 11.924 17.9003 11.505C18.2916 11.0769 18.6938 10.6528 19.0597 10.2002C19.3763 9.80753 19.6492 9.38073 19.9239 8.95766C20.2503 8.45066 20.5583 7.93404 20.8719 7.41938C21.1262 7.00144 21.3182 6.55821 21.3855 6.06439C21.3941 6.00543 21.4137 5.9504 21.4302 5.86943C21.5126 5.81199 21.6081 5.75296 21.7019 5.68097C21.9533 5.49764 22.2082 5.32178 22.4469 5.12155C23.3117 4.40012 24.1764 3.6787 25.0285 2.94038C25.4818 2.54684 25.9551 2.17587 26.4212 1.78997C26.6749 1.58267 26.9431 1.38674 27.2131 1.19455C27.7963 0.775941 28.3256 0.28232 28.9214 -0.1194C29.0675 -0.216193 29.2154 -0.309252 29.3651 -0.398581C29.4098 -0.419839 29.4635 -0.422432 29.5248 -0.437809C29.3737 -0.187754 29.1777 -0.00329621 28.9728 0.171747C28.6943 0.413656 28.425 0.664994 28.181 0.940866C28.1034 1.02797 28.0241 1.11135 27.9358 1.1853C27.5708 1.50489 27.2329 1.85275 26.8823 2.19297C26.5185 2.544 26.1801 2.91957 25.8399 3.2914C25.7737 3.36396 25.7058 3.43278 25.6451 3.5073C25.3874 3.8217 25.1315 4.13983 24.8755 4.45796C24.5721 4.83979 24.2779 5.2218 23.9727 5.5999C23.7281 5.90347 23.4709 6.19016 23.2264 6.49374C22.9098 6.88638 22.5932 7.27902 22.2984 7.68875C21.796 8.4028 21.2735 9.10351 20.8075 9.84602C20.3242 10.6196 19.8555 11.4045 19.4526 12.2223C19.412 12.3101 19.3621 12.3978 19.3052 12.4705C18.9936 12.8929 18.6746 13.3095 18.3612 13.728C18.2662 13.8554 18.1423 13.9508 17.9934 14.0032C17.5671 14.1553 17.2017 14.4065 16.8378 14.6707C15.9844 15.2907 15.2323 16.0181 14.5435 16.8115C14.3392 17.0457 14.1258 17.2705 13.9305 17.5141C13.451 18.103 13.0424 18.745 12.7125 19.4275C12.4328 20.0038 12.1841 20.5974 11.9723 21.201C11.7566 21.8063 11.5888 22.4256 11.4301 23.0451C11.2915 23.591 11.2283 24.1514 11.1853 24.716C11.1327 25.3949 11.0984 26.0741 11.0163 26.7487C10.8434 28.1569 10.617 29.5584 10.2545 30.9331C10.1744 31.2364 10.0687 31.5243 9.9263 31.8023C9.75701 32.1295 9.6115 32.4684 9.52279 32.8306C9.51476 32.8618 9.53425 32.9029 9.54646 32.9383C9.56418 32.9756 9.64337 32.9883 9.70112 32.9654C9.75336 32.9406 9.80915 32.9233 9.85785 32.891C9.92521 32.8499 9.99257 32.8088 10.0436 32.7525C10.492 32.2425 11.0074 31.7966 11.4466 31.2772C11.5962 31.101 11.7332 30.9079 11.8627 30.7184C12.0855 30.3977 12.3118 30.0846 12.5599 29.7884C12.8459 29.4469 13.1228 29.096 13.4015 28.7487C13.6196 28.476 13.8557 28.2222 14.1192 27.9873C15.1374 27.0787 16.0341 26.0586 16.8327 24.957C17.0817 24.6148 17.2946 24.2348 17.4853 23.8562C17.7299 23.3697 17.9945 22.8965 18.1696 22.379C18.2776 22.0671 18.4241 21.7689 18.5174 21.4549C18.6147 21.1206 18.6901 20.7784 18.747 20.4359C18.817 19.9957 18.8557 19.5475 18.9017 19.105C18.92 18.9317 18.9346 18.7601 18.9512 18.5831C18.9823 18.2345 19.0522 17.8904 19.0094 17.5403C18.997 17.4273 19.0179 17.3076 19.0221 17.1913C19.0308 17.0363 19.0525 16.8797 19.0482 16.7262C19.0231 16.2397 19.0606 15.7601 19.1683 15.2837C19.1845 15.212 19.1752 15.125 19.1433 15.0578C19.0427 14.8266 18.9272 14.6025 18.8014 14.3376C18.8327 14.1627 18.929 13.9706 19.0472 13.7957C19.2397 13.5076 19.4487 13.2255 19.6339 12.9318C19.8078 12.6527 19.947 12.3488 20.1154 12.0677C20.4042 11.5876 20.7095 11.1134 21.0422 10.6583C21.0746 10.6109 21.118 10.5674 21.1448 10.5181C21.6022 9.7477 22.1724 9.06091 22.6789 8.32661C22.9664 7.9112 23.263 7.50521 23.556 7.09175C23.6359 6.98067 23.7157 6.8696 23.7901 6.75656C24.4492 5.69833 25.2485 4.74274 26.0295 3.77755C26.3119 3.42855 26.5997 3.09075 26.8912 2.75117C27.1658 2.42419 27.4567 2.11232 27.7658 1.8193C28.0616 1.5371 28.3502 1.2492 28.6207 0.94246C28.8912 0.635718 29.2014 0.374137 29.5046 0.0976255C29.5382 0.0816821 29.5698 0.0712382 29.5977 0.0625695C29.6051 0.0590266 29.6162 0.0629497 29.6234 0.0686417C29.5788 0.0806646 29.5342 0.092685 29.4879 0.100976L29.5079 0.114327Z" fill="#82A682"/>
</svg>
