<svg width="262" height="62" viewBox="0 0 262 62" fill="none" xmlns="http://www.w3.org/2000/svg">
<path d="M50.9633 0.719999C52.8833 0.719999 54.1313 2.16 53.8433 4.08L44.4353 57.936C44.0513 59.856 42.3233 61.392 40.4033 61.392H37.0433C35.1233 61.392 33.2993 59.856 33.0113 57.936L27.9233 27.792C27.6353 25.968 27.1553 25.968 26.7713 27.792L21.5873 57.936C21.2033 59.856 19.3793 61.392 17.5553 61.392H14.0993C12.2753 61.392 10.4513 59.856 10.1633 57.936L1.13925 4.08C0.851254 2.16 2.09925 0.719999 4.01925 0.719999H5.26725C7.18725 0.719999 8.91525 2.16 9.29925 4.08L15.3473 40.272C15.6353 42.192 16.1153 42.192 16.4993 40.272L22.8353 4.08C23.1233 2.16 24.9473 0.719999 26.8673 0.719999H28.1153C30.0353 0.719999 31.8593 2.16 32.1473 4.08L38.1953 40.272C38.4833 42.192 39.0593 42.192 39.3473 40.272L45.6833 4.08C45.9713 2.16 47.7953 0.719999 49.7153 0.719999H50.9633ZM93.495 58.608C93.975 60.432 92.823 61.872 90.999 61.872H89.463C87.639 61.872 85.623 60.432 85.143 58.608L83.415 52.176C82.839 50.352 80.919 48.816 78.999 48.816H69.591C67.671 48.816 65.655 50.352 65.175 52.176L63.351 58.608C62.871 60.432 60.951 61.872 59.031 61.872H57.591C55.671 61.872 54.519 60.432 54.999 58.608L70.359 3.888C70.839 2.064 72.663 0.623995 74.391 0.623995C76.023 0.623995 77.847 2.064 78.327 3.888L93.495 58.608ZM76.791 40.848C78.711 40.848 79.863 39.312 79.287 37.488L75.255 22.8C74.775 20.976 73.911 20.976 73.431 22.8L69.303 37.488C68.727 39.312 69.879 40.848 71.799 40.848H76.791ZM118.915 0.719999C120.835 0.719999 122.371 2.256 122.371 4.08V5.232C122.371 7.152 120.835 8.688 118.915 8.688H115.555C113.635 8.688 112.099 10.224 112.099 12.144V57.936C112.099 59.856 110.563 61.392 108.643 61.392H107.491C105.571 61.392 104.035 59.856 104.035 57.936V12.144C104.035 10.224 102.499 8.688 100.579 8.688H97.1228C95.2028 8.688 93.6668 7.152 93.6668 5.232V4.08C93.6668 2.256 95.2028 0.719999 97.1228 0.719999H118.915ZM139.167 8.688C137.343 8.688 135.807 10.224 135.807 12.144V24.528C135.807 26.448 137.343 27.984 139.167 27.984H143.871C145.791 27.984 147.327 29.52 147.327 31.44V32.592C147.327 34.512 145.791 36.048 143.871 36.048H139.167C137.343 36.048 135.807 37.584 135.807 39.504V49.872C135.807 51.792 137.343 53.328 139.167 53.328H149.631C151.455 53.328 152.991 54.864 152.991 56.784V57.936C152.991 59.856 151.455 61.392 149.631 61.392H131.199C129.279 61.392 127.743 59.856 127.743 57.936V4.08C127.743 2.256 129.279 0.719999 131.199 0.719999H149.631C151.551 0.719999 153.087 2.256 153.087 4.08V5.232C153.087 7.152 151.551 8.688 149.631 8.688H139.167ZM186.753 58.416C187.809 60.048 187.041 61.392 185.121 61.392H182.529C180.609 61.392 178.209 60.048 177.249 58.416L171.489 49.392C170.433 47.856 168.993 46.512 168.225 46.512C167.553 46.512 166.881 48.048 166.881 49.968V57.936C166.881 59.856 165.345 61.392 163.521 61.392H162.369C160.449 61.392 158.913 59.856 158.913 57.936V4.17599C158.913 2.352 160.449 0.719999 162.369 0.719999H172.161C182.817 0.719999 188.385 12.72 188.385 24.528C188.385 30 187.233 35.088 185.025 38.928C183.969 40.752 182.721 42.384 181.281 43.536C179.841 44.784 179.169 46.704 180.225 48.24L186.753 58.416ZM173.025 38.544C173.793 38.544 176.097 38.544 178.017 34.992C179.457 32.4 180.321 28.56 180.321 24.528C180.321 16.752 177.249 8.784 172.161 8.784H169.569C168.129 8.784 166.881 10.32 166.881 12.24V35.088C166.881 37.008 168.321 38.544 169.953 38.544H173.025ZM226.56 0.719999C228.384 0.719999 229.92 2.256 229.92 4.08V57.936C229.92 59.856 228.384 61.392 226.56 61.392H225.408C223.488 61.392 221.952 59.856 221.952 57.936V30.576C221.952 28.656 221.376 28.56 220.704 30.384L213.12 51.024C212.448 52.848 211.392 52.848 210.72 51.024L203.424 30.864C202.752 29.04 202.272 29.136 202.272 31.056V57.936C202.272 59.856 200.64 61.392 198.816 61.392H197.664C195.744 61.392 194.208 59.856 194.208 57.936V4.08C194.208 2.256 195.744 0.719999 197.568 0.719999C199.488 0.719999 201.504 2.16 202.176 3.888L210.816 27.696C211.488 29.424 212.544 29.52 213.12 27.696L221.952 3.888C222.624 2.16 224.64 0.719999 226.56 0.719999ZM247.208 8.688C245.384 8.688 243.848 10.224 243.848 12.144V24.528C243.848 26.448 245.384 27.984 247.208 27.984H251.912C253.832 27.984 255.368 29.52 255.368 31.44V32.592C255.368 34.512 253.832 36.048 251.912 36.048H247.208C245.384 36.048 243.848 37.584 243.848 39.504V49.872C243.848 51.792 245.384 53.328 247.208 53.328H257.672C259.496 53.328 261.032 54.864 261.032 56.784V57.936C261.032 59.856 259.496 61.392 257.672 61.392H239.24C237.32 61.392 235.784 59.856 235.784 57.936V4.08C235.784 2.256 237.32 0.719999 239.24 0.719999H257.672C259.592 0.719999 261.128 2.256 261.128 4.08V5.232C261.128 7.152 259.592 8.688 257.672 8.688H247.208Z" fill="#F1F2E1"/>
</svg>
