<svg width="100" height="100" viewBox="0 0 100 100" fill="none" xmlns="http://www.w3.org/2000/svg">
<rect width="100" height="99.8466" rx="4" fill="#F8FBF7"/>
<path fill-rule="evenodd" clip-rule="evenodd" d="M85.8934 100H85.422C85.4208 99.9956 85.4197 99.9912 85.4187 99.9867C85.2157 99.0834 85.0014 98.1765 84.7811 97.2769C84.7625 97.2677 84.7473 97.2659 84.7327 97.2549C83.3461 96.2436 81.8585 95.5156 80.3293 94.9227C79.355 95.0459 78.3468 95.4364 77.3464 95.8237C76.4728 96.162 75.6052 96.498 74.7715 96.6517C69.1564 97.6076 65.1881 94.606 61.215 91.6007C60.7942 91.2824 60.3733 90.9641 59.9504 90.6504C58.2758 89.2877 56.5174 88.031 54.5844 86.9C56.8329 86.8375 59.1602 86.5509 61.4701 86.2664C69.4832 85.2796 77.2859 84.3187 80.8555 92.8289C81.0107 93.1842 81.169 93.5635 81.3267 93.9415C81.3777 94.0637 81.4286 94.1857 81.4794 94.3068C82.5636 94.8441 83.5887 95.4892 84.5285 96.2675C83.0869 90.5734 81.2304 84.939 78.7928 79.6197C77.0774 78.1291 74.9944 77.1661 72.7432 76.4952C71.4447 76.6616 70.1635 77.0493 68.8776 77.4383C67.0806 77.9821 65.2745 78.5286 63.3996 78.4776C60.2688 78.3213 58.0574 76.7695 55.8575 75.2258C54.173 74.0437 52.4952 72.8663 50.4166 72.3239C51.5165 72.1201 52.6112 71.8927 53.6959 71.6673C60.7869 70.1943 67.4554 68.8091 72.4222 74.6669C72.6124 74.8445 72.7944 75.0427 72.9778 75.2425C73.0061 75.2734 73.0345 75.3043 73.0629 75.3351C74.8209 75.8571 76.4468 76.5653 77.7955 77.5363C74.8042 71.4905 71.008 65.9132 66.1707 61.195C64.9037 60.7206 63.1025 60.7336 61.6069 60.7444C61.0997 60.7481 60.6277 60.7515 60.2236 60.7355C52.9715 60.3498 48.4313 56.0839 43.6147 51.5584C43.2493 51.2151 42.8823 50.8702 42.5124 50.5255C42.0624 50.1269 41.6088 49.7326 41.1559 49.3389C39.3368 47.7573 37.5284 46.1851 36 44.3826C38.0747 44.6625 40.2939 44.7762 42.5407 44.8913C46.9031 45.1149 51.3691 45.3437 55.0813 46.8048C59.007 48.386 60.7595 51.3849 62.6185 54.566C63.0813 55.3579 63.5507 56.1611 64.0618 56.9565C64.5864 57.7841 65.2043 58.562 65.8255 59.3441C66.255 59.8848 66.6861 60.4275 67.089 60.99C69.4098 63.2365 71.5327 65.691 73.4466 68.3098C72.757 66.1409 72.8633 63.7393 73.1944 61.4113C72.7844 59.8709 72.0608 58.4511 71.3367 57.0303C70.2685 54.9344 69.1991 52.836 69.1332 50.3447C69.0543 47.8632 69.8186 45.4633 70.5841 43.0596C71.3298 40.718 72.0768 38.3727 72.0465 35.9447C72.6503 36.5677 73.3146 37.207 73.9995 37.8662C76.8711 40.6297 80.1042 43.741 80.7464 47.4522C81.4519 51.4967 78.7857 54.7831 76.279 57.8729C76.1047 58.0877 75.9312 58.3017 75.7596 58.5148C75.6243 58.6771 75.4888 58.8358 75.3547 58.9928C74.9835 59.4273 74.6234 59.8489 74.3122 60.2982C73.7635 63.8011 73.6302 67.0928 75.064 70.4875C75.0879 70.5387 75.0833 70.5899 75.0674 70.6374C78.8828 76.3884 81.7648 82.8013 83.6789 89.3845C83.8615 87.5844 84.2721 85.7628 84.8088 83.9359C84.7778 82.745 84.4059 81.6407 84.0247 80.5086C83.8705 80.0508 83.7148 79.5885 83.5795 79.114C82.215 73.9721 85.5333 70.0076 89.2877 66.3345L89.2933 66.3363L89.2935 66.3362C91.6054 64.1412 93.9174 61.9463 96.1228 59.6762C96.2987 60.1375 96.4986 60.6445 96.7129 61.1876C97.966 64.3649 99.7063 68.777 99.9482 72.497V74.1317C99.8824 75.0192 99.6986 75.8422 99.3636 76.5684C97.8372 79.8365 94.4293 80.8995 91.1767 81.914C90.174 82.2268 89.186 82.5349 88.2725 82.9016C87.4382 83.1744 86.6829 83.4327 86.0279 83.8447C85.264 86.3165 84.6772 88.7903 84.2144 91.3356C84.9572 94.1791 85.5215 97.0478 85.9001 99.8961C85.9053 99.9344 85.9024 99.9691 85.8934 100Z" fill="#82A682" fill-opacity="0.2"/>
</svg>
