<svg width="110" height="160" viewBox="0 0 110 160" fill="none" xmlns="http://www.w3.org/2000/svg">
<path d="M89.4061 94.8013C78.3684 98.7017 67.9359 103.604 65.8418 115.314C65.2366 119.097 65.2654 122.817 63.7764 126.248C60.9713 129.444 58.4257 132.749 56.3603 136.225C58.7042 121.075 58.9348 105.356 56.6581 90.0973C56.735 90.0161 56.7926 89.9168 56.7926 89.7904C57.1 81.5562 60.4718 75.0104 64.8811 68.4285C66.3125 67.5888 67.8783 66.9387 69.4826 66.1803C77.8977 62.0271 87.4176 57.9462 89.9728 48.466C92.701 38.399 86.5434 26.445 83.2676 16.9288C78.7527 26.9597 68.1185 33.2888 63.8148 43.3648C60.0972 51.9421 63.1232 60.9437 61.5765 69.6293C58.7139 74.0353 56.2354 78.8024 55.5822 83.8495C54.1893 76.7349 52.22 69.7557 49.6551 63.0112C48.9634 59.2914 47.8203 55.6529 47.3496 51.9782C45.9375 41.4688 46.8308 31.5553 38.7999 22.9239C29.5394 13.1277 14.1213 7.43061 2.5841 0C4.31324 6.36523 7.26239 12.4144 9.93295 18.5991C15.9081 33.4603 20.692 47.8069 36.0429 56.014C39.2034 57.6482 44.7847 59.6706 47.6089 62.5598C52.9212 76.6897 55.3228 91.578 55.659 106.656C53.8531 103.415 51.2401 100.444 48.1853 97.7266C47.974 97.0585 47.7723 96.3903 47.5225 95.7673C42.3351 76.6717 23.5067 74.9562 5.33151 70.2432C13.8235 77.3037 14.8322 89.1944 25.7257 94.9728C32.1332 98.187 39.7894 97.6453 46.4466 99.7761C50.3564 103.261 53.6513 107.18 55.7071 111.82C55.611 124.903 54.0452 138.076 51.586 150.978C50.4236 148.513 48.9634 146.238 47.2823 144.125C47.3304 142.924 47.388 141.687 47.4168 140.541C48.4735 113.978 20.5383 112.642 0 103.722C2.83387 107.839 5.19703 112.046 7.29121 116.389C13.1126 127.196 18.0119 138.825 31.5376 142.545C35.4569 143.565 40.481 143.033 44.3812 144.288C46.9077 146.933 49.2228 149.813 51.0672 153.172C51.0864 153.208 51.1153 153.226 51.1441 153.262C50.7406 155.294 50.3179 157.334 49.876 159.356C49.7319 160.006 50.731 160.277 50.9327 159.627C52.854 153.497 54.4198 147.15 55.6014 140.685C58.9348 135.963 62.4507 131.503 66.3221 127.214C68.032 126.998 69.7996 127.187 71.74 127.422C81.0294 127.928 92.0286 131.837 100.088 125.056C108.475 117.933 108.734 97.9252 109.474 87.7589C102.884 90.2779 96.1497 92.5441 89.4157 94.8103L89.4061 94.8013Z" fill="#82A682" fill-opacity="0.5"/>
</svg>
