<svg width="390" height="163" viewBox="0 0 390 163" fill="none" xmlns="http://www.w3.org/2000/svg">
<path fill-rule="evenodd" clip-rule="evenodd" d="M390 163L368 144.371C347 128.071 303 90.8143 260 86.1571C217 81.5 173 109.443 130 128.071C87 144.371 43 153.686 22 158.343L0 163L1.42499e-05 -9.77619e-06L22 -7.85289e-06C43 -6.01701e-06 87 -2.17041e-06 130 1.58877e-06C173 5.34795e-06 217 9.19455e-06 260 1.29537e-05C303 1.67129e-05 347 2.05595e-05 368 2.23954e-05L390 2.43187e-05L390 163Z" fill="#A7D1C8"/>
</svg>
