<svg width="390" height="163" viewBox="0 0 390 163" fill="none" xmlns="http://www.w3.org/2000/svg">
<path fill-rule="evenodd" clip-rule="evenodd" d="M390 163L368 144.371C347 128.071 303 90.8143 260 86.1571C217 81.5 173 109.443 130 128.071C87 144.371 53 152.843 32 157.5L0 163L1.42499e-05 -3.5773e-06L22 -1.654e-06C43 1.81875e-07 87 4.02848e-06 130 7.78766e-06C173 1.15468e-05 217 1.53934e-05 260 1.91526e-05C303 2.29118e-05 347 2.67584e-05 368 2.85943e-05L390 3.05176e-05L390 163Z" fill="#C6D6D2"/>
</svg>
