<svg width="66" height="96" viewBox="0 0 66 96" fill="none" xmlns="http://www.w3.org/2000/svg">
<path d="M53.9015 56.8808C47.2471 59.221 40.9575 62.1625 39.695 69.1887C39.3301 71.4585 39.3475 73.6904 38.4498 75.7489C36.7587 77.6666 35.2239 79.6493 33.9788 81.7349C35.3919 72.6449 35.5309 63.2135 34.1583 54.0584C34.2046 54.0096 34.2394 53.9501 34.2394 53.8742C34.4247 48.9337 36.4575 45.0062 39.1158 41.0571C39.9788 40.5533 40.9228 40.1632 41.89 39.7082C46.9633 37.2163 52.7027 34.7677 54.2432 29.0796C55.888 23.0394 52.1757 15.867 50.2008 10.1573C47.4788 16.1758 41.0676 19.9733 38.473 26.0189C36.2317 31.1652 38.056 36.5662 37.1236 41.7776C35.3977 44.4212 33.9035 47.2815 33.5097 50.3097C32.6699 46.0409 31.4826 41.8534 29.9363 37.8067C29.5193 35.5749 28.8301 33.3917 28.5463 31.1869C27.695 24.8813 28.2336 18.9332 23.3919 13.7543C17.8089 7.87663 8.51351 4.45837 1.55792 0C2.60039 3.81914 4.37838 7.44867 5.98842 11.1595C9.59074 20.0762 12.4749 28.6842 21.7297 33.6084C23.6351 34.5889 27 35.8024 28.7027 37.5359C31.9054 46.0138 33.3533 54.9468 33.556 63.9936C32.4672 62.0488 30.8919 60.2665 29.0502 58.6359C28.9228 58.2351 28.8012 57.8342 28.6506 57.4604C25.5232 46.003 14.1718 44.9737 3.21429 42.1459C8.33398 46.3822 8.94208 53.5167 15.5097 56.9837C19.3726 58.9122 23.9884 58.5872 28.0019 59.8657C30.3591 61.9567 32.3456 64.3078 33.5849 67.0922C33.527 74.9418 32.583 82.8455 31.1004 90.5867C30.3996 89.1078 29.5193 87.7426 28.5058 86.475C28.5347 85.7545 28.5695 85.0124 28.5869 84.3244C29.2239 68.3869 12.3822 67.5852 0 62.233C1.70849 64.7032 3.13321 67.2276 4.39576 69.8333C7.90541 76.3177 10.8591 83.2951 19.0135 85.527C21.3764 86.1391 24.4054 85.8195 26.7568 86.5725C28.2799 88.1598 29.6757 89.8879 30.7876 91.9031C30.7992 91.9247 30.8166 91.9356 30.834 91.9572C30.5907 93.1761 30.3359 94.4004 30.0695 95.6139C29.9826 96.0039 30.5849 96.1664 30.7066 95.7764C31.8649 92.0981 32.8089 88.2898 33.5212 84.411C35.5309 81.5779 37.6506 78.9018 39.9846 76.3286C41.0154 76.1986 42.0811 76.3123 43.251 76.4532C48.8514 76.7565 55.4826 79.1022 60.3417 75.0339C65.3977 70.7597 65.5541 58.7551 66 52.6553C62.027 54.1667 57.9672 55.5265 53.9073 56.8862L53.9015 56.8808Z" fill="#82A682" fill-opacity="0.5"/>
</svg>
