<svg width="36" height="36" viewBox="0 0 36 36" fill="none" xmlns="http://www.w3.org/2000/svg">
<path fill-rule="evenodd" clip-rule="evenodd" d="M24 16.5H15.504L17.379 14.535C17.9505 13.9365 17.928 12.987 17.3295 12.414C16.7295 11.844 15.7815 11.865 15.2085 12.465L10.914 16.965C10.857 17.025 10.8315 17.1 10.785 17.1675C10.7235 17.256 10.6545 17.337 10.614 17.439C10.5585 17.5755 10.5405 17.718 10.5285 17.8635C10.524 17.91 10.5 17.952 10.5 18C10.5 18.003 10.5015 18.0045 10.5015 18.0075C10.503 18.2025 10.5405 18.396 10.617 18.579C10.692 18.7605 10.803 18.924 10.9395 19.062L15.4395 23.5605C15.732 23.853 16.116 24 16.5 24C16.884 24 17.268 23.853 17.5605 23.5605C18.147 22.974 18.147 22.026 17.5605 21.4395L15.621 19.5H24C24.828 19.5 25.5 18.828 25.5 18C25.5 17.172 24.828 16.5 24 16.5M18 30C11.3835 30 6 24.6165 6 18C6 11.3835 11.3835 6 18 6C24.6165 6 30 11.3835 30 18C30 24.6165 24.6165 30 18 30M18 3C9.729 3 3 9.729 3 18C3 26.271 9.729 33 18 33C26.271 33 33 26.271 33 18C33 9.729 26.271 3 18 3" fill="#231F20"/>
<mask id="mask0_89_2263" style="mask-type:luminance" maskUnits="userSpaceOnUse" x="3" y="3" width="30" height="30">
<path fill-rule="evenodd" clip-rule="evenodd" d="M24 16.5H15.504L17.379 14.535C17.9505 13.9365 17.928 12.987 17.3295 12.414C16.7295 11.844 15.7815 11.865 15.2085 12.465L10.914 16.965C10.857 17.025 10.8315 17.1 10.785 17.1675C10.7235 17.256 10.6545 17.337 10.614 17.439C10.5585 17.5755 10.5405 17.718 10.5285 17.8635C10.524 17.91 10.5 17.952 10.5 18C10.5 18.003 10.5015 18.0045 10.5015 18.0075C10.503 18.2025 10.5405 18.396 10.617 18.579C10.692 18.7605 10.803 18.924 10.9395 19.062L15.4395 23.5605C15.732 23.853 16.116 24 16.5 24C16.884 24 17.268 23.853 17.5605 23.5605C18.147 22.974 18.147 22.026 17.5605 21.4395L15.621 19.5H24C24.828 19.5 25.5 18.828 25.5 18C25.5 17.172 24.828 16.5 24 16.5M18 30C11.3835 30 6 24.6165 6 18C6 11.3835 11.3835 6 18 6C24.6165 6 30 11.3835 30 18C30 24.6165 24.6165 30 18 30M18 3C9.729 3 3 9.729 3 18C3 26.271 9.729 33 18 33C26.271 33 33 26.271 33 18C33 9.729 26.271 3 18 3" fill="white"/>
</mask>
<g mask="url(#mask0_89_2263)">
<rect width="36" height="36" fill="#174A41"/>
</g>
</svg>
