<svg width="30" height="30" viewBox="0 0 30 30" fill="none" xmlns="http://www.w3.org/2000/svg">
<path fill-rule="evenodd" clip-rule="evenodd" d="M18.61 3.61183C17.5222 3.05954 16.294 2.75 15 2.75C10.9323 2.75 7.51512 5.80853 7.06592 9.85134L6.75117 12.6841C6.69797 13.1629 6.67531 13.3634 6.64217 13.5577C6.51904 14.2799 6.2833 14.9783 5.94357 15.6274C5.85214 15.802 5.74867 15.9752 5.50083 16.3883L4.7099 17.7065L4.6724 17.769C4.30179 18.3865 3.96734 18.9438 3.77311 19.4121C3.5696 19.9028 3.40085 20.5732 3.77579 21.2354C4.15073 21.8976 4.81236 22.0978 5.33786 22.1758C5.83937 22.2502 6.48929 22.2501 7.20948 22.25H7.2095L7.28238 22.25H22.7176L22.7905 22.25H22.7905C23.5107 22.2501 24.1606 22.2502 24.6621 22.1758C25.1876 22.0978 25.8493 21.8976 26.2242 21.2354C26.5992 20.5732 26.4304 19.9028 26.2269 19.4121C26.0327 18.9438 25.6982 18.3865 25.3276 17.769L25.2901 17.7065L24.4992 16.3883C24.2513 15.9752 24.1479 15.802 24.0564 15.6274C23.7167 14.9783 23.481 14.2799 23.3578 13.5577C23.3315 13.4031 23.3117 13.2447 23.278 12.9454C23.0238 12.9814 22.7641 13 22.5 13C22.0721 13 21.6557 12.9511 21.2559 12.8587L21.2611 12.905L21.2646 12.9372L21.2647 12.9373C21.3132 13.3744 21.3422 13.6353 21.3863 13.8939C21.5446 14.8224 21.8477 15.7203 22.2845 16.5548C22.4061 16.7872 22.5411 17.0122 22.7674 17.3894L22.7842 17.4173L23.5751 18.7355C23.9954 19.436 24.2492 19.8641 24.3795 20.1783L24.3862 20.1947L24.3686 20.1974C24.0322 20.2473 23.5345 20.25 22.7176 20.25H7.28238C6.46549 20.25 5.96784 20.2473 5.63136 20.1974L5.6138 20.1947L5.62054 20.1783C5.75085 19.8641 6.0046 19.436 6.42489 18.7355L7.21581 17.4173L7.23253 17.3894L7.23254 17.3894C7.45884 17.0123 7.59388 16.7872 7.71552 16.5548C8.15232 15.7203 8.45541 14.8224 8.61372 13.8939C8.6578 13.6353 8.68678 13.3745 8.73534 12.9373L8.73534 12.9373L8.73894 12.905L9.05369 10.0722C9.39035 7.04226 11.9514 4.75 15 4.75C15.876 4.75 16.7117 4.93927 17.466 5.28092C17.7426 4.65454 18.1326 4.08949 18.61 3.61183ZM21.0174 5.48683C20.4136 5.93228 20.0173 6.64293 20.0006 7.44687C20.3772 8.01924 20.6589 8.66176 20.8221 9.35333C21.2657 9.7552 21.8543 10 22.5 10C22.6523 10 22.8014 9.98638 22.9462 9.9603L22.9341 9.85134C22.7483 8.1792 22.0547 6.67544 21.0174 5.48683ZM24.4466 20.3876C24.4464 20.3875 24.4461 20.3849 24.4459 20.3803C24.4467 20.3854 24.4467 20.3877 24.4466 20.3876ZM24.5826 20.1473C24.5825 20.1472 24.5801 20.1482 24.576 20.1505C24.5796 20.149 24.5817 20.148 24.5824 20.1475C24.5826 20.1474 24.5827 20.1473 24.5826 20.1473ZM5.41735 20.1473C5.41753 20.1472 5.4199 20.1482 5.42396 20.1505C5.4192 20.1485 5.41718 20.1474 5.41735 20.1473ZM5.55378 20.3854C5.5539 20.3842 5.55401 20.3825 5.55408 20.3803C5.55332 20.3854 5.55325 20.3877 5.55341 20.3876C5.55349 20.3875 5.55364 20.3868 5.55378 20.3854Z" fill="#F8FBF7"/>
<path d="M11.3778 22.0809C11.5914 23.2769 12.0622 24.3338 12.7171 25.0876C13.3721 25.8414 14.1745 26.25 15 26.25C15.8255 26.25 16.6279 25.8414 17.2829 25.0876C17.9378 24.3338 18.4086 23.2769 18.6222 22.0809" stroke="#F8FBF7" stroke-width="2" stroke-linecap="round"/>
<circle cx="22.5" cy="7.5" r="3" fill="#D76060" stroke="#D76060"/>
</svg>
