<svg width="36" height="36" viewBox="0 0 36 36" fill="none" xmlns="http://www.w3.org/2000/svg">
<circle cx="18" cy="18" r="18" fill="#F8FBF7"/>
<circle cx="18" cy="18" r="13.5" stroke="#174A41" stroke-width="3"/>
<mask id="path-4-outside-1_418_1238" maskUnits="userSpaceOnUse" x="10" y="9.5" width="17" height="17" fill="black">
<rect fill="white" x="10" y="9.5" width="17" height="17"/>
<path d="M20.5858 12.9142L13.3917 20.1083C13.1971 20.3029 13.0997 20.4003 13.0328 20.5186C12.9658 20.6368 12.9324 20.7704 12.8656 21.0374L12.2021 23.6915C12.1119 24.0526 12.0667 24.2331 12.1668 24.3332C12.2669 24.4333 12.4474 24.3881 12.8084 24.2979L12.8085 24.2979L15.4626 23.6344C15.7296 23.5676 15.8632 23.5342 15.9814 23.4672C16.0997 23.4003 16.1971 23.3029 16.3917 23.1083L23.5858 15.9142L23.5858 15.9142C24.2525 15.2475 24.5858 14.9142 24.5858 14.5C24.5858 14.0858 24.2525 13.7525 23.5858 13.0858L23.4142 12.9142C22.7475 12.2475 22.4142 11.9142 22 11.9142C21.5858 11.9142 21.2525 12.2475 20.5858 12.9142Z"/>
</mask>
<path d="M13.3917 20.1083L14.8059 21.5225L14.8059 21.5225L13.3917 20.1083ZM20.5858 12.9142L19.1716 11.5L19.1716 11.5L20.5858 12.9142ZM23.4142 12.9142L22 14.3284L22 14.3284L23.4142 12.9142ZM23.5858 13.0858L25 11.6716L25 11.6716L23.5858 13.0858ZM23.5858 15.9142L25 17.3284L25 17.3284L23.5858 15.9142ZM16.3917 23.1083L14.9775 21.6941L14.9775 21.6941L16.3917 23.1083ZM12.8656 21.0374L14.8059 21.5225L14.8059 21.5225L12.8656 21.0374ZM12.2021 23.6915L10.2618 23.2065L10.2618 23.2065L12.2021 23.6915ZM12.8085 24.2979L12.3234 22.3576L12.2362 22.3794L12.1514 22.4089L12.8085 24.2979ZM15.4626 23.6344L14.9775 21.6941L14.9775 21.6941L15.4626 23.6344ZM12.1668 24.3332L13.581 22.919L13.581 22.919L12.1668 24.3332ZM12.8084 24.2979L13.2935 26.2382L13.3806 26.2164L13.4655 26.1869L12.8084 24.2979ZM15.9814 23.4672L14.9961 21.7268L14.996 21.7268L15.9814 23.4672ZM23.5858 15.9142L25 17.3284L25 17.3284L23.5858 15.9142ZM13.0328 20.5186L11.2924 19.5332L11.2924 19.5332L13.0328 20.5186ZM14.8059 21.5225L22 14.3284L19.1716 11.5L11.9775 18.6941L14.8059 21.5225ZM22 14.3284L22.1716 14.5L25 11.6716L24.8284 11.5L22 14.3284ZM22.1716 14.5L14.9775 21.6941L17.8059 24.5225L25 17.3284L22.1716 14.5ZM10.9254 20.5524L10.2618 23.2065L14.1424 24.1766L14.8059 21.5225L10.9254 20.5524ZM13.2935 26.2382L15.9476 25.5746L14.9775 21.6941L12.3234 22.3576L13.2935 26.2382ZM10.2618 23.2065C10.233 23.3218 10.1506 23.6296 10.1226 23.9155C10.0922 24.2261 10.0651 25.0599 10.7526 25.7474L13.581 22.919C13.8467 23.1847 13.9991 23.5005 14.0664 23.7928C14.1251 24.0478 14.1097 24.2429 14.1036 24.3049C14.097 24.3724 14.0879 24.404 14.097 24.3631C14.1054 24.3253 14.1179 24.2747 14.1424 24.1766L10.2618 23.2065ZM12.1514 22.4089L12.1514 22.4089L13.4655 26.1869L13.4655 26.1869L12.1514 22.4089ZM12.3234 22.3576C12.2253 22.3821 12.1747 22.3946 12.1369 22.403C12.096 22.4121 12.1276 22.403 12.1951 22.3964C12.2571 22.3903 12.4522 22.3749 12.7072 22.4336C12.9995 22.5009 13.3154 22.6533 13.581 22.919L10.7526 25.7474C11.4401 26.4349 12.2739 26.4078 12.5845 26.3774C12.8704 26.3494 13.1782 26.267 13.2935 26.2382L12.3234 22.3576ZM14.9775 21.6941C14.9528 21.7188 14.9317 21.7399 14.9121 21.7593C14.8927 21.7787 14.8767 21.7945 14.8629 21.808C14.8492 21.8215 14.8391 21.8312 14.8317 21.8382C14.8281 21.8416 14.8255 21.8441 14.8236 21.8458C14.8218 21.8475 14.8209 21.8483 14.8209 21.8482C14.8209 21.8482 14.822 21.8473 14.8239 21.8456C14.8259 21.8439 14.8289 21.8413 14.8329 21.838C14.8409 21.8314 14.8529 21.8216 14.8687 21.8098C14.8845 21.7979 14.9036 21.7843 14.9256 21.7699C14.9478 21.7553 14.9713 21.7408 14.9961 21.7268L16.9668 25.2076C17.376 24.976 17.6864 24.6421 17.8059 24.5225L14.9775 21.6941ZM15.9476 25.5746C16.1117 25.5336 16.5577 25.4393 16.9669 25.2076L14.996 21.7268C15.0208 21.7128 15.0453 21.7001 15.0692 21.6886C15.0929 21.6772 15.1144 21.6678 15.1328 21.6603C15.151 21.6529 15.1655 21.6475 15.1753 21.6441C15.1802 21.6424 15.1839 21.6412 15.1864 21.6404C15.1889 21.6395 15.1902 21.6391 15.1903 21.6391C15.1903 21.6391 15.1892 21.6395 15.1868 21.6402C15.1843 21.6409 15.1808 21.6419 15.1761 21.6432C15.1663 21.6459 15.1528 21.6496 15.1341 21.6544C15.1155 21.6593 15.0937 21.6649 15.0671 21.6716C15.0403 21.6784 15.0114 21.6856 14.9775 21.6941L15.9476 25.5746ZM22.1716 14.5C22.3435 14.6719 22.4698 14.7984 22.5738 14.9078C22.6786 15.018 22.7263 15.0752 22.7457 15.1007C22.7644 15.1252 22.7226 15.0764 22.6774 14.9678C22.6254 14.8433 22.5858 14.681 22.5858 14.5H26.5858C26.5858 13.6798 26.2282 13.0707 25.9258 12.6744C25.6586 12.3242 25.2934 11.9649 25 11.6716L22.1716 14.5ZM25 17.3284L25 17.3284L22.1716 14.5L22.1716 14.5L25 17.3284ZM25 17.3284C25.2934 17.0351 25.6586 16.6758 25.9258 16.3256C26.2282 15.9292 26.5858 15.3202 26.5858 14.5H22.5858C22.5858 14.319 22.6254 14.1567 22.6774 14.0322C22.7226 13.9236 22.7644 13.8748 22.7457 13.8993C22.7263 13.9248 22.6786 13.982 22.5738 14.0922C22.4698 14.2016 22.3435 14.3281 22.1716 14.5L25 17.3284ZM22 14.3284C22.1719 14.1565 22.2984 14.0302 22.4078 13.9262C22.518 13.8214 22.5752 13.7737 22.6007 13.7543C22.6252 13.7356 22.5764 13.7774 22.4678 13.8226C22.3433 13.8746 22.181 13.9142 22 13.9142V9.91421C21.1798 9.91421 20.5707 10.2718 20.1744 10.5742C19.8242 10.8414 19.4649 11.2066 19.1716 11.5L22 14.3284ZM24.8284 11.5C24.5351 11.2066 24.1758 10.8414 23.8256 10.5742C23.4293 10.2718 22.8202 9.91421 22 9.91421V13.9142C21.819 13.9142 21.6567 13.8746 21.5322 13.8226C21.4236 13.7774 21.3748 13.7356 21.3993 13.7543C21.4248 13.7737 21.482 13.8214 21.5922 13.9262C21.7016 14.0302 21.8281 14.1565 22 14.3284L24.8284 11.5ZM11.9775 18.6941C11.8579 18.8136 11.524 19.124 11.2924 19.5332L14.7732 21.5039C14.7592 21.5287 14.7447 21.5522 14.7301 21.5744C14.7157 21.5964 14.7021 21.6155 14.6902 21.6313C14.6784 21.6471 14.6686 21.6591 14.662 21.6671C14.6587 21.6711 14.6561 21.6741 14.6544 21.6761C14.6527 21.678 14.6518 21.6791 14.6518 21.6791C14.6517 21.6791 14.6525 21.6782 14.6542 21.6764C14.6559 21.6745 14.6584 21.6719 14.6618 21.6683C14.6688 21.6609 14.6785 21.6508 14.692 21.6371C14.7055 21.6233 14.7213 21.6073 14.7407 21.5879C14.7601 21.5683 14.7812 21.5472 14.8059 21.5225L11.9775 18.6941ZM14.8059 21.5225C14.8144 21.4886 14.8216 21.4597 14.8284 21.4329C14.8351 21.4063 14.8407 21.3845 14.8456 21.3659C14.8504 21.3472 14.8541 21.3337 14.8568 21.3239C14.8581 21.3192 14.8591 21.3157 14.8598 21.3132C14.8605 21.3108 14.8609 21.3097 14.8609 21.3097C14.8609 21.3098 14.8605 21.3111 14.8596 21.3136C14.8588 21.3161 14.8576 21.3198 14.8559 21.3247C14.8525 21.3345 14.8471 21.349 14.8397 21.3672C14.8322 21.3856 14.8228 21.4071 14.8114 21.4308C14.7999 21.4547 14.7872 21.4792 14.7732 21.5039L11.2924 19.5332C11.0607 19.9423 10.9664 20.3883 10.9254 20.5524L14.8059 21.5225Z" fill="#174A41" mask="url(#path-4-outside-1_418_1238)"/>
<path d="M19.5 13L22.5 11L25.5 14L23.5 17L19.5 13Z" fill="#174A41"/>
</svg>
