<svg width="30" height="30" viewBox="0 0 30 30" fill="none" xmlns="http://www.w3.org/2000/svg">
<path fill-rule="evenodd" clip-rule="evenodd" d="M15.6934 5.71458C15.2735 5.43466 14.7265 5.43466 14.3066 5.71458L5.55662 11.5479C5.20888 11.7797 5 12.17 5 12.588V23.75C5 24.4404 5.55964 25 6.25 25H10V20C10 17.9289 11.6789 16.25 13.75 16.25H16.25C18.3211 16.25 20 17.9289 20 20V25H23.75C24.4404 25 25 24.4404 25 23.75V12.588C25 12.17 24.7911 11.7797 24.4434 11.5479L15.6934 5.71458ZM12.9199 3.63445C14.1795 2.7947 15.8205 2.7947 17.0801 3.63445L25.8301 9.46778C26.8734 10.1633 27.5 11.3341 27.5 12.588V23.75C27.5 25.8211 25.8211 27.5 23.75 27.5H18.75C18.0596 27.5 17.5 26.9404 17.5 26.25V20C17.5 19.3097 16.9404 18.75 16.25 18.75H13.75C13.0596 18.75 12.5 19.3097 12.5 20V26.25C12.5 26.9404 11.9404 27.5 11.25 27.5H6.25C4.17893 27.5 2.5 25.8211 2.5 23.75V12.588C2.5 11.3341 3.12663 10.1633 4.16987 9.46778L12.9199 3.63445Z" fill="#F8FBF7"/>
</svg>
