<svg width="40" height="40" viewBox="0 0 40 40" fill="none" xmlns="http://www.w3.org/2000/svg">
<path d="M19.9999 36C26.9137 36 32.6666 30.8338 32.6666 24.2857C32.6666 19.9892 30.3591 15.657 27.872 12.2073C25.3624 8.7265 22.5504 5.98248 21.3115 4.83605C20.5652 4.14546 19.4346 4.14547 18.6883 4.83605C17.4494 5.98248 14.6374 8.7265 12.1279 12.2073C9.6407 15.657 7.33325 19.9892 7.33325 24.2857C7.33325 30.8338 13.0862 36 19.9999 36Z" stroke="#F1F2E1" stroke-width="2"/>
<path d="M19.9999 29.9998C19.1244 29.9998 18.2575 29.8274 17.4487 29.4924C16.6399 29.1573 15.9049 28.6663 15.2859 28.0472C14.6668 27.4282 14.1758 26.6932 13.8407 25.8844C13.5057 25.0756 13.3333 24.2086 13.3333 23.3332" stroke="#F1F2E1" stroke-width="2" stroke-linecap="round"/>
</svg>
