<svg width="30" height="30" viewBox="0 0 30 30" fill="none" xmlns="http://www.w3.org/2000/svg">
<path d="M6.16117 23.8388C7.90932 25.587 10.1366 26.7775 12.5614 27.2598C14.9861 27.7421 17.4995 27.4946 19.7835 26.5485C22.0676 25.6024 24.0199 24.0002 25.3934 21.9446C26.7669 19.889 27.5 17.4723 27.5 15C27.5 12.5277 26.7669 10.111 25.3934 8.05537C24.0199 5.99976 22.0676 4.3976 19.7835 3.45151C17.4995 2.50541 14.9861 2.25787 12.5614 2.74018C10.1366 3.2225 7.90932 4.41301 6.16117 6.16116" stroke="#F8FBF7" stroke-width="2"/>
<path d="M18.75 15L19.5309 14.3753L20.0306 15L19.5309 15.6247L18.75 15ZM3.75 16C3.19772 16 2.75 15.5523 2.75 15C2.75 14.4477 3.19772 14 3.75 14V16ZM14.5309 8.1253L19.5309 14.3753L17.9691 15.6247L12.9691 9.3747L14.5309 8.1253ZM19.5309 15.6247L14.5309 21.8747L12.9691 20.6253L17.9691 14.3753L19.5309 15.6247ZM18.75 16H3.75V14H18.75V16Z" fill="#F8FBF7"/>
</svg>
