<svg width="30" height="30" viewBox="0 0 30 30" fill="none" xmlns="http://www.w3.org/2000/svg">
<path d="M12.5 18.75L12.5 15" stroke="#174A41" stroke-width="3" stroke-linecap="round"/>
<path d="M17.5 18.75L17.5 15" stroke="#174A41" stroke-width="3" stroke-linecap="round"/>
<path d="M5.5 8.75H24.5V8.75C23.3954 8.75 22.5 9.64543 22.5 10.75V21C22.5 22.8856 22.5 23.8284 21.9142 24.4142C21.3284 25 20.3856 25 18.5 25H11.5C9.61438 25 8.67157 25 8.08579 24.4142C7.5 23.8284 7.5 22.8856 7.5 21V10.75C7.5 9.64543 6.60457 8.75 5.5 8.75V8.75Z" stroke="#174A41" stroke-width="3" stroke-linecap="round"/>
<path d="M12.5852 4.21324C12.7276 4.08034 13.0415 3.96291 13.4781 3.87915C13.9147 3.7954 14.4497 3.75 15 3.75C15.5503 3.75 16.0853 3.7954 16.5219 3.87915C16.9585 3.96291 17.2724 4.08034 17.4148 4.21324" stroke="#174A41" stroke-width="3" stroke-linecap="round"/>
</svg>
